<?xml version="1.0" standalone="no"?>
<!DOCTYPE svg PUBLIC "-//W3C//DTD SVG 1.1//EN" "http://www.w3.org/Graphics/SVG/1.1/DTD/svg11.dtd" >
<svg>
<metadata>
Created by FontForge 20090622 at Wed Jun 22 02:16:13 2016
 By deploy user
&#194;&#169; 2011 Microsoft Corporation. All Rights Reserved.
</metadata>
<defs>
<font id="Nyala-Regular" horiz-adv-x="0" >
  <font-face 
    font-family="Nyala"
    font-weight="400"
    font-stretch="normal"
    units-per-em="2048"
    panose-1="2 0 5 4 7 3 0 2 0 3"
    ascent="1638"
    descent="-410"
    x-height="735"
    cap-height="1181"
    bbox="-962 -534 2620 1829"
    underline-thickness="50"
    underline-position="-150"
    unicode-range="U+0020-U+FB04"
  />
<missing-glyph horiz-adv-x="841" 
d="M841 1180v-1180h-841v1180h841zM759 83v1015h-676v-1015h676zM370 385l-2 28q0 111 35 158q17 23 32.5 40t29.5 30q25 26 41.5 46t24.5 34q15 27 15 62q0 62 -38 100q-37 37 -87 37q-52 0 -89 -36t-47 -120l-81 13q13 115 73.5 170.5t148.5 55.5q86 0 145 -56
q58 -55 58 -157q0 -50 -20 -98q-20 -41 -81 -101q-63 -55 -73 -89q-10 -29 -10 -113zM352 246q0 25 17 42t41 17q25 0 42.5 -17t17.5 -42t-17.5 -41.5t-42.5 -16.5q-24 0 -41 16.5t-17 41.5z" />
    <glyph glyph-name="f_b.liga" unicode="fb" horiz-adv-x="1484" 
d="M27 707q26 2 57 4l61 4v143q0 112 28.5 202t83.5 153.5t135 98t183 34.5q12 0 27.5 -1.5t31.5 -4t31 -5.5t27 -7q90 18 109 18q32 0 32 -36v-633l101 29t96.5 24.5t83 17t61.5 6.5q58 0 104 -33.5t78.5 -85t49.5 -113.5t17 -119q0 -107 -38.5 -186t-103.5 -132
t-150.5 -79t-179.5 -26q-46 0 -92.5 5.5t-87 15.5t-71.5 23t-46 28v1081q0 126 -126 126q-65 0 -105 -22t-62.5 -60t-30.5 -89.5t-8 -110.5v-253q67 3 123.5 4.5t87.5 1.5q8 0 14.5 -5t6.5 -16v-2l-4 -62l-228 -1v-617q0 -24 -24 -28q-17 -3 -36.5 -5.5t-37.5 -4t-33 -2
t-23 -0.5q-24 0 -24 25v631l-115 -3zM833 182q0 -33 16.5 -55.5t41.5 -36t55 -19.5t58 -6q243 0 243 250q0 57 -13.5 116t-40 107t-65 78t-88.5 30q-19 0 -75 -10.5t-132 -33.5v-420z" />
    <glyph glyph-name="f_f_b.liga" unicode="ffb" horiz-adv-x="1994" 
d="M27 707q26 2 57 4l61 4v134q0 73 9 131t26 104t41 81.5t55 64.5q57 51 127 79t155 28q33 0 68 -6.5t65.5 -21t52 -37t27.5 -54.5q116 128 314 128q12 0 27.5 -1.5t31.5 -4t31 -5.5t27 -7q90 18 109 18q32 0 32 -36v-633l101 29t96.5 24.5t83 17t61.5 6.5q58 0 104 -33.5
t78.5 -85t49.5 -113.5t17 -119q0 -107 -38.5 -186t-103.5 -132t-150.5 -79t-179.5 -26q-46 0 -92.5 5.5t-87 15.5t-71.5 23t-46 28v1081q0 126 -126 126q-65 0 -105 -22t-62.5 -60t-30.5 -89.5t-8 -110.5v-248q33 1 63 1h57h91q8 0 15 -5.5t6 -17.5l-4 -62h-228v-618
q0 -24 -24 -28q-17 -3 -36.5 -5.5t-37.5 -4t-33 -2t-23 -0.5q-24 0 -24 25v633l-332 -1v-617q0 -24 -24 -28q-17 -3 -36.5 -5.5t-37.5 -4t-33 -2t-23 -0.5q-24 0 -24 25v631l-115 -3zM1343 182q0 -33 16.5 -55.5t41.5 -36t55 -19.5t58 -6q243 0 243 250q0 57 -13.5 116
t-40 107t-65 78t-88.5 30q-19 0 -75 -10.5t-132 -33.5v-420zM655 858q0 134 44 245q-17 -3 -37 -3q-11 0 -18.5 0.5t-18.5 2.5v21q0 27 -4.5 50.5t-17 41t-36 27t-62.5 9.5q-59 0 -94.5 -23.5t-55 -63t-26 -91t-6.5 -106.5v-244q72 1 158 2l174 2v130z" />
    <glyph glyph-name="uniFB00" unicode="ff" horiz-adv-x="1061" 
d="M27 707q26 2 57 4l61 4v134q0 73 9 131t26 104t41 81.5t55 64.5q55 51 125.5 79t151.5 28q33 0 67.5 -6.5t64 -21t51 -36.5t27.5 -53q2 2 4.5 5t4.5 5l11 11q52 51 119.5 78.5t143.5 27.5q33 0 69.5 -7t67 -23.5t50.5 -42.5t20 -63q0 -28 -9.5 -47t-25.5 -31t-37.5 -17.5
t-46.5 -5.5q-20 0 -42 3v21q0 27 -3 50.5t-13.5 40t-30.5 26t-53 9.5q-51 0 -82.5 -23.5t-48.5 -62.5t-22.5 -90t-5.5 -106v-249q33 1 63 1h57h91q8 0 15 -5.5t6 -17.5l-4 -62h-228v-618q0 -24 -24 -28q-17 -3 -36.5 -5.5t-37.5 -4t-33 -2t-23 -0.5q-24 0 -24 25v633
l-332 -1v-617q0 -24 -24 -28q-17 -3 -36.5 -5.5t-37.5 -4t-33 -2t-23 -0.5q-24 0 -24 25v631l-115 -3zM655 859q0 78 10 137.5t28 107.5q-11 -4 -39 -4q-11 0 -18.5 0.5t-18.5 2.5v21q0 27 -4 50.5t-17 41t-36 27t-60 9.5q-57 0 -92 -23.5t-53.5 -63t-25 -91t-6.5 -106.5
v-244q72 1 158 2l174 2v131z" />
    <glyph glyph-name="f_h.liga" unicode="fh" horiz-adv-x="1479" 
d="M833 671q46 17 92.5 32t88.5 26.5t77 18t59 6.5q57 0 97.5 -18t66.5 -50t38 -77.5t12 -100.5l-5 -481q0 -24 -24 -28q-16 -3 -35.5 -5.5t-38 -4t-34 -2t-22.5 -0.5q-24 0 -24 25l5 398v15q0 54 -8.5 94.5t-28.5 68.5t-52 42t-80 14q-18 0 -67.5 -10t-116.5 -39v-568
q0 -24 -24 -28q-16 -3 -35.5 -5.5t-38 -4t-34 -2t-22.5 -0.5q-24 0 -24 25v1121q0 126 -126 126q-65 0 -105 -22t-62.5 -60t-30.5 -89.5t-8 -110.5v-253q67 3 123.5 4.5t87.5 1.5q8 0 14.5 -5t6.5 -16v-2l-4 -62l-228 -1v-617q0 -24 -24 -28q-17 -3 -36.5 -5.5t-37.5 -4
t-33 -2t-23 -0.5q-24 0 -24 25v631l-115 -3l-3 67q26 2 57 4l61 4v143q0 112 28.5 202t83.5 153.5t135 98t183 34.5q12 0 27.5 -1.5t31.5 -4t31 -5.5t27 -7q90 18 109 18q32 0 32 -36v-639z" />
    <glyph glyph-name="f_f_h.liga" unicode="ffh" horiz-adv-x="1989" 
d="M27 707q26 2 57 4l61 4v134q0 73 9 131t26 104t41 81.5t55 64.5q57 51 127 79t155 28q33 0 68 -6.5t65.5 -21t52 -37t27.5 -54.5q116 128 314 128q12 0 27.5 -1.5t31.5 -4t31 -5.5t27 -7q90 18 109 18q32 0 32 -36v-639q46 17 92.5 32t88.5 26.5t77 18t59 6.5
q57 0 97.5 -18t66.5 -50t38 -77.5t12 -100.5l-5 -481q0 -24 -24 -28q-16 -3 -35.5 -5.5t-38 -4t-34 -2t-22.5 -0.5q-24 0 -24 25l5 398v15q0 54 -8.5 94.5t-28.5 68.5t-52 42t-80 14q-18 0 -67.5 -10t-116.5 -39v-568q0 -24 -24 -28q-16 -3 -35.5 -5.5t-38 -4t-34 -2
t-22.5 -0.5q-24 0 -24 25v1121q0 126 -126 126q-65 0 -105 -22t-62.5 -60t-30.5 -89.5t-8 -110.5v-248q33 1 63 1h57h91q8 0 15 -5.5t6 -17.5l-4 -62h-228v-618q0 -24 -24 -28q-17 -3 -36.5 -5.5t-37.5 -4t-33 -2t-23 -0.5q-24 0 -24 25v633l-332 -1v-617q0 -24 -24 -28
q-17 -3 -36.5 -5.5t-37.5 -4t-33 -2t-23 -0.5q-24 0 -24 25v631l-115 -3zM655 858q0 134 44 245q-17 -3 -37 -3q-11 0 -18.5 0.5t-18.5 2.5v21q0 27 -4.5 50.5t-17 41t-36 27t-62.5 9.5q-59 0 -94.5 -23.5t-55 -63t-26 -91t-6.5 -106.5v-244q72 1 158 2l174 2v130z" />
    <glyph glyph-name="uniFB01" unicode="fi" horiz-adv-x="948" 
d="M323 644v-617q0 -24 -24 -28q-17 -3 -36.5 -5.5t-37.5 -4t-33 -2t-23 -0.5q-24 0 -24 25v631l-115 -3l-3 67q26 2 57 4l61 4v129q0 111 28.5 202.5t84 157t138 102t190.5 36.5q38 0 80 -7.5t77 -24.5t57.5 -44t22.5 -66q0 -29 -9.5 -49t-26.5 -32.5t-39.5 -18t-47.5 -5.5
q-11 0 -22 1t-21 3v30q0 68 -28.5 97t-101.5 29q-63 0 -103 -24t-62.5 -64.5t-30.5 -93t-8 -110.5v-241q43 1 95 2l100.5 2t87.5 1.5t57 0.5q52 11 85.5 16t42.5 5q32 0 32 -36v-686q0 -24 -24 -28q-17 -3 -36.5 -5.5t-37.5 -4t-33 -2t-23 -0.5q-24 0 -24 25v545
q0 52 -17 70t-53 18z" />
    <glyph glyph-name="uniFB03" unicode="ffi" horiz-adv-x="1458" 
d="M833 645v-618q0 -24 -24 -28q-17 -3 -36.5 -5.5t-37.5 -4t-33 -2t-23 -0.5q-24 0 -24 25v633l-332 -1v-617q0 -24 -24 -28q-17 -3 -36.5 -5.5t-37.5 -4t-33 -2t-23 -0.5q-24 0 -24 25v631l-115 -3l-3 67q26 2 57 4l61 4v129q0 74 9 132t26 103.5t41.5 81t55.5 64.5
q57 51 127 79t155 28q34 0 69.5 -7t66 -21.5t52 -37.5t26.5 -55q57 63 137 97t186 34q38 0 80 -7.5t77 -24.5t57.5 -44t22.5 -66q0 -29 -9.5 -49t-26.5 -32.5t-39.5 -18t-47.5 -5.5q-11 0 -22 1t-21 3v30q0 68 -28.5 97t-101.5 29q-63 0 -103 -24t-62.5 -64.5t-30.5 -93
t-8 -110.5v-236q55 0 105.5 0.5t95.5 0.5h139q52 11 85.5 16t42.5 5q32 0 32 -36v-686q0 -24 -24 -28q-17 -3 -36.5 -5.5t-37.5 -4t-33 -2t-23 -0.5q-24 0 -24 25v545q0 52 -17 70t-53 18h-252zM323 722q63 1 149 2t183 2v118q0 138 47 255q-10 -2 -19.5 -3t-18.5 -1
q-19 0 -37 3v21q0 27 -4.5 50.5t-17.5 41t-36.5 27t-62.5 9.5q-59 0 -95 -23.5t-55.5 -63t-26 -91t-6.5 -106.5v-241z" />
    <glyph glyph-name="f_j.liga" unicode="fj" horiz-adv-x="948" 
d="M323 722q43 1 95 2l100.5 2t87.5 1.5t57 0.5q52 11 85.5 16t42.5 5q32 0 32 -36v-565q0 -222 -59 -354q-42 -90 -125.5 -154.5t-204.5 -115.5l-30 55q50 31 86 58t61.5 57t43 67t30.5 90q11 45 15.5 111t4.5 160v435q0 52 -17 70t-53 18l-252 -1v-617q0 -24 -24 -28
q-17 -3 -36.5 -5.5t-37.5 -4t-33 -2t-23 -0.5q-24 0 -24 25v631l-115 -3l-3 67q26 2 57 4l61 4v129q0 111 28.5 202.5t84 157t138 102t190.5 36.5q38 0 80 -7.5t77 -24.5t57.5 -44t22.5 -66q0 -29 -9.5 -49t-26.5 -32.5t-39.5 -18t-47.5 -5.5q-11 0 -22 1t-21 3v30
q0 68 -28.5 97t-101.5 29q-63 0 -103 -24t-62.5 -64.5t-30.5 -93t-8 -110.5v-241z" />
    <glyph glyph-name="f_f_j.liga" unicode="ffj" horiz-adv-x="1458" 
d="M833 27q0 -24 -24 -28q-17 -3 -36.5 -5.5t-37.5 -4t-33 -2t-23 -0.5q-24 0 -24 25v633l-332 -1v-617q0 -24 -24 -28q-17 -3 -36.5 -5.5t-37.5 -4t-33 -2t-23 -0.5q-24 0 -24 25v631l-115 -3l-3 67q26 2 57 4l61 4v129q0 74 9 132t26 103.5t41.5 81t55.5 64.5
q57 51 127 79t155 28q34 0 69.5 -7t66 -21.5t52 -37.5t26.5 -55q57 63 137 97t186 34q38 0 80 -7.5t77 -24.5t57.5 -44t22.5 -66q0 -29 -9.5 -49t-26.5 -32.5t-39.5 -18t-47.5 -5.5q-11 0 -22 1t-21 3v30q0 68 -28.5 97t-101.5 29q-63 0 -103 -24t-62.5 -64.5t-30.5 -93
t-8 -110.5v-236q55 0 105.5 0.5t95.5 0.5h139q52 11 85.5 16t42.5 5q32 0 32 -36v-565q0 -222 -59 -354q-42 -90 -125.5 -154.5t-204.5 -115.5l-30 55q50 31 86 58t61.5 57t43 67t30.5 90q11 45 15.5 111t4.5 160v435q0 52 -17 70t-53 18h-252v-618zM655 844q0 138 47 255
q-10 -2 -19.5 -3t-18.5 -1q-19 0 -37 3v21q0 27 -4.5 50.5t-17.5 41t-36.5 27t-62.5 9.5q-59 0 -95 -23.5t-55.5 -63t-26 -91t-6.5 -106.5v-241q63 1 149 2t183 2v118z" />
    <glyph glyph-name="f_k.liga" unicode="fk" horiz-adv-x="1381" 
d="M1108 700q10 10 19.5 15t23.5 9q22 6 48 10.5t50.5 7.5t44 4.5t27.5 1.5q17 0 17 -16q0 -5 -8 -13l-334 -264l365 -428q5 -8 5 -13q0 -12 -14 -15q-17 -3 -40.5 -5.5t-46.5 -4t-42 -2t-28 -0.5q-13 0 -22.5 5.5t-21.5 19.5l-318 373v-358q0 -24 -24 -28
q-17 -3 -36.5 -5.5t-37.5 -4t-33 -2t-23 -0.5q-24 0 -24 25v1121q0 126 -126 126q-65 0 -105 -22t-62.5 -60t-30.5 -89.5t-8 -110.5v-253q67 3 123.5 4.5t87.5 1.5q8 0 14.5 -5t6.5 -16v-2l-4 -62l-228 -1v-617q0 -24 -24 -28q-17 -3 -36.5 -5.5t-37.5 -4t-33 -2t-23 -0.5
q-24 0 -24 25v631l-115 -3l-3 67q26 2 57 4l61 4v143q0 112 28.5 202t83.5 153.5t135 98t183 34.5q12 0 27.5 -1.5t31.5 -4t31 -5.5t27 -7q90 18 109 18q32 0 32 -36v-906z" />
    <glyph glyph-name="f_f_k.liga" unicode="ffk" horiz-adv-x="1891" 
d="M27 707q26 2 57 4l61 4v134q0 73 9 131t26 104t41 81.5t55 64.5q57 51 127 79t155 28q33 0 68 -6.5t65.5 -21t52 -37t27.5 -54.5q116 128 314 128q12 0 27.5 -1.5t31.5 -4t31 -5.5t27 -7q90 18 109 18q32 0 32 -36v-906l275 296q10 10 19.5 15t23.5 9q22 6 48 10.5
t50.5 7.5t44 4.5t27.5 1.5q17 0 17 -16q0 -5 -8 -13l-334 -264l365 -428q5 -8 5 -13q0 -12 -14 -15q-17 -3 -40.5 -5.5t-46.5 -4t-42 -2t-28 -0.5q-13 0 -22.5 5.5t-21.5 19.5l-318 373v-358q0 -24 -24 -28q-17 -3 -36.5 -5.5t-37.5 -4t-33 -2t-23 -0.5q-24 0 -24 25v1121
q0 126 -126 126q-65 0 -105 -22t-62.5 -60t-30.5 -89.5t-8 -110.5v-248q33 1 63 1h57h91q8 0 15 -5.5t6 -17.5l-4 -62h-228v-618q0 -24 -24 -28q-17 -3 -36.5 -5.5t-37.5 -4t-33 -2t-23 -0.5q-24 0 -24 25v633l-332 -1v-617q0 -24 -24 -28q-17 -3 -36.5 -5.5t-37.5 -4
t-33 -2t-23 -0.5q-24 0 -24 25v631l-115 -3zM655 858q0 134 44 245q-17 -3 -37 -3q-11 0 -18.5 0.5t-18.5 2.5v21q0 27 -4.5 50.5t-17 41t-36 27t-62.5 9.5q-59 0 -94.5 -23.5t-55 -63t-26 -91t-6.5 -106.5v-244q72 1 158 2l174 2v130z" />
    <glyph glyph-name="uniFB02" unicode="fl" horiz-adv-x="958" 
d="M27 707q26 2 57 4l61 4v143q0 112 28.5 202t83.5 153.5t135 98t183 34.5q12 0 27.5 -1.5t31.5 -4t31 -5.5t27 -7q90 18 109 18q32 0 32 -36v-1283q0 -24 -24 -28q-17 -3 -36.5 -5.5t-37.5 -4t-33 -2t-23 -0.5q-24 0 -24 25v1121q0 126 -126 126q-65 0 -105 -22t-62.5 -60
t-30.5 -89.5t-8 -110.5v-253q67 3 123.5 4.5t87.5 1.5q8 0 14.5 -5t6.5 -16v-2l-4 -62l-228 -1v-617q0 -24 -24 -28q-17 -3 -36.5 -5.5t-37.5 -4t-33 -2t-23 -0.5q-24 0 -24 25v631l-115 -3z" />
    <glyph glyph-name="uniFB04" unicode="ffl" horiz-adv-x="1468" 
d="M27 707q26 2 57 4l61 4v134q0 73 9 131t26 104t41 81.5t55 64.5q57 51 127 79t155 28q33 0 68 -6.5t65.5 -21t52 -37t27.5 -54.5q116 128 314 128q12 0 27.5 -1.5t31.5 -4t31 -5.5t27 -7q90 18 109 18q32 0 32 -36v-1283q0 -24 -24 -28q-17 -3 -36.5 -5.5t-37.5 -4
t-33 -2t-23 -0.5q-24 0 -24 25v1121q0 126 -126 126q-65 0 -105 -22t-62.5 -60t-30.5 -89.5t-8 -110.5v-248q33 1 63 1h57h91q8 0 15 -5.5t6 -17.5l-4 -62h-228v-618q0 -24 -24 -28q-17 -3 -36.5 -5.5t-37.5 -4t-33 -2t-23 -0.5q-24 0 -24 25v633l-332 -1v-617
q0 -24 -24 -28q-17 -3 -36.5 -5.5t-37.5 -4t-33 -2t-23 -0.5q-24 0 -24 25v631l-115 -3zM655 858q0 134 44 245q-17 -3 -37 -3q-11 0 -18.5 0.5t-18.5 2.5v21q0 27 -4.5 50.5t-17 41t-36 27t-62.5 9.5q-59 0 -94.5 -23.5t-55 -63t-26 -91t-6.5 -106.5v-244q72 1 158 2l174 2
v130z" />
    <glyph glyph-name=".notdef" horiz-adv-x="841" 
d="M841 1180v-1180h-841v1180h841zM759 83v1015h-676v-1015h676zM370 385l-2 28q0 111 35 158q17 23 32.5 40t29.5 30q25 26 41.5 46t24.5 34q15 27 15 62q0 62 -38 100q-37 37 -87 37q-52 0 -89 -36t-47 -120l-81 13q13 115 73.5 170.5t148.5 55.5q86 0 145 -56
q58 -55 58 -157q0 -50 -20 -98q-20 -41 -81 -101q-63 -55 -73 -89q-10 -29 -10 -113zM352 246q0 25 17 42t41 17q25 0 42.5 -17t17.5 -42t-17.5 -41.5t-42.5 -16.5q-24 0 -41 16.5t-17 41.5z" />
    <glyph glyph-name="glyph1" 
 />
    <glyph glyph-name="glyph2" 
 />
    <glyph glyph-name="space" unicode=" " horiz-adv-x="600" 
 />
    <glyph glyph-name="space" unicode="&#xa0;" horiz-adv-x="600" 
 />
    <glyph glyph-name="uni1200" unicode="&#x1200;" horiz-adv-x="1040" 
d="M678 1135q9 4 37 12t62 16t67 14.5t51 6.5q15 0 25.5 -15t18.5 -39.5t12.5 -54t7.5 -59t4 -55t1 -40.5q0 -94 -12 -200t-39 -210t-71 -199.5t-109 -168t-152 -116t-200 -43.5q-144 0 -214 76t-70 213q0 30 4.5 68.5t11 81t15 87l16.5 86.5l18 90l16.5 88.5t12 72
t4.5 40.5q0 29 -14.5 53t-57.5 39l4 37q97 26 162 40t92 14q22 0 32 -10t10 -38q0 -32 -20.5 -109t-46.5 -200l-15 -72q-21 -103 -37 -191t-16 -160q0 -40 6 -80t21.5 -72t43.5 -52t73 -20q52 0 94 26.5t75.5 71.5t59 104.5t44 127t31 138t20.5 137.5t11 125.5t3 102.5
q0 31 -2.5 65t-11.5 63t-27 49.5t-49 25.5z" />
    <glyph glyph-name="uni1201" unicode="&#x1201;" horiz-adv-x="1447" 
d="M669 1019q9 4 36.5 12t60.5 16.5t65.5 14.5t52.5 6q18 0 30.5 -13.5t20.5 -35.5t12.5 -48.5t6 -53t2 -49t0.5 -36.5q0 -42 -3 -89.5t-9 -93.5l412 76l2 -29q-7 -21 -7 -59q0 -54 19 -105t57 -84l-2 -14q-27 -8 -42 -9t-34 -1q-42 0 -78 15t-62 42t-41 63t-15 78l-219 -42
q-14 -73 -36 -146t-55 -139t-77 -123t-102 -98.5t-130.5 -65.5t-162.5 -24q-146 0 -215.5 69.5t-69.5 194.5q0 63 12.5 132t29.5 141q8 34 16.5 75.5t15.5 79t11.5 65.5t4.5 36q0 29 -15 53t-58 39l4 37q97 26 161 40t91 14q23 0 33 -10t10 -38t-17 -95.5l-42 -173.5
l-18 -73q-21 -91 -34 -167t-13 -139q0 -35 6 -70.5t22 -64t44.5 -46t73.5 -17.5q69 0 121 40.5t89.5 106t61.5 147t38.5 164t20 157.5t5.5 126q0 27 -1 57t-9 55.5t-26.5 44t-52.5 22.5z" />
    <glyph glyph-name="uni1202" unicode="&#x1202;" horiz-adv-x="1077" 
d="M645 1305q89 24 141.5 33.5t82.5 9.5q42 0 58 -20t16 -51q0 -42 -17.5 -87l-37.5 -93l-348 -795q-53 -127 -53 -176q0 -35 19.5 -47.5t55.5 -12.5q16 0 39.5 0.5t50.5 2t56 4t56 7.5q14 58 68.5 92t154.5 39l3 -23q-14 -22 -22 -50.5t-8 -57.5q0 -42 17 -78t55 -55
l-2 -22q-20 -5 -42 -7.5t-44 -2.5q-30 0 -59 5.5t-53 18.5t-41 33t-23 49q-141 -26 -229 -35t-127 -9q-67 0 -97.5 31t-30.5 82q0 46 17.5 100t41.5 108l220 502q-38 -5 -83.5 -16l-89 -22t-81.5 -19.5t-60 -8.5q-31 0 -51.5 10t-33 28t-18 42.5t-5.5 53.5q0 8 1 20t2.5 26
t3.5 29t4 28q6 35 9.5 66t3.5 53q0 19 -3 34.5t-12 27t-27 19.5t-48 13l-3 35q85 33 140.5 48t90.5 15q26 0 44.5 -19.5t18.5 -55.5q0 -11 -1.5 -27.5t-4 -35t-5.5 -38l-6 -37.5q-8 -43 -14 -79t-6 -63q0 -43 19.5 -64t73.5 -21q7 0 29 3.5l48.5 8l52.5 8.5t41 6l100 230
q15 34 24.5 60t9.5 46q0 26 -17 40.5t-68 21.5z" />
    <glyph glyph-name="uni1203" unicode="&#x1203;" horiz-adv-x="960" 
d="M567 20q-64 -20 -108.5 -32t-70.5 -12q-52 0 -82 28.5t-30 82.5q0 32 11 74t34 91l234 497q-38 -5 -82 -15.5l-86.5 -21.5t-79 -19.5t-58.5 -8.5q-31 0 -51.5 10t-33 28t-18 42.5t-5.5 53.5q0 8 1 20t2.5 26t3.5 29t4 28q6 35 9.5 66t3.5 53q0 19 -3 34.5t-12 27
t-27 19.5t-48 13l-3 35q85 33 140.5 48t90.5 15q26 0 44.5 -19.5t18.5 -55.5q0 -11 -1.5 -27.5t-4 -35t-5.5 -38l-6 -37.5q-8 -43 -14 -79t-6 -63q0 -43 19.5 -64t73.5 -21q7 0 27.5 3.5l45.5 7.5l51 9q13 2 23.5 4t18.5 3l105 229q16 34 25 60t9 46q0 26 -17 40.5t-68 21.5
l3 39q87 24 138.5 33.5t82.5 9.5q42 0 58 -20t16 -51q0 -42 -16.5 -87t-38.5 -93l-356 -767q-25 -54 -39.5 -91.5t-14.5 -63.5q0 -28 21.5 -43t72.5 -20z" />
    <glyph glyph-name="uni1204" unicode="&#x1204;" horiz-adv-x="1084" 
d="M641 1290q90 24 141.5 33.5t79.5 9.5q42 0 58 -20t16 -51q0 -42 -16.5 -87t-38.5 -93l-300 -652q75 24 147.5 42t129.5 18q35 0 64.5 -7.5t51 -23.5t33.5 -41t12 -60q0 -74 -32 -123t-82.5 -80t-113.5 -48.5t-124 -28.5q-103 -42 -178 -67.5t-117 -25.5q-48 0 -79 28
t-31 82q0 65 45 164l244 525q-38 -5 -82.5 -15.5l-87 -21.5t-79 -19.5t-58.5 -8.5q-31 0 -51.5 10t-33 28t-18 42.5t-5.5 53.5q0 8 1 20t2.5 26t3.5 29t4 28q6 35 9.5 66t3.5 53q0 19 -3 34.5t-12 27t-27 19.5t-48 13l-3 35q85 33 140.5 48t90.5 15q26 0 44.5 -19.5
t18.5 -55.5q0 -11 -1.5 -27.5t-4 -35t-5.5 -38l-6 -37.5q-8 -43 -14 -79t-6 -63q0 -43 19.5 -64t73.5 -21q7 0 28 3.5l46.5 8t51 9.5l41.5 8l105 227q16 34 25 60t9 46q0 26 -17 40.5t-68 21.5zM490 226q-16 -31 -16 -60q0 -23 16.5 -37t58.5 -14q43 0 92.5 14t91 39.5
t69 62t27.5 81.5q0 42 -28 59.5t-70 17.5q-36 0 -85 -11.5t-100 -25.5z" />
    <glyph glyph-name="uni1205" unicode="&#x1205;" horiz-adv-x="1066" 
d="M429 716q-14 -53 -27 -111t-22.5 -114.5t-15 -108t-5.5 -92.5q0 -40 5.5 -80t19.5 -72t39.5 -52t66.5 -20q47 0 85 26.5t68 71.5t53 104.5t40 127t28.5 138t18.5 137.5t10 125.5t3 102.5q0 31 -2.5 65t-11.5 63t-27 49.5t-49 25.5l-2 33q9 4 37 12t61.5 16.5t66 14.5
t51.5 6q15 0 26.5 -15t19.5 -39.5t13 -54t7.5 -59t3.5 -55t1 -40.5q0 -94 -10.5 -200t-35.5 -210t-66.5 -199.5t-102.5 -168t-144.5 -116t-193.5 -43.5q-139 0 -207 76t-68 213q0 98 18 189.5t39 185.5l-134 -22l18 83t15.5 76l11 61t4.5 38q0 29 -16 53t-59 39l4 37
q97 26 163 40t93 14q23 0 33 -10t10 -38q0 -16 -5 -46t-13.5 -72t-21 -94.5l-27.5 -112.5z" />
    <glyph glyph-name="uni1206" unicode="&#x1206;" horiz-adv-x="1384" 
d="M656 1130l169 41.5t151 34t126.5 23t95.5 8.5q36 0 69.5 -7t59.5 -24.5t41.5 -45.5t15.5 -70q0 -77 -40 -132.5t-103 -91.5t-141 -54t-154 -21q-5 -67 -14.5 -137t-25 -139.5t-37.5 -135.5t-52 -126q-30 -59 -69.5 -108t-89.5 -85t-110 -56t-129 -20q-82 0 -138 24
t-91 68t-50.5 106.5t-15.5 139.5q0 66 8 138t16 136q9 64 15 117.5t9 93t4.5 62.5t1.5 26q0 29 -15 53t-61 39l4 37q97 26 161 40t91 14q23 0 33 -10t10 -38q0 -17 -3.5 -47t-9.5 -70.5l-13.5 -89t-14.5 -102.5l-11 -80l-8 -53t-10.5 -75t-9 -89t-3.5 -94q0 -51 6 -99
t21 -84.5t41 -58.5t65 -22q64 0 111.5 45t81.5 118t56 164t34.5 183t17 176t4.5 142q0 42 -2 77.5t-12 61.5t-29.5 42.5t-54.5 21.5zM948 847q138 9 197.5 61t59.5 152q0 48 -27.5 72.5t-75.5 24.5q-75 0 -112.5 -34t-37.5 -106q0 -54 -1 -93t-3 -77z" />
    <glyph glyph-name="uni1208" unicode="&#x1208;" horiz-adv-x="1049" 
d="M397 1246l179 35l40 -220q70 -47 113 -118.5t68.5 -156.5t38 -177t20.5 -180q7 -72 14.5 -137.5t21.5 -116.5t36.5 -83.5t60.5 -39.5l-2 -37q-9 -3 -37 -8l-60 -10.5t-61 -9t-41 -3.5q-24 0 -34 10t-16 26q-18 47 -29.5 98.5t-19 105.5t-12 109.5t-9.5 111.5
q-6 65 -15 129.5t-25 125.5t-41.5 117t-64.5 104q-80 -66 -133 -139t-84.5 -152t-44.5 -164t-13 -175q0 -31 2.5 -69.5t12.5 -74t29 -61.5t52 -32l2 -33q-9 -4 -34.5 -10.5t-56.5 -12.5t-62.5 -10t-52.5 -4q-19 0 -32.5 17t-23 44t-15 60t-8.5 64t-4 56.5t-1 38.5
q0 112 23.5 222.5t71 211.5t118.5 190t166 158z" />
    <glyph glyph-name="uni1209" unicode="&#x1209;" horiz-adv-x="1369" 
d="M397 1246l179 35l40 -220q43 -29 76 -67t57.5 -83.5t41.5 -97t28 -106.5l445 114q-2 -14 -3.5 -27.5t-1.5 -27.5q0 -27 5 -54.5t16 -52t28.5 -43.5t43.5 -29l2 -16q-62 -44 -126 -44q-32 0 -61.5 11.5t-52.5 34t-39 56.5t-21 79l-225 -56q10 -57 16 -113t11 -110
q7 -72 14.5 -137.5t21.5 -116.5t36.5 -83.5t60.5 -39.5l-2 -37q-9 -3 -37 -8l-60 -10.5t-60.5 -9t-39.5 -3.5q-26 0 -36 10t-16 26q-18 47 -29.5 98.5t-19 105.5t-12 109.5t-9.5 111.5q-6 65 -15 129.5t-25 125.5t-41.5 117t-64.5 104q-80 -66 -133 -139t-84.5 -152
t-44.5 -164t-13 -175q0 -31 2.5 -69.5t12.5 -74t29 -61.5t52 -32l2 -33q-9 -4 -34 -10.5t-55.5 -12.5t-61 -10t-51.5 -4q-20 0 -34.5 17t-24 44t-15.5 60t-9 64t-4 56.5t-1 38.5q0 112 23.5 222.5t71 211.5t118.5 190t166 158z" />
    <glyph glyph-name="uni120A" unicode="&#x120a;" horiz-adv-x="1470" 
d="M397 1246l179 35l40 -220q70 -47 113 -118.5t68.5 -156.5t38 -177t20.5 -180q8 -91 18 -167.5t33 -130.5q9 -20 18 -32.5t20 -19.5t25 -9t32 -2q29 0 66.5 1.5t88.5 5.5q14 58 68.5 92t154.5 39l3 -23q-14 -22 -22 -50.5t-8 -57.5q0 -42 17 -78t55 -55l-2 -22
q-20 -5 -42 -7.5t-44 -2.5q-30 0 -59 5.5t-53 18.5t-41 33t-23 49q-132 -16 -229 -23.5t-139 -8.5h-5q-24 0 -34 10t-16 26q-18 47 -29.5 98.5t-19 105.5t-12 109.5t-9.5 111.5q-6 65 -15 129.5t-25 125.5t-41.5 117t-64.5 104q-80 -66 -133 -139t-84.5 -152t-44.5 -164
t-13 -175q0 -31 2.5 -69.5t12.5 -74t29 -61.5t52 -32l2 -33q-9 -4 -34.5 -10.5t-56.5 -12.5t-62.5 -10t-52.5 -4q-19 0 -32.5 17t-23 44t-15 60t-8.5 64t-4 56.5t-1 38.5q0 112 23.5 222.5t71 211.5t118.5 190t166 158z" />
    <glyph glyph-name="uni120B" unicode="&#x120b;" horiz-adv-x="1010" 
d="M358 1246l179 35l40 -220q70 -47 113 -118.5t68.5 -156.5t38 -177t20.5 -180q7 -72 14.5 -137.5t21.5 -116.5t36.5 -83.5t60.5 -39.5l-2 -37q-9 -3 -37 -8l-60 -10.5t-61 -9t-41 -3.5q-24 0 -34 10t-16 26q-18 47 -29.5 98.5t-19 105.5t-12 109.5t-9.5 111.5
q-6 65 -15 129.5t-25 125.5t-41.5 117t-64.5 104q-53 -38 -96.5 -89t-74.5 -107t-48 -113t-17 -106q0 -62 15.5 -89t51.5 -33l2 -33q-9 -4 -30 -9.5t-46.5 -10.5t-52 -8.5t-47.5 -3.5q-34 0 -54.5 40.5t-20.5 109.5q0 58 17.5 130t56.5 148.5t102 153.5t154 145z" />
    <glyph glyph-name="uni120C" unicode="&#x120c;" horiz-adv-x="1368" 
d="M1023 12q-22 -5 -55 -10t-67 -9t-64.5 -6.5t-48.5 -2.5q-24 0 -34 10t-16 26q-17 47 -28.5 98.5t-19 105.5t-12.5 109.5l-10 111.5q-6 65 -15 129.5t-25 125.5t-41.5 117t-64.5 104q-80 -66 -133 -139t-84.5 -152t-44.5 -164t-13 -175q0 -31 2.5 -69.5t12.5 -74t29 -61.5
t52 -32l2 -33q-9 -4 -34.5 -10.5t-56.5 -12.5t-62.5 -10t-52.5 -4q-19 0 -32.5 17t-23 44t-15 60t-8.5 64t-4 56.5t-1 38.5q0 112 23.5 222.5t71 211.5t118.5 190t166 158l-37 200l179 35l40 -220q70 -47 113 -118.5t68.5 -156.5t38 -177t20.5 -180l4 -41.5l4 -40.5
q91 20 156 30.5t113 10.5q87 0 141 -45t54 -132q0 -54 -18.5 -92t-49 -63t-71.5 -36.5t-86 -11.5q-19 0 -35.5 1t-44.5 3zM870 295q9 -59 16.5 -103t22.5 -74t41 -45t73 -15q31 0 54 11t38 30t22 44t7 54q0 57 -30 90t-93 33q-26 0 -67.5 -7t-83.5 -18z" />
    <glyph glyph-name="uni120D" unicode="&#x120d;" horiz-adv-x="1246" 
d="M439 1246l179 35l40 -220q88 -48 147.5 -119t99.5 -154.5t65.5 -174t45.5 -177.5q16 -71 32.5 -135.5t37.5 -115.5t50 -86t70 -47l-2 -37q-9 -3 -37 -8l-60 -10.5t-61 -9t-41 -3.5q-24 0 -38 10.5t-22 25.5q-27 52 -45.5 106t-33 109t-25.5 109.5t-23 107.5
q-14 63 -32 125.5t-47 122t-71 115.5t-104 106q-85 -60 -145 -125.5t-98 -136t-57.5 -146t-23.5 -155.5q72 15 123 22.5t93 7.5q87 0 141 -45t54 -132q0 -54 -18.5 -92t-49 -63t-71.5 -36.5t-86 -11.5q-19 0 -34 1l-43 3q-21 -5 -49 -10t-58 -9t-58 -6.5t-48 -2.5t-34 17
t-24 44t-16 60t-9.5 64t-4.5 56.5t-1 38.5q0 112 27 222.5t81 212t134.5 190t186.5 157.5zM349 320q-20 0 -49.5 -4.5t-61.5 -11.5q0 -38 2 -81.5t12.5 -80t33.5 -60.5t65 -24q31 0 54 11t38 30t22 44t7 54q0 57 -30 90t-93 33z" />
    <glyph glyph-name="uni120E" unicode="&#x120e;" horiz-adv-x="1533" 
d="M397 1246l179 35l40 -220q66 -45 109 -109.5t68 -143.5l165.5 41t100.5 27t59.5 19l43.5 17q42 15 87 29t93 14q37 0 69 -14.5t56 -40t37.5 -61t13.5 -78.5q0 -32 -8.5 -64.5t-24.5 -61t-40 -48.5t-54 -26q-19 -4 -47.5 -9t-48.5 -10q-42 -11 -77 -23t-69 -12
q-41 0 -69.5 19t-46.5 48.5t-26 64.5t-8 68q0 24 2.5 48.5t8.5 47.5l-202 -51q20 -78 30 -161.5t18 -161.5q7 -72 14.5 -137.5t21.5 -116.5t36.5 -83.5t60.5 -39.5l-2 -37q-9 -3 -37 -8l-60 -10.5t-61 -9t-41 -3.5q-24 0 -34 10t-16 26q-18 47 -29.5 98.5t-19 105.5
t-12 109.5t-9.5 111.5q-6 65 -15 129.5t-25 125.5t-41.5 117t-64.5 104q-80 -66 -133 -139t-84.5 -152t-44.5 -164t-13 -175q0 -31 2.5 -69.5t12.5 -74t29 -61.5t52 -32l2 -33q-9 -4 -34.5 -10.5t-56.5 -12.5t-62.5 -10t-52.5 -4q-19 0 -32.5 17t-23 44t-15 60t-8.5 64
t-4 56.5t-1 38.5q0 112 23.5 222.5t71 211.5t118.5 190t166 158zM1264 875q-31 0 -54 -9.5t-38.5 -25.5t-23 -37t-7.5 -43q0 -26 7.5 -55t22.5 -54t36.5 -41t50.5 -16q28 0 48.5 11.5t34 30.5t20.5 43t7 50q0 27 -7 53t-20 46.5t-32.5 33.5t-44.5 13z" />
    <glyph glyph-name="uni120F" unicode="&#x120f;" horiz-adv-x="1301" 
d="M650 132q-26 91 -37 188t-18 206q-5 64 -11 129t-18 126.5t-32.5 118t-53.5 103.5q-51 -39 -93.5 -90t-73.5 -106.5t-48 -112t-17 -106.5q0 -62 15.5 -89t51.5 -33l2 -33q-9 -4 -30 -9.5t-46.5 -10.5t-52.5 -8.5t-48 -3.5q-34 0 -54.5 40.5t-20.5 109.5q0 58 17.5 130
t56.5 148.5t102 153t154 143.5l-37 200l177 35l37 -216q62 -51 100.5 -123.5t61 -156.5t33 -175.5t17.5 -180.5q4 -57 9 -112t12.5 -103t18.5 -86.5t27 -63.5l391 22q-5 -23 -8 -42.5t-3 -36.5q-2 -45 10 -90t38 -79l2 -16q-25 -8 -50 -11t-49 -2q-40 1 -74.5 14.5t-59 39.5
t-38 63.5t-11.5 87.5l-554 -31q-4 -118 -62.5 -176t-191.5 -58h-21.5t-21.5 1l-1 18q30 31 46 72t17 84q1 20 -2.5 40t-9.5 40l-1 23z" />
    <glyph glyph-name="uni1210" unicode="&#x1210;" horiz-adv-x="1449" 
d="M653 1202q25 6 52 11t51.5 9t44.5 6t32 2q38 0 50.5 -20t12.5 -49q0 -18 -3 -39l-32 -207.5t-31 -219.5l151.5 27.5t120.5 12.5q43 0 76 -10.5t56.5 -36t37.5 -68.5t19 -108l23 -330q3 -40 8.5 -66t14.5 -41t21.5 -21.5t30.5 -7.5v-37q-19 -5 -41.5 -9.5t-44.5 -8
t-42 -5.5t-33 -2q-25 0 -41.5 9t-27 30t-16.5 56.5t-10 88.5l-19 270q-4 54 -14 92.5t-30.5 63t-53.5 36t-83 11.5q-46 0 -112 -9l-32.5 -249.5t-28.5 -234.5q-1 -8 -1.5 -16t-0.5 -16q0 -27 10.5 -47t43.5 -20v-37q-25 -6 -51 -11t-50 -9t-43.5 -6t-30.5 -2q-37 0 -54.5 18
t-17.5 60q0 7 0.5 14.5t1.5 15.5q14 127 31.5 257.5l36.5 271.5q-81 2 -142.5 -19.5t-107 -58.5t-76.5 -85.5t-50 -99.5t-27 -100.5t-8 -89.5q0 -20 1.5 -41t8 -39t19 -29.5t34.5 -11.5l1 -37q-66 -15 -107 -21.5t-68 -6.5t-43.5 16.5t-25 41t-11.5 52t-3 49.5
q0 53 12 114.5t40.5 122t75 117t114.5 99t160 67t212 22.5l28 196l28 187q3 15 3 32q0 25 -10.5 45t-39.5 22v37z" />
    <glyph glyph-name="uni1211" unicode="&#x1211;" horiz-adv-x="1784" 
d="M653 1202q25 6 52 11t51.5 9t44.5 6t32 2q38 0 50.5 -20t12.5 -49q0 -18 -3 -39l-32 -207.5t-31 -219.5l151.5 27t120.5 12q43 0 76 -10t56.5 -35.5t37.5 -68.5t19 -108l3 -52l379 80q-1 -5 -1.5 -10t-0.5 -10v-20q0 -60 21 -112.5t66 -84.5l1 -15q-53 -36 -110 -36
q-32 0 -62 11.5t-54.5 34.5t-41.5 57.5t-23 79.5l-170 -34l16 -219q3 -40 8.5 -66t14.5 -41t21.5 -21.5t30.5 -7.5v-37q-19 -5 -41.5 -9.5t-44.5 -8t-42 -5.5t-33 -2q-25 0 -41.5 9t-27 30t-16.5 56.5t-10 88.5l-19 270q-4 54 -14 92.5t-30.5 63t-53.5 36t-83 11.5
q-46 0 -112 -9l-32.5 -249.5t-28.5 -234.5q-1 -8 -1.5 -16t-0.5 -16q0 -27 10.5 -47t43.5 -20v-37q-25 -6 -51 -11t-50 -9t-43.5 -6t-30.5 -2q-37 0 -54.5 18t-17.5 60q0 7 0.5 14.5t1.5 15.5q14 127 31.5 257.5l36.5 271.5q-81 2 -142.5 -19.5t-107 -58.5t-76.5 -85.5
t-50 -99.5t-27 -100.5t-8 -89.5q0 -20 1.5 -41t8 -39t19 -29.5t34.5 -11.5l1 -37q-66 -15 -107 -21.5t-68 -6.5t-43.5 16.5t-25 41t-11.5 52t-3 49.5q0 53 12 114.5t40.5 122t75 117t114.5 99t160 67t212 22.5l28 196l28 187q3 15 3 32q0 25 -10.5 45t-39.5 22v37z" />
    <glyph glyph-name="uni1212" unicode="&#x1212;" horiz-adv-x="1851" 
d="M1228 -16q-50 0 -68 34.5t-24 111.5l-22 308q-4 54 -14 92.5t-30.5 63t-53.5 36t-83 11.5q-46 0 -112 -9l-32.5 -249.5t-28.5 -234.5q-1 -8 -1.5 -16t-0.5 -16q0 -27 10.5 -47t43.5 -20v-37q-25 -6 -51 -11t-50 -9t-43.5 -6t-30.5 -2q-37 0 -54.5 18t-17.5 60
q0 7 0.5 14.5t1.5 15.5q14 127 31.5 257.5l36.5 271.5q-81 2 -142.5 -19.5t-107 -58.5t-76.5 -85.5t-50 -99.5t-27 -100.5t-8 -89.5q0 -20 1.5 -41t8 -39t19 -29.5t34.5 -11.5l1 -37q-66 -15 -107 -21.5t-68 -6.5t-43.5 16.5t-25 41t-11.5 52t-3 49.5q0 53 12 114.5
t40.5 122t75 117t114.5 99t160 67t212 22.5l28 196l28 187q3 15 3 32q0 25 -10.5 45t-39.5 22v37q25 6 52 11t51.5 9t44.5 6t32 2q38 0 50.5 -20t12.5 -49q0 -18 -3 -39l-32 -207.5t-31 -219.5l151.5 27t120.5 12q43 0 76 -10t56.5 -35.5t37.5 -68.5t19 -108l23 -330
q1 -27 3.5 -47.5t10 -34.5t21.5 -21t38 -7q34 0 72.5 5t83.5 13q14 58 69 95.5t154 42.5l3 -23q-14 -22 -22 -51t-8 -61q0 -45 17 -83.5t55 -57.5l-2 -22q-35 -9 -77 -9q-31 0 -61.5 6t-56 19t-43.5 34.5t-24 51.5q-123 -26 -198 -37t-121 -11z" />
    <glyph glyph-name="uni1213" unicode="&#x1213;" horiz-adv-x="1401" 
d="M605 1202q25 6 52 11t51.5 9t44.5 6t32 2q38 0 50.5 -20t12.5 -49q0 -18 -3 -39l-32 -207.5t-31 -219.5l151.5 27.5t120.5 12.5q43 0 76 -10.5t56.5 -36t37.5 -68.5t19 -108l23 -330q3 -40 8.5 -66t14.5 -41t21.5 -21.5t30.5 -7.5v-37q-19 -5 -41.5 -9.5t-44.5 -8
t-42 -5.5t-33 -2q-25 0 -41.5 9t-27 30t-16.5 56.5t-10 88.5l-19 270q-4 54 -14 92.5t-30.5 63t-53.5 36t-83 11.5q-46 0 -112 -9l-15.5 -121.5t-13.5 -115.5q-1 -8 -1.5 -16t-0.5 -16q0 -27 10.5 -47t43.5 -20v-37q-25 -6 -51 -11t-50 -9t-43.5 -6t-30.5 -2q-37 0 -54.5 18
t-17.5 60q0 7 0.5 14.5t1.5 15.5l16.5 136.5t19.5 145.5q-111 0 -183 -29.5t-114.5 -72.5t-59 -91t-16.5 -85q0 -12 1.5 -25t8 -24t19 -18t34.5 -7l1 -37q-66 -15 -107 -21.5t-68 -6.5t-43.5 11.5t-25 28t-11.5 35.5t-3 34q0 36 11 77.5t37.5 82.5t69.5 79t107 66.5t151 46
t200 17.5l28 196.5l28 187.5q3 15 3 32q0 25 -10.5 45t-39.5 22v37z" />
    <glyph glyph-name="uni1214" unicode="&#x1214;" horiz-adv-x="1742" 
d="M653 1202q25 6 52 11t51.5 9t44.5 6t32 2q38 0 50.5 -20t12.5 -49q0 -18 -3 -39l-32 -207.5t-31 -219.5l151.5 27t120.5 12q43 0 76 -10t56.5 -35.5t37.5 -68.5t19 -108l11 -157q63 14 123 22t106 8q81 0 126 -44.5t45 -125.5q0 -100 -55.5 -153.5t-152.5 -53.5
q-17 0 -33 1t-42 3q-21 -5 -48.5 -10t-55 -9t-51 -6.5t-36.5 -2.5q-25 0 -41.5 9t-27 30t-16.5 56.5t-10 88.5l-19 270q-4 54 -14 92.5t-30.5 63t-53.5 36t-83 11.5q-46 0 -112 -9l-32.5 -249.5t-28.5 -234.5q-1 -8 -1.5 -16t-0.5 -16q0 -27 10.5 -47t43.5 -20v-37
q-25 -6 -51 -11t-50 -9t-43.5 -6t-30.5 -2q-37 0 -54.5 18t-17.5 60q0 7 0.5 14.5t1.5 15.5q14 127 31.5 257.5l36.5 271.5q-81 2 -142.5 -19.5t-107 -58.5t-76.5 -85.5t-50 -99.5t-27 -100.5t-8 -89.5q0 -20 1.5 -41t8 -39t19 -29.5t34.5 -11.5l1 -37q-66 -15 -107 -21.5
t-68 -6.5t-43.5 16.5t-25 41t-11.5 52t-3 49.5q0 53 12 114.5t40.5 122t75 117t114.5 99t160 67t212 22.5l28 196l28 187q3 15 3 32q0 25 -10.5 45t-39.5 22v37zM1310 233q3 -44 6 -76.5t13 -54.5t30 -33t56 -11q29 0 49 12.5t32 32.5t17.5 45t5.5 51q0 54 -22 86t-76 32
q-23 0 -53 -4t-63 -11z" />
    <glyph glyph-name="uni1215" unicode="&#x1215;" horiz-adv-x="1449" 
d="M363 1288q37 6 84 6q36 0 71 -5.5t62.5 -20.5t45 -40.5t17.5 -65.5q0 -18 -3.5 -33.5t-8.5 -28.5q25 5 54 10t55 9t47 6.5t31 2.5q38 0 50.5 -20t12.5 -49q0 -18 -3 -39l-14 -86t-11 -70.5l-10.5 -74t-12.5 -94.5l151.5 27t120.5 12q43 0 76 -10t56.5 -35.5t37.5 -68.5
t19 -108l23 -330q3 -40 8.5 -66t14.5 -41t21.5 -21.5t30.5 -7.5v-37q-19 -5 -41.5 -9.5t-44.5 -8t-42 -5.5t-33 -2q-25 0 -41.5 9t-27 30t-16.5 56.5t-10 88.5l-19 270q-4 54 -14 92.5t-30.5 63t-53.5 36t-83 11.5q-46 0 -112 -9l-32.5 -249.5t-28.5 -234.5q-1 -8 -1.5 -16
t-0.5 -16q0 -27 10.5 -47t43.5 -20v-37q-25 -6 -51 -11t-50 -9t-43.5 -6t-30.5 -2q-37 0 -54.5 18t-17.5 60q0 7 0.5 14.5t1.5 15.5q14 127 31.5 257.5l36.5 271.5q-81 2 -142.5 -19.5t-107 -58.5t-76.5 -85.5t-50 -99.5t-27 -100.5t-8 -89.5q0 -20 1.5 -41t8 -39t19 -29.5
t34.5 -11.5l1 -37q-66 -15 -107 -21.5t-68 -6.5t-43.5 16.5t-25 41t-11.5 52t-3 49.5q0 53 12 114.5t40.5 122t75 117t114.5 99t160 67t212 22.5l11.5 82.5t9 63l9 60.5t11.5 75q2 10 3 19.5t1 18.5q0 12 -3 22.5t-12.5 18.5t-27 12.5t-45.5 4.5q-20 -17 -46 -27t-55 -15
t-59.5 -6t-60.5 -1l-3 17q24 29 34.5 62t10.5 66t-13 63t-48 52z" />
    <glyph glyph-name="uni1216" unicode="&#x1216;" horiz-adv-x="1417" 
d="M653 1202q25 6 52 11t51.5 9t44.5 6t32 2q38 0 50.5 -20t12.5 -49q0 -18 -3 -39l-32 -207.5t-31 -219.5l151.5 27.5t120.5 12.5q43 0 76 -10.5t56.5 -36t37.5 -68.5t19 -108l6 -86q3 -40 8.5 -66t14.5 -41t21.5 -21.5t30.5 -7.5v-37q-19 -5 -41.5 -9.5t-44.5 -8t-42 -5.5
t-33 -2q-24 0 -41 9.5t-28.5 32t-17.5 60t-9 93.5q-4 59 -14 100.5t-31 67.5t-54 38t-84 12q-47 0 -111 -9l-17 -130l-15 -124q-1 -8 -1.5 -16t-0.5 -16q0 -27 10.5 -47t43.5 -20v-37q-25 -6 -51 -11t-50 -9t-43.5 -6t-30.5 -2q-37 0 -54.5 18t-17.5 60q0 7 0.5 14.5
t1.5 15.5q8 69 18 145l21 154q-81 2 -142.5 -19.5t-107 -58.5t-76.5 -85.5t-50 -99.5t-27 -100.5t-8 -89.5q0 -20 1.5 -41t8 -39t19 -29.5t34.5 -11.5l1 -37q-66 -15 -107 -21.5t-68 -6.5t-43.5 16.5t-25 41t-11.5 52t-3 49.5q0 53 12 114.5t40.5 122t75 117t114.5 99
t160 67t212 22.5l28 196l28 187q3 15 3 32q0 25 -10.5 45t-39.5 22v37z" />
    <glyph glyph-name="uni1217" unicode="&#x1217;" horiz-adv-x="1775" 
d="M605 1349q25 6 52 11t51.5 9t44.5 6t32 2q38 0 50.5 -20t12.5 -49q0 -18 -3 -39l-32 -207.5t-31 -219.5l151.5 27t120.5 12q42 0 75.5 -10t57.5 -35.5t38.5 -68.5t19.5 -108l31 -472l440 30q-5 -23 -8 -42.5t-3 -36.5q-2 -45 10 -90t38 -79l2 -16q-25 -8 -50 -11t-49 -2
q-41 1 -76 14.5t-60 38.5t-39 62t-13 85l-567 -38q3 -120 -63.5 -177.5t-184.5 -57.5q-11 0 -22 0.5t-23 1.5l-1 18q30 31 46 72t17 84q1 20 -2.5 40t-9.5 40l-1 23l440 29l-27 410q-4 54 -14.5 92.5t-31.5 63t-54.5 36t-83.5 11.5q-47 0 -113 -9l-15.5 -121.5t-13.5 -115.5
q-1 -8 -1.5 -16t-0.5 -16q0 -27 10.5 -47t43.5 -20v-37q-25 -6 -51 -11t-50 -9t-43.5 -6t-30.5 -2q-37 0 -54.5 18t-17.5 60q0 7 0.5 14.5t1.5 15.5l16.5 136.5t19.5 145.5q-111 0 -183 -29.5t-114.5 -72.5t-59 -91t-16.5 -85q0 -12 1.5 -25t8 -24t19 -18t34.5 -7l1 -37
q-66 -15 -107 -21.5t-68 -6.5t-43.5 11.5t-25 28t-11.5 35.5t-3 34q0 36 11 77.5t37.5 82.5t69.5 79t107 66.5t151 46t200 17.5l28 196.5l28 187.5q3 15 3 32q0 25 -10.5 45t-39.5 22v37z" />
    <glyph glyph-name="uni1218" unicode="&#x1218;" horiz-adv-x="1663" 
d="M1247 1114l-5 -31q17 7 42 16t51 16.5t49.5 12.5t37.5 5q57 0 97 -23.5t65.5 -61t37 -85t11.5 -95.5q0 -80 -21 -148.5t-63 -119t-105.5 -79.5t-148.5 -29h-19h-8t-9 1q-145 -40 -197 -40q-48 0 -69.5 18.5t-21.5 63.5q0 9 0.5 17t2.5 19l20 127l21.5 132.5l19.5 120
t14 90.5q-45 -3 -84.5 -8.5t-81.5 -13.5l-42.5 -118l-50.5 -136.5l-52.5 -141l-48.5 -131.5q-15 -41 -30 -67.5t-31.5 -41.5t-35 -21t-39.5 -6q-26 0 -50.5 1t-50.5 1q-20 0 -41 -1.5t-49 -7.5q-31 -7 -56 -16l-45.5 -16.5t-38 -12.5t-33.5 -5q-40 0 -67 22t-43.5 54.5
t-24 70t-7.5 69.5q0 69 18 133t49.5 120.5t73.5 102.5t90 79q75 51 172.5 76t224.5 32q63 3 125 12l129.5 18.5t143.5 18.5t169 12zM681 994q-84 0 -148.5 -21.5t-112.5 -58t-81 -83.5t-53 -97t-29 -100.5t-9 -92.5q0 -57 28 -94.5t82 -37.5q46 0 84.5 23.5t58.5 77.5
l93.5 249zM1233 1031l-28 -170t-27 -176l-5.5 -40.5t-2.5 -34.5q0 -30 16 -47t63 -17q55 0 92 30t59 75t31 98.5t9 100.5q0 39 -7.5 73t-25.5 59.5t-47 40t-72 14.5q-25 0 -55 -6z" />
    <glyph glyph-name="uni1219" unicode="&#x1219;" horiz-adv-x="2112" 
d="M1247 1114l-5 -31q17 7 42 16t51 16.5t49.5 12.5t37.5 5q57 0 97 -23.5t65.5 -61t37 -85t11.5 -95.5q0 -5 -0.5 -10.5t-0.5 -10.5l185 6q10 29 30 49.5t46.5 33t57 18.5t60.5 6q32 0 62 -6l1 -18q-22 -17 -34 -49t-12 -67t13.5 -65t45.5 -43l-1 -18q-56 -17 -98 -17
q-60 0 -107.5 28.5t-67.5 92.5l-186 -7q-9 -65 -34 -120t-66.5 -95t-99.5 -62t-132 -22h-19h-8t-9 1q-145 -40 -197 -40q-48 0 -69.5 18.5t-21.5 63.5q0 9 0.5 17t2.5 19l20 127l21.5 132.5l19.5 120t14 90.5q-45 -3 -84.5 -8.5t-81.5 -13.5l-42.5 -118l-50.5 -136.5
l-52.5 -141l-48.5 -131.5q-15 -41 -30 -67.5t-31.5 -41.5t-35 -21t-39.5 -6q-26 0 -50.5 1t-50.5 1q-20 0 -41 -1.5t-49 -7.5q-31 -7 -56 -16l-45.5 -16.5t-38 -12.5t-33.5 -5q-40 0 -67 22t-43.5 54.5t-24 70t-7.5 69.5q0 69 18 133t49.5 120.5t73.5 102.5t90 79
q75 51 172.5 76t224.5 32q63 3 125 12l129.5 18.5t143.5 18.5t169 12zM681 994q-84 0 -148.5 -21.5t-112.5 -58t-81 -83.5t-53 -97t-29 -100.5t-9 -92.5q0 -57 28 -94.5t82 -37.5q46 0 84.5 23.5t58.5 77.5l93.5 249zM1233 1031l-28 -170t-27 -176l-5.5 -40.5t-2.5 -34.5
q0 -30 16 -47t63 -17q55 0 92 30t59 75t31 98.5t9 100.5q0 39 -7.5 73t-25.5 59.5t-47 40t-72 14.5q-25 0 -55 -6z" />
    <glyph glyph-name="uni121A" unicode="&#x121a;" horiz-adv-x="1873" 
d="M955 1167q-32 -1 -55 -2.5l-45 -3t-46.5 -4.5l-57.5 -7l-13 -94l-14 -101l-14.5 -101l-14.5 -94q-6 -47 -20 -75.5t-32.5 -43.5t-39.5 -20t-42 -5q-25 0 -50.5 1t-51.5 1q-19 0 -37 -1.5t-45 -6.5q-30 -6 -55.5 -17t-47.5 -22t-40 -19t-34 -8q-38 0 -64 19t-42 47.5
t-22.5 61t-6.5 60.5q0 126 42.5 214t113.5 144t165 83t196 31q63 3 113 6.5t93 7l82 6.5l81 6.5t89.5 6t107.5 4.5l5 -5l-5 -27q15 7 41.5 16t56 16.5t58 12.5t48.5 5q92 0 147.5 -49t55.5 -147q0 -20 -3 -42t-8 -47l-24.5 -106l-37 -156l-43 -179l-41.5 -174.5l-33 -142
t-18 -82.5q-4 -11 -4 -32q0 -18 8.5 -30t32.5 -12q11 0 32 1t45.5 3l50.5 4t47 4q14 58 68.5 92t154.5 39l3 -23q-14 -22 -22 -50.5t-8 -58.5q0 -45 17.5 -84t55.5 -58l-2 -22q-20 -5 -42 -7.5t-44 -2.5q-30 0 -59.5 6.5t-54 20t-42.5 35.5t-26 54q-121 -18 -202.5 -26
t-126.5 -8q-48 0 -67 22.5t-19 54.5q0 23 4 34q4 20 13.5 63l23 101l29.5 127l32.5 141l33 142.5l30.5 131.5l-75 -16t-76.5 -14.5t-70.5 -10.5t-57 -4q-52 0 -82.5 28t-30.5 88q0 10 1 21t3 23l7 53.5l8.5 64.5l9 69.5t9.5 68.5zM566 1142q-94 0 -154.5 -38.5t-95 -95.5
t-47 -122.5t-9.5 -119.5q6 -96 109 -96q22 0 45 5t42.5 18t34 35t20.5 57q4 23 7 45t7 44l14 86q7 43 13.5 87zM1345 958q6 27 9.5 50t3.5 43q0 70 -35 97t-101 27q-17 0 -42.5 -3.5t-40.5 -7.5l-13.5 -105.5t-10.5 -88.5q-2 -14 -3 -26t-1 -23q0 -43 21 -66t79 -23
q23 0 47 3.5t62 11.5l14 63t11 48z" />
    <glyph glyph-name="uni121B" unicode="&#x121b;" horiz-adv-x="1602" 
d="M1308 125q-2 -7 -3 -14t-1 -13q0 -26 16 -41.5t54 -20.5l-2 -39q-51 -7 -100 -12.5t-78 -5.5q-48 0 -66.5 23t-18.5 55q0 7 1.5 15.5l3.5 19.5q5 22 16 65l26 99.5l33 123.5l37 137l38 141l19 69.5l18 66.5q-35 -8 -73.5 -15.5t-75 -13.5t-68.5 -10t-54 -4
q-52 0 -82.5 28t-30.5 88q0 10 1 21t3 23l7 53.5l8.5 64.5l9 69.5t9.5 68.5q-32 -1 -55 -2.5l-45 -3t-46.5 -4.5l-57.5 -7l-13 -94l-14 -101l-14.5 -101l-14.5 -94q-6 -47 -20 -75.5t-32.5 -43.5t-39.5 -20t-42 -5q-25 0 -50.5 1t-51.5 1q-19 0 -37 -1.5t-45 -6.5
q-30 -6 -55.5 -17t-47.5 -22t-40 -19t-34 -8q-38 0 -64 19t-42 47.5t-22.5 61t-6.5 60.5q0 126 42.5 214t113.5 144t165 83t196 31q63 3 113 6.5t93 7l82 6.5l81 6.5t89.5 6t107.5 4.5l5 -5l-5 -27q15 7 41.5 16t56 16.5t58 12.5t48.5 5q51 0 88.5 -15.5t62 -42.5t37 -64
t12.5 -80q0 -22 -3.5 -44.5t-9.5 -45.5l-19.5 -74l-29 -106l-35 -126.5l-37.5 -135.5l-37 -133l-33 -119l-25.5 -93t-14.5 -55zM566 1142q-94 0 -154.5 -38.5t-95 -95.5t-47 -122.5t-9.5 -119.5q6 -96 109 -96q22 0 45 5t42.5 18t34 35t20.5 57q4 23 7 45t7 44l14 86
q7 43 13.5 87zM1211 832q21 0 45.5 4l58.5 10l15 55.5l13 49.5q14 58 14 93q0 57 -30.5 94t-104.5 37q-17 0 -42.5 -3.5t-40.5 -7.5l-13.5 -105.5t-10.5 -88.5q-2 -14 -3 -26t-1 -23q0 -43 21 -66t79 -23z" />
    <glyph glyph-name="uni121C" unicode="&#x121c;" horiz-adv-x="1792" 
d="M1153 1236l-5 -27q15 7 41.5 16t56 16.5t58 12.5t48.5 5q52 0 89.5 -16.5t62.5 -44.5t37 -65t12 -77q0 -36 -14 -89l-19 -63l-27 -88l-32.5 -106l-35.5 -117l-36 -119l-17.5 -57.5l-16.5 -55.5l128.5 23.5t105.5 9.5q72 0 115 -38.5t43 -107.5q0 -62 -21.5 -108.5
t-58 -78t-85.5 -47.5t-104 -16q-16 0 -35.5 2t-42.5 6q-25 -5 -58 -10t-66 -8.5t-62 -6t-47 -2.5q-45 0 -62.5 22.5t-17.5 54.5q0 20 6 41l19.5 69.5l28.5 99l35.5 120.5l39.5 134l40.5 138.5l39.5 134.5q-35 -8 -72.5 -15.5t-73.5 -13.5t-67 -9.5t-53 -3.5q-52 0 -82.5 28
t-30.5 88q0 10 1 21t3 23l7 53.5l8.5 64.5l9 69.5t9.5 68.5q-32 -1 -55 -2.5l-45 -3t-46.5 -4.5l-57.5 -7l-13 -94l-14 -101l-14.5 -101l-14.5 -94q-6 -47 -20 -75.5t-32.5 -43.5t-39.5 -20t-42 -5q-25 0 -50.5 1t-51.5 1q-19 0 -37 -1.5t-45 -6.5q-30 -6 -55.5 -17
t-47.5 -22t-40 -19t-34 -8q-38 0 -64 19t-42 47.5t-22.5 61t-6.5 60.5q0 126 42.5 214t113.5 144t165 83t196 31q63 3 113 6.5t93 7l82 6.5l81 6.5t89.5 6t107.5 4.5zM566 1142q-94 0 -154.5 -38.5t-95 -95.5t-47 -122.5t-9.5 -119.5q6 -96 109 -96q22 0 45 5t42.5 18t34 35
t20.5 57q4 23 7 45t7 44l14 86q7 43 13.5 87zM1343 951q14 53 14 92q0 27 -7 51t-22.5 42t-41.5 28.5t-64 10.5q-17 0 -42.5 -3.5t-40.5 -7.5l-13.5 -105.5t-10.5 -88.5q-2 -14 -3 -26t-1 -23q0 -43 21 -66t79 -23q20 0 44.5 3.5t56.5 9.5zM1319 242q-8 -27 -14.5 -55
t-6.5 -52q0 -42 26.5 -61t68.5 -19q78 0 125.5 48t47.5 132q0 45 -25.5 66t-70.5 21q-26 0 -57.5 -4.5t-74.5 -11.5z" />
    <glyph glyph-name="uni121D" unicode="&#x121d;" horiz-adv-x="1542" 
d="M1094 1211q15 7 37.5 15t48 15.5t51 12.5t45.5 5q64 0 110.5 -28.5t76.5 -74.5t44.5 -103t14.5 -115q0 -64 -16 -118t-48.5 -93.5t-82 -61.5t-116.5 -22q-23 0 -47 3q-48 -14 -96 -30.5t-96 -16.5q-55 0 -77.5 34t-23.5 94q-1 58 -1.5 122t-1.5 124.5t-1.5 112.5t-1.5 87
q-46 -1 -89.5 -3.5t-98.5 -9.5l-10 -232.5t-10 -257.5q-1 -17 -4.5 -27.5t-12.5 -24.5l-99 -141.5l-96 -137l-79.5 -115.5t-50.5 -78q-14 -26 -14 -46q0 -21 14.5 -36t47.5 -16l-2 -39l-56.5 -6.5t-60 -6l-55 -4.5t-41.5 -2q-42 0 -60 18.5t-18 44.5q0 14 5 29t13 29
q22 37 61 94l87 126l101.5 146l104.5 155q-60 -21 -114 -34.5t-109 -13.5q-54 0 -91.5 18t-61 49.5t-34 74t-10.5 90.5q0 100 39.5 173.5t105.5 122t152.5 73.5t180.5 29q78 3 144 8l129 10t128 9t140 5l5 -6v-29zM539 1145q-68 -3 -120 -29t-87 -68.5t-53 -98t-18 -116.5
q0 -34 6 -64t21.5 -52.5t41.5 -35.5t66 -13q29 0 61.5 5t63.5 17l4.5 104.5t4.5 120t4.5 121zM1094 1150q1 -41 1.5 -78l1 -74.5l1 -76.5t1.5 -82q1 -29 4 -56t12 -48t27 -34t50 -13q44 0 72.5 17.5t44.5 46.5t22 66t6 76q0 52 -9 100t-31 84.5t-59 58t-93 21.5
q-17 0 -51 -8z" />
    <glyph glyph-name="uni121E" unicode="&#x121e;" horiz-adv-x="1561" 
d="M1113 1201q15 7 37.5 15t48 15.5t51 12.5t45.5 5q64 0 110.5 -28.5t76.5 -74.5t44.5 -103t14.5 -115q0 -64 -16 -118t-48.5 -93.5t-82 -61.5t-116.5 -22q-23 0 -47 3q-48 -14 -96 -30.5t-96 -16.5q-55 0 -77.5 34t-23.5 94q-1 58 -1.5 122t-1.5 124.5t-1.5 112.5t-1.5 87
q-23 0 -42.5 -1t-39 -2.5t-41.5 -4l-50 -5.5l-38.5 -244l-41.5 -264.5l-40.5 -263l-35.5 -239.5q-1 -5 -1.5 -9t-0.5 -8v-14q0 -35 12 -50.5t42 -17.5v-37q-25 -6 -51 -11t-50 -9t-43.5 -6t-30.5 -2q-36 0 -54.5 17.5t-18.5 57.5q0 15 3 33q19 136 40.5 270.5l42.5 273.5
q-66 -23 -133.5 -41t-125.5 -18q-44 0 -75 15t-51 41t-29 61.5t-9 76.5q0 112 41.5 194t112 135.5t164.5 81t200 31.5q78 3 140.5 8l122 10t121 9t136.5 5l5 -6v-29zM572 1142q-77 -3 -134.5 -31t-96 -74.5t-58 -108t-19.5 -131.5q0 -60 25.5 -94.5t85.5 -34.5q29 0 62.5 8
t65.5 20l16 103l18.5 116.5l18.5 118t16 108.5zM1113 1150q1 -41 1.5 -78l1 -74.5l1 -76.5t1.5 -82q1 -29 4 -56t12 -48t27 -34t50 -13q44 0 72.5 17.5t44.5 46.5t22 66t6 76q0 52 -9 100t-31 84.5t-59 58t-93 21.5q-17 0 -51 -8z" />
    <glyph glyph-name="uni121F" unicode="&#x121f;" horiz-adv-x="1823" 
d="M1314 178q-4 -17 -6.5 -31t-2.5 -28q0 -9 1.5 -19t3.5 -21l445 42q-11 -55 -11 -84q0 -45 13.5 -88t43.5 -75l2 -16q-23 -8 -47.5 -12t-47.5 -4q-39 0 -75 12t-63.5 36t-43.5 61t-16 87l-572 -53q0 -60 -14 -105.5t-45 -76t-80 -46t-119 -15.5h-14t-15 1l-2 18
q29 32 44 73t15 84q0 33 -14 80l-2 23l434 41q-2 12 -3.5 24t-1.5 26q0 20 3 43.5t11 50.5q8 33 25 97.5l40 148l49 179.5l52 193q-35 -8 -73.5 -15.5t-75 -13.5t-68.5 -10t-54 -4q-52 0 -82.5 28t-30.5 88q0 10 1 21t3 23l7 53.5l8.5 64.5l9 69.5t9.5 68.5q-32 -1 -55 -2.5
l-45 -3t-46.5 -4.5l-57.5 -7l-13 -94l-14 -101l-14.5 -101l-14.5 -94q-6 -47 -20 -75.5t-32.5 -43.5t-39.5 -20t-42 -5q-25 0 -50.5 1t-51.5 1q-19 0 -37 -1.5t-45 -6.5q-30 -6 -55.5 -17t-47.5 -22t-40 -19t-34 -8q-38 0 -64 19t-42 47.5t-22.5 61t-6.5 60.5
q0 126 42.5 214t113.5 144t165 83t196 31q63 2 113 5t93 6.5t82 7l81 7t89.5 6.5t107.5 5l5 -5l-5 -27q15 7 41.5 16t56 16.5t58 12.5t48.5 5q51 0 88.5 -15.5t62 -42.5t37 -64t12.5 -80q0 -22 -3.5 -44.5t-9.5 -45.5q-9 -36 -28 -104.5l-42 -152.5l-48.5 -174l-47.5 -169
l-38 -138t-21 -81zM566 1172q-94 0 -154.5 -38.5t-95 -95.5t-47 -122.5t-9.5 -119.5q6 -96 109 -96q22 0 45 5t42.5 18t34 35t20.5 57q4 23 7 45t7 44l14 86q7 43 13.5 87zM1211 862q21 0 45.5 4l58.5 10l15 55.5l13 49.5q14 61 14 93q0 57 -30.5 94t-104.5 37
q-17 0 -42.5 -3.5t-40.5 -7.5l-13.5 -105.5t-10.5 -88.5q-2 -14 -3 -26t-1 -23q0 -43 21 -66t79 -23z" />
    <glyph glyph-name="uni1220" unicode="&#x1220;" horiz-adv-x="1381" 
d="M95 962l60 15.5l62 16t55.5 12.5t41.5 5q26 0 42 -17.5t16 -50.5q0 -15 -3 -31q-5 -25 -15 -66l-22 -89l-25 -99.5t-23.5 -98t-17 -84t-6.5 -57.5q0 -52 30 -74.5t72 -22.5q58 0 103 36.5t79 93t57.5 124.5t38 130t21 109.5t6.5 64.5q0 48 -14 70t-48 27l1 37
q81 25 131 35t61 10q7 0 17.5 -2t20 -9t16 -20.5t6.5 -36.5q0 -21 -3 -53.5t-8.5 -73.5t-14.5 -88t-21 -96q24 -49 69.5 -76t96.5 -27q54 0 89 31t55 77.5t28 99t8 96.5q0 25 -1.5 48t-9 41.5t-23 31t-43.5 17.5l1 37q67 21 110 31t63 10q29 0 46.5 -18t26.5 -45t11.5 -57
t2.5 -54q0 -64 -11 -126t-36.5 -113.5t-66 -88.5t-100.5 -51q-26 -6 -51.5 -11t-54.5 -15q-47 -17 -84.5 -33.5t-76.5 -16.5q-23 0 -51 12.5t-53 33.5q-21 -50 -46.5 -93.5t-56 -76t-67 -51.5t-78.5 -19q-29 0 -53.5 -1.5t-46.5 -6.5q-29 -6 -53 -14.5l-45 -16t-40 -13
t-37 -5.5q-35 0 -65 9t-52 27.5t-34 46t-12 64.5q0 45 18.5 140t58.5 251q7 26 12 51t5 46q0 29 -14 49t-56 25z" />
    <glyph glyph-name="uni1221" unicode="&#x1221;" horiz-adv-x="1797" 
d="M95 962l60 15.5l62 16t55.5 12.5t41.5 5q26 0 42 -17.5t16 -50.5q0 -15 -3 -31q-5 -25 -15 -66l-22 -89l-25 -99.5t-23.5 -98t-17 -84t-6.5 -57.5q0 -52 30 -74.5t72 -22.5q58 0 103 36.5t79 93t57.5 124.5t38 130t21 109.5t6.5 64.5q0 48 -14 70t-48 27l1 37
q81 25 131 35t61 10q7 0 17.5 -2t20 -9t16 -20.5t6.5 -36.5q0 -21 -3 -53.5t-8.5 -73.5t-14.5 -88t-21 -96q24 -49 69.5 -76t96.5 -27q54 0 89 31t55 77.5t28 99t8 96.5q0 25 -1.5 48t-9 41.5t-23 31t-43.5 17.5l1 37q67 21 110 31t63 10q29 0 46.5 -18t26.5 -45t11.5 -57
t2.5 -54q0 -91 -19 -161l186 7q10 31 30 53t46 35.5t56.5 20t61.5 6.5q15 0 29.5 -1.5t28.5 -3.5l1 -18q-21 -17 -33 -50t-12 -69q0 -37 14.5 -69.5t46.5 -45.5v-18q-57 -18 -104 -18q-66 0 -109 33t-58 90l-203 -9q-24 -60 -67 -102.5t-109 -58.5q-26 -6 -51.5 -11
t-54.5 -15q-47 -17 -84.5 -33.5t-76.5 -16.5q-23 0 -51 12.5t-53 33.5q-21 -50 -46.5 -93.5t-56 -76t-67 -51.5t-78.5 -19q-29 0 -53.5 -1.5t-46.5 -6.5q-29 -6 -53 -14.5l-45 -16t-40 -13t-37 -5.5q-35 0 -65 9t-52 27.5t-34 46t-12 64.5q0 45 18.5 140t58.5 251
q7 26 12 51t5 46q0 29 -14 49t-56 25z" />
    <glyph glyph-name="uni1222" unicode="&#x1222;" horiz-adv-x="1602" 
d="M1043 1125q25 6 50.5 11t48.5 9t41.5 6t30.5 2q35 0 50.5 -18.5t15.5 -51.5q0 -34 -10 -64l-51.5 -208l-50.5 -215.5l-49 -216l-46 -208.5q-7 -24 -7 -52t15 -36.5t49 -8.5q13 0 33.5 0.5t44.5 1.5t49 3t47 5q14 57 68.5 90t154.5 38l3 -23q-14 -18 -22 -45.5t-8 -58.5
q0 -40 16.5 -77t55.5 -57l-2 -22q-20 -5 -42 -7.5t-44 -2.5q-30 0 -59 5.5t-53 18.5t-41 33t-23 49q-128 -23 -206.5 -32t-113.5 -9q-48 0 -75.5 19.5t-27.5 71.5q0 11 1 23t4 26q28 147 61.5 295l71.5 307q-29 -7 -55.5 -10.5t-51.5 -3.5q-52 0 -97.5 15.5t-77.5 50.5
q-18 -35 -42 -65t-54.5 -52.5t-67 -35.5t-79.5 -13q-29 0 -58.5 -2t-51.5 -7q-29 -6 -51 -11.5t-40 -11l-35 -10.5l-35 -10q-23 -6 -43 -6q-45 0 -77 28t-32 82q0 5 1.5 15l3.5 24q6 27 14.5 60.5l16.5 65.5t13.5 60t5.5 43q0 29 -14 49t-56 25l1 37l60 15.5l62 16
t55.5 12.5t41.5 5q26 0 42 -17.5t16 -50.5q0 -19 -8.5 -52t-20 -69.5l-22.5 -72t-16 -58.5q-4 -12 -4 -32q0 -21 8.5 -36t22.5 -24.5t31.5 -14t35.5 -4.5q62 0 109.5 30t79.5 74t48.5 94t16.5 90q0 42 -12 67t-50 30l1 37q36 12 68.5 20.5t58.5 14t43 8t22 2.5
q26 0 43.5 -19.5t17.5 -57.5q0 -24 -3.5 -52t-9.5 -58q0 -47 17 -77.5t44 -48.5t61 -25t68 -7q26 0 50 3l46 184q4 17 6 31t2 25q0 26 -11 42.5t-38 19.5v37z" />
    <glyph glyph-name="uni1223" unicode="&#x1223;" horiz-adv-x="1319" 
d="M1043 1125q25 6 50.5 11t48.5 9t41.5 6t30.5 2q35 0 50.5 -18.5t15.5 -51.5q0 -34 -10 -64l-52 -208l-50.5 -213.5l-47.5 -210l-43 -197.5q-5 -23 -8 -41.5t-3 -32.5q0 -28 12.5 -44.5t44.5 -18.5v-37q-24 -6 -51 -11t-52 -9t-45.5 -6t-31.5 -2q-36 0 -48.5 21t-12.5 50
q0 17 2.5 33.5t5.5 31.5q28 147 61.5 295l71.5 307q-29 -7 -55.5 -10.5t-51.5 -3.5q-52 0 -97.5 15.5t-77.5 50.5q-18 -35 -42 -65t-54.5 -52.5t-67 -35.5t-79.5 -13q-29 0 -58.5 -2t-51.5 -7q-29 -6 -51 -11.5t-40 -11l-35 -10.5l-35 -10q-23 -6 -43 -6q-45 0 -77 28
t-32 82q0 5 1.5 15l3.5 24q6 27 14.5 60.5l16.5 65.5t13.5 60t5.5 43q0 29 -14 49t-56 25l1 37l60 15.5l62 16t55.5 12.5t41.5 5q26 0 42 -17.5t16 -50.5q0 -19 -8.5 -52t-20 -69.5l-22.5 -72t-16 -58.5q-4 -12 -4 -32q0 -21 8.5 -36t22.5 -24.5t31.5 -14t35.5 -4.5
q62 0 109.5 30t79.5 74t48.5 94t16.5 90q0 42 -12 67t-50 30l1 37q36 12 68.5 20.5t58.5 14t43 8t22 2.5q26 0 43.5 -19.5t17.5 -57.5q0 -24 -3.5 -52t-9.5 -58q0 -47 17 -77.5t44 -48.5t61 -25t68 -7q26 0 50 3l46 184q4 17 6 31t2 25q0 26 -11 42.5t-38 19.5v37z" />
    <glyph glyph-name="uni1224" unicode="&#x1224;" horiz-adv-x="1526" 
d="M890 124q28 147 61.5 295l71.5 307q-29 -7 -55.5 -10.5t-51.5 -3.5q-52 0 -97.5 15.5t-77.5 50.5q-18 -35 -42 -65t-54.5 -52.5t-67 -35.5t-79.5 -13q-29 0 -58.5 -2t-51.5 -7q-29 -6 -51 -11.5t-40 -11l-35 -10.5l-35 -10q-23 -6 -43 -6q-45 0 -77 28t-32 82q0 5 1.5 15
l3.5 24q6 27 14.5 60.5l16.5 65.5t13.5 60t5.5 43q0 29 -14 49t-56 25l1 37l60 15.5l62 16t55.5 12.5t41.5 5q26 0 42 -17.5t16 -50.5q0 -19 -8.5 -52t-20 -69.5l-22.5 -72t-16 -58.5q-4 -12 -4 -32q0 -21 8.5 -36t22.5 -24.5t31.5 -14t35.5 -4.5q62 0 109.5 30t79.5 74
t48.5 94t16.5 90q0 42 -12 67t-50 30l1 37q36 12 68.5 20.5t58.5 14t43 8t22 2.5q26 0 43.5 -19.5t17.5 -57.5q0 -24 -3.5 -52t-9.5 -58q0 -47 17 -77.5t44 -48.5t61 -25t68 -7q26 0 50 3l46 184q4 17 6 31t2 25q0 26 -11 42.5t-38 19.5v37q25 6 50.5 11t48.5 9t41.5 6
t30.5 2q35 0 50.5 -18.5t15.5 -51.5q0 -34 -10 -64l-80 -326.5t-77 -334.5q45 8 101.5 19.5t113.5 11.5q32 0 61 -6t50.5 -20t34 -39t12.5 -62q0 -60 -22.5 -106.5t-61 -79t-88.5 -49t-104 -16.5q-17 0 -32 1.5t-31 3.5l-93.5 -17.5t-79.5 -8.5q-42 0 -66 17.5t-24 65.5
q0 22 6 51zM1102 306l-11 -47t-11 -50.5t-8.5 -46t-3.5 -33.5q0 -37 19 -52t57 -15q36 0 65 13.5t49.5 37.5t31 56t10.5 68q0 48 -27.5 65.5t-66.5 17.5q-26 0 -53 -4.5t-51 -9.5z" />
    <glyph glyph-name="uni1225" unicode="&#x1225;" horiz-adv-x="1766" 
d="M1741 1039q0 -105 -36 -181.5t-94 -126.5t-130 -74.5t-144 -24.5q-58 0 -111 17.5t-95 49.5q-35 -40 -79.5 -72t-94.5 -54t-103.5 -33.5t-106.5 -11.5q-121 0 -221 60l-138 -216l-124 -201q-17 -28 -27 -49.5t-10 -37.5q0 -39 66 -45v-37q-29 -6 -60.5 -11t-60.5 -9
t-53 -6t-37 -2q-38 0 -55 17.5t-17 45.5q0 23 10.5 50t27.5 54l108.5 178l118.5 188.5l124.5 192l126.5 189.5q14 20 21.5 36t7.5 30q0 20 -15 32t-42 16v37q29 6 59.5 11t58.5 9t51 6t37 2q40 0 57.5 -15.5t17.5 -40.5q0 -22 -12 -49t-30 -53l-61.5 -92l-60.5 -94
q12 -60 56.5 -89.5t105.5 -29.5q48 0 98 20t91 60t67 101t26 143q0 43 -13.5 73.5t-55.5 38.5v30q21 6 48 12.5t54.5 11.5t53 8.5t44.5 3.5q34 0 46 -27t12 -81q0 -45 -14 -97t-38 -103q29 -54 71 -73t88 -19q38 0 75 15t66 46.5t46.5 81t17.5 118.5q0 45 -14 75t-56 38v31
q21 6 46.5 12.5t52 11.5t51 8.5t42.5 3.5q35 0 47 -27t12 -82z" />
    <glyph glyph-name="uni1226" unicode="&#x1226;" horiz-adv-x="1342" 
d="M394 2q-29 -6 -60.5 -11t-60.5 -9t-53 -6t-37 -2q-38 0 -55 17.5t-17 45.5q0 23 10.5 50t27.5 54l141 228.5l153 237.5q-60 -10 -104.5 -23.5t-70.5 -20.5q-23 -6 -44 -6q-51 0 -84 31.5t-33 82.5q0 21 4 32q6 27 14.5 57.5l16 59t13 53t5.5 39.5q0 29 -14 49t-56 25
l1 37l60 15.5l62 16t55.5 12.5t41.5 5q26 0 42 -17.5t16 -50.5q0 -19 -9 -49t-20 -63l-22 -65t-15 -55q-3 -15 -3 -29q0 -36 21.5 -58.5t72.5 -22.5q20 0 43 4t55 13l62.5 96.5l61.5 95.5q17 26 28 53.5t11 50.5t-12.5 38t-44.5 20v37q29 6 59.5 11t58.5 9t51 6t37 2
q32 0 46.5 -19t14.5 -50q0 -37 -17.5 -84t-46.5 -93q-5 -8 -10 -15t-10 -15q23 -48 63.5 -71.5t91.5 -23.5q47 0 84.5 18.5t64 51.5t40.5 78.5t14 100.5q0 19 -3 38t-11.5 35t-22.5 27t-35 15v31q21 6 46.5 12.5t52 11.5t51 8.5t42.5 3.5q35 0 47 -27t12 -82
q0 -105 -35.5 -180t-92.5 -123t-128.5 -70.5t-143.5 -22.5q-57 0 -109.5 15.5t-94.5 47.5l-85.5 -131.5l-89.5 -138l-89 -139.5l-84 -136q-17 -28 -27 -49.5t-10 -37.5q0 -39 66 -45v-37z" />
    <glyph glyph-name="uni1227" unicode="&#x1227;" horiz-adv-x="1581" 
d="M890 179l31.5 154.5l33.5 158l34 154.5t34 144q-29 -7 -55.5 -10.5t-51.5 -3.5q-52 0 -97.5 15.5t-77.5 50.5q-18 -35 -42 -65t-54.5 -52.5t-67 -35.5t-79.5 -13q-29 0 -58.5 -2t-51.5 -7q-29 -6 -51 -11.5t-40 -11l-35 -10.5l-35 -10q-23 -6 -43 -6q-45 0 -77 28t-32 82
q0 5 1.5 15l3.5 24q6 27 14.5 60.5l16.5 65.5t13.5 60t5.5 43q0 29 -14 49t-56 25l1 37l60 15.5l62 16t55.5 12.5t41.5 5q26 0 42 -17.5t16 -50.5q0 -19 -8.5 -52t-20 -69.5l-22.5 -72t-16 -58.5q-4 -12 -4 -32q0 -21 8.5 -36t22.5 -24.5t31.5 -14t35.5 -4.5q62 0 109.5 30
t79.5 74t48.5 94t16.5 90q0 42 -12 67t-50 30l1 37q36 12 68.5 20.5t58.5 14t43 8t22 2.5q26 0 43.5 -19.5t17.5 -57.5q0 -24 -3.5 -52t-9.5 -58q0 -47 17 -77.5t44 -48.5t61 -25t68 -7q26 0 50 3l46 184q4 17 6 31t2 25q0 26 -11 42.5t-38 19.5v37q25 6 50.5 11t48.5 9
t41.5 6t30.5 2q35 0 50.5 -18.5t15.5 -51.5q0 -34 -10 -64l-52 -215l-54 -235l-52 -233.5l-46 -209.5l456 27q-5 -23 -8 -42.5t-3 -36.5q-2 -45 10 -90t38 -79l2 -16q-25 -8 -50 -11t-49 -2q-41 1 -75 14.5t-59 38.5t-38 62t-12 85l-605 -33q-4 -117 -62.5 -175t-191.5 -58
h-21.5t-21.5 1l-1 18q30 31 46 72t17 84q1 20 -2.5 40t-9.5 40l-1 23z" />
    <glyph glyph-name="uni1228" unicode="&#x1228;" horiz-adv-x="1046" 
d="M670 71q-97 -42 -188 -65.5t-169 -23.5q-57 0 -105 14t-83.5 42t-55 69.5t-19.5 96.5q0 75 32 147.5t83 141.5t114 134l126 125l97 92.5t81.5 86t56.5 78.5t21 69q0 59 -72 64v37q28 6 59 11.5t59.5 9.5t52 6.5t36.5 2.5q38 0 57 -15.5t19 -53.5q0 -55 -25 -109.5
t-66.5 -108.5t-95 -108.5l-109.5 -109.5l-116 -115.5t-101.5 -119t-72 -123t-27.5 -128.5q0 -76 44 -107t119 -31q54 0 116 14t126 40q16 121 219 159l7 -23q-10 -19 -14.5 -42.5t-4.5 -48.5q0 -27 5.5 -53.5t17.5 -50t29.5 -40.5t41.5 -24l1 -23q-31 -11 -64 -18t-65 -7
q-27 0 -52.5 5.5t-47.5 18t-39.5 33t-27.5 50.5v1z" />
    <glyph glyph-name="uni1229" unicode="&#x1229;" horiz-adv-x="1207" 
d="M1114 617q-5 -23 -8.5 -47.5t-3.5 -50.5q0 -51 17 -96.5t61 -68.5l1 -17q-31 -19 -62.5 -26.5t-61.5 -7.5q-38 0 -71 14t-58 41t-39.5 68t-14.5 95l-119.5 -21.5t-107.5 -17.5l-27.5 -185l-23.5 -166q-3 -17 -3 -33q0 -26 12.5 -45t46.5 -21v-37q-25 -6 -50.5 -11.5
t-48.5 -9.5t-42 -6.5t-31 -2.5q-42 0 -60.5 20.5t-18.5 57.5q0 12 1.5 25.5t3.5 28.5q11 88 25.5 178.5l29.5 181.5q-95 -9 -162 -9q-72 0 -121 13.5t-79 37.5t-42.5 57t-12.5 72q0 51 23 95t59 81.5t80.5 69.5t87.5 60l61 39t51.5 35t35.5 35t13 38q0 28 -23.5 41t-51.5 15
v37q28 6 63 12l68 11.5t60.5 8.5t40.5 3q38 0 59.5 -15.5t21.5 -53.5q0 -44 -20.5 -82t-54 -72t-75.5 -65l-85 -61l-76 -53t-65.5 -53t-46 -54.5t-17.5 -57.5q0 -64 43.5 -92t142.5 -28q101 0 265.5 25.5t409.5 69.5z" />
    <glyph glyph-name="uni122A" unicode="&#x122a;" horiz-adv-x="1041" 
d="M655 469q28 6 57 11.5t56 9.5t49 6.5t35 2.5q28 0 46.5 -12t29 -31.5t14.5 -43.5t4 -48q0 -72 -22 -120.5t-70 -84t-123.5 -61t-181.5 -50.5q-31 -11 -69 -22.5t-76.5 -20.5t-74 -15t-60.5 -6q-36 0 -74.5 11.5t-71 38t-53 70t-20.5 108.5q0 81 32.5 155.5t84 142.5
t115.5 129.5l128 117.5l99.5 88.5t84 82.5t58 77.5t21.5 72.5q0 59 -72 64v37q28 6 59 11.5t59.5 9.5t52 6.5t36.5 2.5q38 0 57 -15.5t19 -53.5q0 -62 -26 -118t-69 -108.5t-97.5 -103l-112.5 -101.5l-117.5 -106t-102.5 -111.5t-72.5 -121t-27.5 -134.5q0 -38 14.5 -65.5
t40.5 -45t63 -26t81 -8.5q49 0 99 14.5t90.5 43.5t66 73.5t25.5 103.5q0 31 -6.5 51t-18 32t-26.5 17t-33 6v37z" />
    <glyph glyph-name="uni122B" unicode="&#x122b;" horiz-adv-x="1307" 
d="M776 124l-128 -51t-121 -45t-116 -32.5t-113 -12.5q-52 0 -97 13.5t-78.5 41t-53 69t-19.5 97.5q0 75 29 147.5t78 141.5t113.5 134t134.5 125l100 90.5t81.5 85.5t54.5 79t20 71q0 59 -72 64v37q28 6 59 11.5t59.5 9.5t52 6.5t36.5 2.5q38 0 57 -15.5t19 -53.5
q0 -55 -24 -111t-64.5 -111.5t-94 -109t-113.5 -104.5q-66 -57 -124 -115.5t-101 -119t-67.5 -123t-24.5 -128.5q0 -37 13 -62t35 -40.5t51.5 -22.5t63.5 -7q36 0 74.5 7t74.5 18q2 106 30.5 178.5t77.5 121t114 77t140 45.5t156 26.5t162 20.5q-5 -24 -8.5 -50t-3.5 -52
q0 -43 10.5 -83t35.5 -72l2 -16q-51 -17 -85 -17q-72 0 -119 47.5t-52 141.5q-73 -9 -122 -25.5t-78.5 -54.5t-42 -103.5t-12.5 -171.5z" />
    <glyph glyph-name="uni122C" unicode="&#x122c;" horiz-adv-x="1258" 
d="M677 13q-36 0 -64.5 12t-49.5 32q-85 -35 -154.5 -54t-140.5 -19q-44 0 -83.5 13.5t-69.5 41.5t-47.5 71t-17.5 102q0 81 32.5 155.5t84 142.5t115.5 129.5l128 117.5l99.5 88.5t84 82.5t58 77.5t21.5 72.5q0 59 -72 64v37q28 6 59 11.5t59.5 9.5t52 6.5t36.5 2.5
q38 0 57 -15.5t19 -53.5q0 -62 -26 -118t-69 -108.5t-97.5 -103l-112.5 -101.5l-117.5 -106t-102.5 -111.5t-72.5 -121t-27.5 -134.5q0 -38 14 -65t38 -44.5t56.5 -26t70.5 -8.5q22 0 45.5 2.5t46.5 7.5q-12 23 -17.5 49.5t-5.5 53.5q0 69 23.5 114.5t65 73t99 40.5
t125.5 16q17 1 36 5.5l37.5 9t34.5 8t27 3.5q103 0 158 -52.5t55 -149.5q0 -39 -13 -77.5t-38 -69.5t-61 -50t-81 -19q-43 0 -73.5 -1.5t-53.5 -6.5q-24 -5 -42.5 -11t-37.5 -11.5t-40.5 -9.5t-50.5 -4zM697 256q0 -30 8 -57.5t24 -48.5t41 -33.5t59 -12.5q37 0 65 13
t47 35.5t28.5 52t9.5 61.5q0 60 -30 96t-90 36q-33 0 -62.5 -8t-51.5 -25t-35 -44t-13 -65z" />
    <glyph glyph-name="uni122D" unicode="&#x122d;" horiz-adv-x="1047" 
d="M298 -16q-53 0 -93.5 21.5t-68 67t-42 117.5t-14.5 173q0 113 9.5 207t29.5 171.5t50.5 140t72.5 111.5q50 59 118.5 99.5t156 65t194.5 35.5t235 11q-15 -45 -15 -95q0 -46 13.5 -90t40.5 -76l2 -16q-38 -16 -85 -16q-38 0 -72.5 13t-60.5 38.5t-41 63.5t-15 88
q-41 3 -59 3q-79 0 -138 -25.5t-101.5 -71t-70.5 -109t-44 -139.5t-22.5 -162.5t-6.5 -177.5q0 -66 4 -127.5t20.5 -109.5t49.5 -77t90 -29q20 0 48.5 3.5t61 9.5t67.5 13.5t67 15.5q11 66 65 105t157 52l4 -20q-22 -40 -22 -98q0 -24 5 -48t15.5 -45t26.5 -38t39 -27
l-1 -19q-60 -17 -118 -17q-26 0 -51.5 5t-48 16.5t-39 30.5t-23.5 46l-120 -33l-110.5 -29t-93 -20.5t-66.5 -7.5z" />
    <glyph glyph-name="uni122E" unicode="&#x122e;" horiz-adv-x="1228" 
d="M1193 1046q0 -42 -15 -84.5t-42.5 -77t-65.5 -56.5t-84 -22q-23 0 -48.5 1t-49.5 1q-23 0 -47.5 -5t-47 -10.5l-42.5 -10.5t-33 -5q-35 0 -61.5 16.5t-45 42.5t-28 57t-9.5 60q0 59 15 106q-63 -4 -111 -31.5t-83.5 -73t-59 -106t-38 -131t-20.5 -148.5t-6 -157
q0 -62 4 -120t20.5 -103t49.5 -72.5t90 -27.5q20 0 48.5 3.5t61 9.5t67.5 13.5t67 15.5q11 66 65 105t157 52l4 -20q-22 -40 -22 -98q0 -24 5 -48t15.5 -45t26.5 -38t39 -27l-1 -19q-60 -17 -118 -17q-26 0 -51.5 5t-48 16.5t-39 30.5t-23.5 46l-120 -33l-110.5 -29
t-93 -20.5t-66.5 -7.5q-105 0 -161.5 82.5t-56.5 268.5q0 174 28 318.5t91 248t165 159t250 50.5q24 38 60.5 62.5t82.5 39t99.5 20t111.5 5.5q48 0 89 -12t71 -36t47.5 -60t17.5 -84zM869 864q37 0 66.5 15t49.5 40.5t30.5 59t10.5 69.5q0 57 -33 90t-93 33
q-81 0 -118 -43.5t-37 -124.5q0 -29 8 -54t23.5 -44t38.5 -30t54 -11z" />
    <glyph glyph-name="uni122F" unicode="&#x122f;" horiz-adv-x="1393" 
d="M276 1026q2 13 3 26t1 26q0 60 -23 114.5t-68 99.5l-1 18q25 3 54 3q53 0 98.5 -13t79 -40.5t54 -70.5t23.5 -103h577q3 60 21.5 103t50.5 70.5t76 40.5t97 13q28 0 54 -3l-1 -18q-45 -42 -63.5 -94.5t-18.5 -109.5q0 -15 1.5 -30.5t3.5 -31.5h-434q-1 -48 -23.5 -96.5
t-60.5 -96.5t-88.5 -95t-108.5 -92q-65 -51 -122 -102.5t-99 -104.5t-66 -108t-24 -113q0 -37 13 -62.5t35 -41.5t51.5 -23t63.5 -7q36 0 74.5 4t74.5 9q2 102 30.5 171t77.5 113.5t114 69t140 38.5t156 22t162 19q-5 -24 -8.5 -50t-3.5 -52q0 -43 10.5 -83t35.5 -72l2 -16
q-51 -17 -85 -17q-72 0 -119 47.5t-52 141.5q-73 -9 -122 -23.5t-78.5 -51.5t-42 -103.5t-12.5 -179.5q-78 -8 -159 -21.5t-156 -28.5q-63 -13 -112.5 -25.5t-70.5 -12.5q-104 0 -166 54.5t-62 166.5q0 66 28 131t74.5 127t107.5 120t128 112l140.5 116.5t83 81.5t40 65.5
t10.5 68.5h-396z" />
    <glyph glyph-name="uni1230" unicode="&#x1230;" horiz-adv-x="1035" 
d="M963 15q-9 -3 -38 -8l-62.5 -10.5t-65.5 -9t-48 -3.5q-15 0 -22.5 9.5t-12.5 26.5q-8 27 -13 69t-7.5 84.5t-3 79t-0.5 53.5q0 63 2.5 128t5.5 123.5l5.5 106t2.5 74.5q0 43 -6.5 86.5t-25 78t-51.5 56t-86 21.5q-64 0 -108 -31t-72.5 -80.5t-44 -111.5t-22.5 -124
t-8.5 -117.5t-1.5 -92.5q0 -24 1 -60.5t4 -75.5t7 -75t10 -58q11 -46 34.5 -65.5t60.5 -27.5l-2 -37q-9 -4 -38 -11t-64 -13.5t-69 -11t-54 -4.5q-14 0 -25.5 6t-19.5 30q-9 27 -16.5 67t-13 84t-8.5 88t-3 79q0 69 3 143.5t15 147t35.5 139.5t65 122t103 94.5t149.5 56.5
q2 48 3 81t1 41q0 64 -7.5 94.5t-39.5 32.5v37q25 6 50 10.5t47.5 8t40.5 5t30 1.5q21 0 33 -6t18 -19t7.5 -33.5t1.5 -49.5q0 -34 -2 -85.5t-5 -108.5q81 -8 132.5 -34.5t81.5 -67t41 -92t11 -109.5q0 -38 -2.5 -80t-6 -92t-6 -109.5t-2.5 -131.5q0 -71 1.5 -121t9 -83
t24.5 -51.5t48 -26.5z" />
    <glyph glyph-name="uni1231" unicode="&#x1231;" horiz-adv-x="1369" 
d="M963 15q-9 -3 -38 -8l-62.5 -10.5t-65.5 -9t-48 -3.5q-15 0 -22.5 9.5t-12.5 26.5q-8 27 -13 69t-7.5 84.5t-3 79t-0.5 53.5q0 63 2.5 128t5.5 123.5l5.5 106t2.5 74.5q0 43 -6.5 86.5t-25 78t-51.5 56t-86 21.5q-64 0 -108 -31t-72.5 -80.5t-44 -111.5t-22.5 -124
t-8.5 -117.5t-1.5 -92.5q0 -24 1 -60.5t4 -75.5t7 -75t10 -58q11 -46 34.5 -65.5t60.5 -27.5l-2 -37q-9 -4 -38 -11t-64 -13.5t-69 -11t-54 -4.5q-14 0 -25.5 6t-19.5 30q-9 27 -16.5 67t-13 84t-8.5 88t-3 79q0 69 3 143.5t15 147t35.5 139.5t65 122t103 94.5t149.5 56.5
q2 48 3 81t1 41q0 64 -7.5 94.5t-39.5 32.5v37q25 6 50 10.5t47.5 8t40.5 5t30 1.5q21 0 33 -6t18 -19t7.5 -33.5t1.5 -49.5q0 -34 -2 -85.5t-5 -108.5q81 -8 132.5 -34.5t81.5 -67t41 -92t11 -109.5q0 -35 -2.5 -73.5l-5.5 -83.5l187 8q10 30 30.5 51t47 34t57 19t61.5 6
q15 0 29.5 -1.5t28.5 -3.5l1 -18q-20 -16 -32 -47.5t-12 -66.5t14 -65.5t46 -44.5v-18q-57 -18 -104 -18q-66 0 -110 31.5t-61 86.5l-186 -9q-6 -87 -6 -200q0 -71 1.5 -121t9 -83t24.5 -51.5t48 -26.5z" />
    <glyph glyph-name="uni1232" unicode="&#x1232;" horiz-adv-x="1412" 
d="M395 24q-9 -4 -38 -11t-64 -13.5t-69 -11t-54 -4.5q-14 0 -25.5 6t-19.5 30q-9 27 -16.5 67t-13 84t-8.5 88t-3 79q0 69 3 143.5t15 147t35.5 139.5t65 122t103 94.5t149.5 56.5q2 48 3 81t1 41q0 64 -7.5 94.5t-39.5 32.5v37q25 6 50 10.5t47.5 8t40.5 5t30 1.5
q21 0 33 -6t18 -19t7.5 -33.5t1.5 -49.5q0 -34 -2 -85.5t-5 -108.5q81 -8 132.5 -34.5t81.5 -67t41 -92t11 -109.5q0 -38 -2.5 -80t-6 -92t-6 -109.5t-2.5 -131.5q0 -81 2 -133.5t13 -85.5q6 -19 21 -26.5t50 -7.5q26 0 68.5 1.5t87.5 7.5q14 58 68.5 92t154.5 39l3 -23
q-14 -19 -22 -47t-8 -60q0 -40 16.5 -77t55.5 -57l-2 -22q-20 -5 -42 -7.5t-44 -2.5q-30 0 -59 5.5t-53 18.5t-41 33t-23 49q-124 -23 -199.5 -31t-110.5 -8q-60 0 -85 21.5t-30 56.5q-5 31 -7.5 66.5t-4 68.5t-1.5 60v41q0 63 2.5 128t5.5 123.5l5.5 106t2.5 74.5
q0 43 -6.5 86.5t-25 78t-51.5 56t-86 21.5q-64 0 -108 -31t-72.5 -80.5t-44 -111.5t-22.5 -124t-8.5 -117.5t-1.5 -92.5q0 -24 1 -60.5t4 -75.5t7 -75t10 -58q12 -46 35 -65.5t60 -27.5z" />
    <glyph glyph-name="uni1233" unicode="&#x1233;" horiz-adv-x="1004" 
d="M932 15q-9 -3 -38 -8l-62.5 -10.5t-65.5 -9t-48 -3.5q-15 0 -22.5 9.5t-12.5 26.5q-8 27 -13 69t-7.5 84.5t-3 79t-0.5 53.5q0 63 2.5 128t5.5 123.5l5.5 106t2.5 74.5q0 43 -6 86.5t-24 78t-50 56t-83 21.5q-58 0 -99 -22.5t-68.5 -57.5t-43.5 -77t-24.5 -80.5
t-11 -69.5t-2.5 -43q0 -44 2.5 -84.5t11.5 -72.5t27 -52t49 -22l-2 -36q-9 -4 -36 -10t-60 -12t-65 -10.5t-50 -4.5q-15 0 -27.5 5t-19.5 21q-6 18 -11 44.5t-9 56.5t-6 60t-2 54q0 66 15.5 140t55.5 141t109.5 119t178.5 74q2 48 3 81t1 41q0 64 -7.5 94.5t-39.5 32.5v37
q25 6 50 10.5t47.5 8t40.5 5t30 1.5q21 0 33 -6t18 -19t7.5 -33.5t1.5 -49.5q0 -34 -2 -85.5t-5 -108.5q81 -8 132.5 -34.5t81.5 -67t41 -92t11 -109.5q0 -38 -2.5 -80t-6 -92t-6 -109.5t-2.5 -131.5q0 -71 1.5 -121t9 -83t24.5 -51.5t48 -26.5z" />
    <glyph glyph-name="uni1234" unicode="&#x1234;" horiz-adv-x="1346" 
d="M1001 12q-23 -5 -57.5 -10t-70 -9t-67.5 -6.5t-49 -2.5q-34 0 -44 36q-8 28 -12.5 71t-7 86.5t-3 81t-0.5 54.5q0 61 2.5 126t5.5 123l5.5 105t2.5 74q0 43 -6.5 85.5t-25 76.5t-51.5 55.5t-86 21.5q-64 0 -108 -31t-72.5 -80.5t-44 -111.5t-22.5 -124t-8.5 -117.5
t-1.5 -92.5q0 -24 1 -60.5t4 -75.5t7 -75t10 -58q13 -45 35.5 -65t59.5 -28l-2 -37q-9 -4 -38 -11t-64 -13.5t-69 -11t-54 -4.5q-14 0 -25.5 6t-19.5 30q-9 27 -16.5 67t-13 84t-8.5 88t-3 79q0 69 3 143.5t15 147t35.5 139.5t65 122t103 94.5t149.5 56.5q2 48 3 81t1 41
q0 64 -7.5 94.5t-39.5 32.5v37q25 6 50 10.5t47.5 8t40.5 5t30 1.5q21 0 33 -6t18 -19t7.5 -33.5t1.5 -49.5q0 -34 -2 -85.5t-5 -108.5q81 -8 132.5 -34t81.5 -66t41 -90.5t11 -106.5q0 -37 -2.5 -77.5t-6 -88.5t-6 -105t-2.5 -127q70 14 129.5 22t110.5 8q88 0 136 -43
t48 -131q0 -54 -18.5 -92t-49 -63t-71.5 -36.5t-86 -11.5q-19 0 -35.5 1t-44.5 3zM882 233q0 -44 3 -76.5t15 -54.5t35.5 -33t65.5 -11q31 0 54 11t38 30t22 44t7 54q0 55 -25 87.5t-87 32.5q-26 0 -58 -4t-70 -11v-69z" />
    <glyph glyph-name="uni1235" unicode="&#x1235;" horiz-adv-x="1027" 
d="M963 15q-9 -3 -38 -8l-62.5 -10.5t-65.5 -9t-48 -3.5q-15 0 -22.5 9.5t-12.5 26.5q-8 27 -13 69t-7.5 84.5t-3 79t-0.5 53.5q0 63 2.5 128t5.5 123.5l5.5 106t2.5 74.5q0 43 -6.5 86.5t-25 78t-51.5 56t-86 21.5q-64 0 -108 -31t-72.5 -80.5t-44 -111.5t-22.5 -124
t-8.5 -117.5t-1.5 -92.5q0 -24 1 -60.5t4 -75.5t7 -75t10 -58q11 -46 34.5 -65.5t60.5 -27.5l-2 -37q-9 -4 -38 -11t-64 -13.5t-69 -11t-54 -4.5q-14 0 -25.5 6t-19.5 30q-9 27 -16.5 67t-13 84t-8.5 88t-3 79q0 67 3 139.5t14 143.5t33 137t60.5 121t96 95.5t139.5 60.5
l-48 68t-47 70q-26 42 -36 64.5t-10 42.5q0 39 53 56q12 4 32.5 7.5t46 7t54 7t55.5 6.5l13 -35q-19 -8 -32 -22t-13 -37q0 -14 6.5 -31t20.5 -39q51 -77 105 -150h3q81 -8 132.5 -34.5t81.5 -67t41 -92t11 -109.5q0 -38 -2.5 -80t-6 -92t-6 -109.5t-2.5 -131.5
q0 -71 1.5 -121t9 -83t24.5 -51.5t48 -26.5z" />
    <glyph glyph-name="uni1236" unicode="&#x1236;" horiz-adv-x="1014" 
d="M395 25q-9 -4 -38 -11t-64 -13.5t-69 -11t-54 -4.5q-14 0 -25.5 6t-19.5 30q-9 27 -16.5 67t-13 84t-8.5 88t-3 79q0 69 3 143t14.5 146.5t34.5 139.5t63 122t100 94.5t146 56.5q2 48 3 81t1 41q0 64 -7.5 94.5t-39.5 32.5v37q25 6 50 10.5t47.5 8t40.5 5t30 1.5
q21 0 33 -6t18 -19t7.5 -33.5t1.5 -49.5q0 -34 -2 -85.5t-5 -108.5q79 -8 130 -34.5t80 -67t40 -92t11 -109.5q0 -35 -2.5 -75.5t-2.5 -79.5q0 -53 1.5 -90t9 -61.5t24.5 -38t48 -19.5l-2 -37q-9 -3 -38 -8l-63 -10.5t-66 -9t-48 -3.5q-15 0 -22.5 7t-12.5 20q-8 20 -13 51
t-7.5 62.5t-3 58.5t-0.5 40q0 20 1 45.5t1.5 51t1.5 49t1 38.5q0 43 -6 86.5t-24 78t-50 56t-83 21.5q-62 0 -104.5 -31t-70 -80.5t-42.5 -111.5t-22 -124t-8 -117.5t-1 -92.5q0 -24 1 -60.5t4 -75.5t7 -74.5t10 -57.5q11 -46 34.5 -65.5t60.5 -27.5z" />
    <glyph glyph-name="uni1237" unicode="&#x1237;" horiz-adv-x="1293" 
d="M628 42q4 48 8.5 108t8.5 124.5t7.5 130l6.5 126t4.5 112t1.5 87.5q0 50 -7 96.5t-24.5 82t-46.5 56.5t-73 21q-49 0 -86 -20.5t-64 -55.5t-45 -80.5t-28.5 -95.5t-15 -101t-4.5 -96t2.5 -82.5t11 -65t26 -44.5t47.5 -20l-2 -37q-9 -4 -34 -10t-56 -11.5t-61.5 -9.5
t-49.5 -4q-15 0 -27 4.5t-19 24.5q-15 42 -22.5 96t-7.5 114q0 90 17.5 182t59 170.5t109.5 136t169 78.5l22 247h175l-21 -241q72 -10 120 -40.5t76.5 -75t40.5 -100t12 -114.5q0 -48 -3.5 -129t-9 -176t-12 -194l-12.5 -183l412 24q-5 -23 -8 -42.5t-3 -36.5
q-2 -45 10 -90t38 -79l2 -16q-25 -8 -50 -11t-49 -2q-41 1 -76 14.5t-61 39t-40 63t-12 87.5l-573 -32q-4 -118 -64.5 -176.5t-194.5 -58.5h-21.5t-21.5 1l-1 18q30 31 46 72t17 84q1 20 -2.5 40t-9.5 40l-1 23z" />
    <glyph glyph-name="uni1238" unicode="&#x1238;" horiz-adv-x="1062" 
d="M1142 1209q-23 -5 -47.5 -8.5t-48.5 -3.5q-30 0 -58 6t-51.5 18.5t-39.5 33t-22 50.5l-225 -19l-7 -246q76 -8 125 -35t77 -68t39 -93t11 -109q0 -38 -2.5 -79t-6 -89t-6 -105.5t-2.5 -129.5q0 -71 1.5 -120.5t9 -82t24.5 -50.5t48 -26l-2 -38q-9 -3 -38 -8l-62.5 -10.5
t-65.5 -9t-48 -3.5q-15 0 -22.5 9.5t-12.5 26.5q-8 27 -12.5 68t-7 83t-3.5 78.5t-1 53.5q0 62 2.5 125.5t5.5 120.5l5.5 103.5t2.5 73.5q0 43 -6 86.5t-22.5 78.5t-46.5 57t-77 22q-57 0 -96 -30.5t-64.5 -79.5t-39.5 -110.5t-20.5 -122.5t-7.5 -116t-1 -91q0 -24 1 -60
t4 -74.5t7 -74t10 -57.5q11 -46 34.5 -65.5t60.5 -27.5l-2 -37q-9 -4 -38 -11t-64 -13.5t-69.5 -11t-54.5 -4.5q-15 0 -26.5 6t-19.5 30q-9 26 -16.5 65.5t-13 83.5t-8.5 87.5t-3 78.5q0 68 3 142t14 146t33.5 138.5t61.5 121t97.5 93.5t142.5 55l7 240l-197 -16
q-11 -64 -72 -98t-167 -42l-3 16q23 32 35.5 65.5t12.5 65.5q0 38 -18.5 70.5t-57.5 53.5l1 16q45 12 94 12q31 0 60.5 -6t52.5 -18.5t38.5 -32t19.5 -46.5l590 52q30 111 221 123l2 -17q-23 -63 -23 -108q0 -42 16.5 -77.5t53.5 -58.5z" />
    <glyph glyph-name="uni1239" unicode="&#x1239;" horiz-adv-x="1385" 
d="M1142 1209q-23 -5 -47.5 -8.5t-48.5 -3.5q-30 0 -58 6t-51.5 18.5t-39.5 33t-22 50.5l-225 -19l-7 -246q76 -8 125 -35t77 -68t39 -93t11 -109q0 -17 -0.5 -32t-1.5 -33l186 8q10 30 30.5 51t47 34t57 19t61.5 6q15 0 29.5 -1.5t28.5 -3.5l1 -18q-20 -16 -32 -47.5
t-12 -66.5t14 -65.5t46 -44.5v-18q-57 -18 -104 -18q-66 0 -110 31.5t-61 86.5l-186 -9q-4 -57 -7.5 -124.5t-3.5 -157.5q0 -71 1.5 -120.5t9 -82t24.5 -50.5t48 -26l-2 -38q-9 -3 -38 -8l-62.5 -10.5t-65.5 -9t-48 -3.5q-15 0 -22.5 9.5t-12.5 26.5q-8 27 -12.5 68t-7 83
t-3.5 78.5t-1 53.5q0 62 2.5 125.5t5.5 120.5l5.5 103.5t2.5 73.5q0 43 -6 86.5t-22.5 78.5t-46.5 57t-77 22q-57 0 -96 -30.5t-64.5 -79.5t-39.5 -110.5t-20.5 -122.5t-7.5 -116t-1 -91q0 -24 1 -60t4 -74.5t7 -74t10 -57.5q11 -46 34.5 -65.5t60.5 -27.5l-2 -37
q-9 -4 -38 -11t-64 -13.5t-69.5 -11t-54.5 -4.5q-15 0 -26.5 6t-19.5 30q-9 26 -16.5 65.5t-13 83.5t-8.5 87.5t-3 78.5q0 68 3 142t14 146t33.5 138.5t61.5 121t97.5 93.5t142.5 55l7 240l-197 -16q-11 -64 -72 -98t-167 -42l-3 16q23 32 35.5 65.5t12.5 65.5
q0 38 -18.5 70.5t-57.5 53.5l1 16q45 12 94 12q31 0 60.5 -6t52.5 -18.5t38.5 -32t19.5 -46.5l590 52q30 111 221 123l2 -17q-23 -63 -23 -108q0 -42 16.5 -77.5t53.5 -58.5z" />
    <glyph glyph-name="uni123A" unicode="&#x123a;" horiz-adv-x="1413" 
d="M686 306q0 61 2.5 124.5t5.5 120l5.5 102.5t2.5 73q0 43 -6 86.5t-22.5 78.5t-46.5 57t-77 22q-57 0 -96 -30.5t-64.5 -79.5t-39.5 -110.5t-20.5 -122.5t-7.5 -116t-1 -91q0 -24 1 -60t4 -74.5t7 -74t10 -57.5q11 -46 34.5 -65.5t60.5 -27.5l-2 -37q-9 -4 -38 -11
t-64 -13.5t-69.5 -11t-54.5 -4.5q-15 0 -26.5 6t-19.5 30q-9 26 -16.5 65.5t-13 83.5t-8.5 87.5t-3 78.5q0 68 3 142t14 146t33.5 138.5t61.5 121t97.5 93.5t142.5 55l7 240l-197 -16q-11 -64 -72 -98t-167 -42l-3 16q23 32 35.5 65.5t12.5 65.5q0 38 -18.5 70.5t-57.5 53.5
l1 16q45 12 94 12q31 0 60.5 -6t52.5 -18.5t38.5 -32t19.5 -46.5l590 52q30 111 221 123l2 -17q-23 -63 -23 -108q0 -42 16.5 -77.5t53.5 -58.5l1 -16q-23 -5 -47.5 -8.5t-48.5 -3.5q-30 0 -58 6t-51.5 18.5t-39.5 33t-22 50.5l-225 -19l-7 -246q76 -8 125 -35t77 -68
t39 -93t11 -109q0 -38 -2.5 -78.5t-6 -88.5t-6 -105.5t-2.5 -128.5q0 -81 2 -133.5t13 -85.5q6 -19 21 -26.5t50 -7.5q26 0 68.5 1.5t87.5 7.5q14 58 68.5 92t154.5 39l3 -23q-14 -19 -22 -47t-8 -60q0 -40 16.5 -77t55.5 -57l-2 -22q-20 -5 -42 -7.5t-44 -2.5
q-30 0 -59 5.5t-53 18.5t-41 33t-23 49q-124 -23 -199.5 -31t-110.5 -8q-60 0 -85 21.5t-30 56.5q-5 31 -7.5 66.5t-4 68.5t-1.5 60v41z" />
    <glyph glyph-name="uni123B" unicode="&#x123b;" horiz-adv-x="1062" 
d="M482 1271l-197 -16q-11 -64 -72 -98t-167 -42l-3 16q23 32 35.5 65.5t12.5 65.5q0 38 -18.5 70.5t-57.5 53.5l1 16q45 12 94 12q31 0 60.5 -6t52.5 -18.5t38.5 -32t19.5 -46.5l590 52q30 111 221 123l2 -17q-23 -63 -23 -108q0 -42 16.5 -77.5t53.5 -58.5l1 -16
q-23 -5 -47.5 -8.5t-48.5 -3.5q-30 0 -58 6t-51.5 18.5t-39.5 33t-22 50.5l-225 -19l-7 -246q76 -8 125 -35t77 -68t39 -93t11 -109q0 -38 -2.5 -79t-6 -89t-6 -105.5t-2.5 -129.5q0 -71 1.5 -120.5t9 -82t24.5 -50.5t48 -26l-2 -38q-9 -3 -38 -8l-62.5 -10.5t-65.5 -9
t-48 -3.5q-15 0 -22.5 9.5t-12.5 26.5q-8 27 -12.5 68t-7 83t-3.5 78.5t-1 53.5q0 62 2.5 125.5t5.5 120.5l5.5 103.5t2.5 73.5q0 43 -6 86.5t-22.5 78.5t-46.5 57t-77 22q-53 0 -91 -22t-63.5 -55.5t-40.5 -74.5t-23 -78.5t-10 -67.5t-2 -42q0 -44 2.5 -84.5t11.5 -72.5
t27 -52t49 -22l-2 -36q-9 -4 -36 -10t-60 -12t-65.5 -10.5t-51.5 -4.5q-15 0 -26.5 4t-19.5 20q-6 18 -11 45.5t-8.5 57.5t-5.5 60t-2 54q0 64 15 136.5t54.5 138.5t108 117t175.5 72z" />
    <glyph glyph-name="uni123C" unicode="&#x123c;" horiz-adv-x="1342" 
d="M686 313q0 61 2.5 123t5.5 117.5l5.5 100.5t2.5 72q0 43 -6 86.5t-22.5 78.5t-46.5 57t-77 22q-57 0 -96 -30.5t-64.5 -79.5t-39.5 -110.5t-20.5 -122.5t-7.5 -116t-1 -91q0 -24 1 -60t4 -74.5t7 -74t10 -57.5q11 -46 34.5 -65.5t60.5 -27.5l-2 -37q-9 -4 -38 -11
t-64 -13.5t-69.5 -11t-54.5 -4.5q-15 0 -26.5 6t-19.5 30q-9 26 -16.5 65.5t-13 83.5t-8.5 87.5t-3 78.5q0 68 3 142t14 146t33.5 138.5t61.5 121t97.5 93.5t142.5 55l7 240l-197 -16q-11 -64 -72 -98t-167 -42l-3 16q23 32 35.5 65.5t12.5 65.5q0 38 -18.5 70.5t-57.5 53.5
l1 16q45 12 94 12q31 0 60.5 -6t52.5 -18.5t38.5 -32t19.5 -46.5l590 52q30 111 221 123l2 -17q-23 -63 -23 -108q0 -42 16.5 -77.5t53.5 -58.5l1 -16q-23 -5 -47.5 -8.5t-48.5 -3.5q-30 0 -58 6t-51.5 18.5t-39.5 33t-22 50.5l-225 -19l-7 -246q76 -8 125 -35t77 -68
t39 -93t11 -109q0 -36 -2.5 -75t-6 -84.5t-6 -100t-2.5 -120.5q70 14 129.5 22t110.5 8q88 0 136 -43t48 -131q0 -54 -18.5 -92t-49 -63t-71.5 -36.5t-86 -11.5q-19 0 -35.5 1t-44.5 3q-23 -5 -57.5 -10t-70 -9t-67.5 -6.5t-49 -2.5q-34 0 -44 36q-8 28 -12.5 71t-7 86.5
t-3 81t-0.5 54.5zM878 233q0 -44 3 -76.5t15 -54.5t35.5 -33t65.5 -11q31 0 54 11t38 30t22 44t7 54q0 55 -25 87.5t-87 32.5q-26 0 -58 -4t-70 -11v-69z" />
    <glyph glyph-name="uni123D" unicode="&#x123d;" horiz-adv-x="1110" 
d="M1040 1175q-23 -5 -47.5 -8.5t-48.5 -3.5q-30 0 -58 6t-51.5 18.5t-39.5 33t-22 50.5l-173 -14l133 -220q69 -11 113.5 -39t70 -68t35.5 -90t10 -105q0 -38 -2.5 -79t-6 -89t-6 -105.5t-2.5 -129.5q0 -71 1.5 -120.5t9 -82t24.5 -50.5t48 -26l-2 -38q-9 -3 -38 -8
l-62.5 -10.5t-65.5 -9t-48 -3.5q-15 0 -22.5 9.5t-12.5 26.5q-8 27 -12.5 68t-7 83t-3.5 78.5t-1 53.5q0 62 2.5 125.5t5.5 120.5l5.5 103.5t2.5 73.5q0 43 -6 86.5t-22.5 78.5t-46.5 57t-77 22q-57 0 -96 -30.5t-64.5 -79.5t-39.5 -110.5t-20.5 -122.5t-7.5 -116t-1 -91
q0 -24 1 -60t4 -74.5t7 -74t10 -57.5q11 -46 34.5 -65.5t60.5 -27.5l-2 -37q-9 -4 -38 -11t-64 -13.5t-69.5 -11t-54.5 -4.5q-15 0 -26.5 6t-19.5 30q-9 26 -16.5 65.5t-13 83.5t-8.5 87.5t-3 78.5q0 68 3 141.5t14 145.5t33.5 138.5t61.5 121t97.5 93.5t141.5 56l-127 209
l-144 -11q-11 -64 -72 -98t-167 -42l-3 16q23 32 35.5 65.5t12.5 65.5q0 38 -18.5 70.5t-57.5 53.5l1 16q45 12 94 12q31 0 60.5 -6t52.5 -18.5t38.5 -32t19.5 -46.5l503 44q15 57 73 87t155 36l-5 -17q-23 -63 -23 -108q0 -42 16.5 -77.5t53.5 -58.5z" />
    <glyph glyph-name="uni123E" unicode="&#x123e;" horiz-adv-x="1102" 
d="M550 970q-57 0 -96 -30.5t-64.5 -79.5t-39.5 -110.5t-20.5 -122.5t-7.5 -116t-1 -91q0 -24 1 -60t4 -74.5t7 -74t10 -57.5q11 -46 34.5 -65.5t60.5 -27.5l-2 -37q-9 -4 -38 -11t-64 -13.5t-69.5 -11t-54.5 -4.5q-15 0 -26.5 6t-19.5 30q-9 26 -16.5 65.5t-13 83.5
t-8.5 87.5t-3 78.5q0 68 3 142t14 146t33.5 138.5t61.5 121t97.5 93.5t142.5 55l7 240l-197 -16q-11 -64 -72 -98t-167 -42l-3 16q23 32 35.5 65.5t12.5 65.5q0 38 -18.5 70.5t-57.5 53.5l1 16q45 12 94 12q31 0 60.5 -6t52.5 -18.5t38.5 -32t19.5 -46.5l590 52
q30 111 221 123l2 -17q-23 -63 -23 -108q0 -42 16.5 -77.5t53.5 -58.5l1 -16q-23 -5 -47.5 -8.5t-48.5 -3.5q-30 0 -58 6t-51.5 18.5t-39.5 33t-22 50.5l-225 -19l-7 -246q77 -8 126.5 -34.5t77.5 -66.5t38.5 -90.5t10.5 -106.5q0 -35 -2.5 -73t-2.5 -77q0 -53 1.5 -90.5
t9 -62t24.5 -38t48 -19.5l-2 -37q-9 -3 -38 -8l-62.5 -10.5t-66 -9t-49.5 -3.5q-15 0 -22.5 7t-12.5 20q-7 21 -11.5 49t-6.5 55.5t-3 51.5t-1 37q0 19 0.5 47t1.5 56.5t1.5 54.5t0.5 41q0 42 -6 84.5t-22.5 76t-46.5 55t-78 21.5z" />
    <glyph glyph-name="uni123F" unicode="&#x123f;" horiz-adv-x="1344" 
d="M673 1246l-7 -181q70 -10 117.5 -35.5t76.5 -63.5t41 -88t12 -109q0 -32 -2 -82t-5 -111t-7 -129t-8.5 -137l-9 -135l-8.5 -122l412 24q-5 -23 -8 -42.5t-3 -36.5q-2 -45 10 -90t38 -79l2 -16q-25 -8 -50 -11t-49 -2q-41 1 -76 14.5t-61 39t-40 63t-12 87.5l-573 -32
q-4 -118 -64.5 -176.5t-194.5 -58.5h-21.5t-21.5 1l-1 18q30 31 46 72t17 84q1 20 -2.5 40t-9.5 40l-1 23l469 27q4 48 8.5 110.5l9 131t8.5 138.5t7 134t5 118t2 90q0 50 -7 91t-24.5 70t-46 45t-70.5 16q-71 0 -116 -34.5t-71.5 -95t-36.5 -142.5t-10 -177
q0 -45 2.5 -82.5t11 -65t26 -44.5t47.5 -20l-2 -37q-9 -4 -34 -10t-56 -11.5t-61.5 -9.5t-49.5 -4q-15 0 -27 4t-19 24q-15 42 -22.5 96.5t-7.5 114.5q0 117 17 212.5t57.5 167.5t107.5 119t166 68l9 178l-226 -12q-26 -124 -234 -131l-2 16q24 32 37.5 64.5t14.5 64.5
q2 38 -16 71t-56 56l2 16q45 10 94 9q66 -2 108.5 -28.5t48.5 -81.5l626 36q17 55 68 83.5t147 31.5l1 -17q-25 -57 -26 -107q-2 -42 13.5 -78t51.5 -61l1 -16q-47 -11 -97 -9q-61 2 -103.5 28.5t-53.5 86.5z" />
    <glyph glyph-name="uni1240" unicode="&#x1240;" horiz-adv-x="1153" 
d="M45 676q0 88 43.5 145t111.5 90t150.5 45.5t160.5 12.5h12h9t11 -1l19.5 105l17.5 96q3 15 3 31q0 26 -10.5 46.5t-38.5 22.5v37q25 6 52 11t51.5 9t44.5 6t32 2q36 0 49.5 -18t13.5 -46q0 -10 -1.5 -20.5l-3.5 -23.5q-11 -55 -22.5 -119.5l-23.5 -131.5q43 6 85 10.5
t87 4.5q49 0 92.5 -10t76.5 -33t52 -60t19 -91q0 -66 -22 -114t-59.5 -82t-87 -55.5t-104.5 -33.5t-112.5 -17t-110.5 -6l-29.5 -185l-24.5 -164q-3 -18 -3 -36q0 -26 11 -44t43 -19v-37q-25 -6 -51 -11t-50 -9t-43.5 -6t-30.5 -2q-42 0 -57.5 21.5t-15.5 55.5q0 13 3 31
q13 88 29.5 188.5l35.5 212.5q-35 -5 -72 -8t-72 -3q-50 0 -98.5 9.5t-86.5 32.5t-61.5 62.5t-23.5 98.5zM533 911q-62 0 -117 -9t-96.5 -32.5t-65.5 -65t-24 -106.5q0 -83 45.5 -120t124.5 -37q16 0 33.5 1.5t35.5 3.5zM787 919q-17 0 -31.5 -0.5t-40.5 -2.5l-63 -368
q67 1 122.5 15.5t94.5 42.5t60.5 69t21.5 96q0 75 -44 111.5t-120 36.5z" />
    <glyph glyph-name="uni1241" unicode="&#x1241;" horiz-adv-x="1172" 
d="M45 676q0 88 43.5 145t111.5 90t150.5 45.5t160.5 12.5h12h9t11 -1l19.5 105l17.5 96q3 15 3 31q0 26 -10.5 46.5t-38.5 22.5v37q25 6 52 11t51.5 9t44.5 6t32 2q36 0 49.5 -18t13.5 -46q0 -10 -1.5 -20.5l-3.5 -23.5q-11 -55 -22 -118.5l-23 -130.5q43 6 86.5 10.5
t88.5 4.5q49 0 92.5 -9.5t76.5 -32t52 -59t19 -90.5q0 -66 -22 -113.5t-60 -81t-88 -54.5t-105 -33t-113 -17t-111 -6l-15.5 -98l-15.5 -95l237 19q9 28 27.5 48t43 33t53.5 20t60 8q15 0 29.5 -1t28.5 -3l1 -18q-20 -16 -31 -48t-9 -67q1 -35 16 -65t47 -43l1 -18
q-44 -22 -101 -22t-103 29t-62 92l-246 -20q-5 -29 -8.5 -56t-7.5 -52q-3 -18 -3 -36q0 -26 11 -44t43 -19v-37q-25 -6 -51 -11t-50 -9t-43.5 -6t-30.5 -2q-42 0 -57.5 21.5t-15.5 55.5q0 13 3 31q13 88 29.5 188.5l35.5 212.5q-35 -5 -72 -8t-72 -3q-50 0 -98.5 9.5
t-86.5 32.5t-61.5 62.5t-23.5 98.5zM533 911q-62 0 -117 -9t-96.5 -32.5t-65.5 -65t-24 -106.5q0 -83 45.5 -120t124.5 -37q16 0 33.5 1.5t35.5 3.5zM791 921q-17 0 -33 -0.5t-42 -2.5l-63 -362q68 1 123.5 15t95.5 41.5t61.5 68t21.5 95.5q0 75 -44 110t-120 35z" />
    <glyph glyph-name="uni1242" unicode="&#x1242;" horiz-adv-x="1168" 
d="M459 484q-35 -5 -72 -8t-72 -3q-50 0 -98.5 9.5t-86.5 32.5t-61.5 62.5t-23.5 98.5q0 88 43.5 145t111.5 90t150.5 45.5t160.5 12.5h12h8.5t11.5 -1l19.5 105l17.5 96q3 15 3 31q0 26 -10.5 46.5t-38.5 22.5v37q25 6 52 11t51.5 9t44.5 6t32 2q36 0 49.5 -18t13.5 -46
q0 -10 -1.5 -20.5l-3.5 -23.5q-11 -55 -22.5 -119.5l-23.5 -131.5q43 6 85 10.5t87 4.5q49 0 92.5 -10t76.5 -33t52 -60t19 -91q0 -66 -22 -114t-59.5 -82t-87 -55.5t-104.5 -33.5t-112.5 -17t-110.5 -6l-30 -185t-24 -164q-1 -8 -2 -17.5t-1 -19.5q0 -17 7 -30.5t29 -13.5
q11 0 35.5 1t53.5 3.5l58 5t50 5.5q14 58 68.5 92t154.5 39l3 -23q-15 -23 -23.5 -53t-8.5 -62q0 -42 16 -79t53 -55l-2 -22q-20 -5 -42 -7.5t-44 -2.5q-30 0 -59 7t-53 21t-41 35.5t-23 50.5q-59 -9 -113.5 -16l-101 -12.5t-82.5 -8t-58 -2.5q-41 0 -55.5 21.5t-14.5 52.5
q0 8 0.5 17t1.5 17q11 88 28.5 188.5zM533 911q-62 0 -117 -9t-96.5 -32.5t-65.5 -65t-24 -106.5q0 -83 45.5 -120t124.5 -37q16 0 33.5 1.5t35.5 3.5zM787 919q-17 0 -31.5 -0.5t-40.5 -2.5l-63 -368q67 1 122.5 15.5t94.5 42.5t60.5 69t21.5 96q0 75 -44 111.5t-120 36.5z
" />
    <glyph glyph-name="uni1243" unicode="&#x1243;" horiz-adv-x="1401" 
d="M752 1154q0 15 -1.5 31t-7.5 29.5t-17 23t-30 11.5v37q24 6 49.5 11t48.5 9t42 6t31 2q24 0 38 -9t20.5 -24t8 -33.5t1.5 -36.5v-238q45 7 94 11.5t100 4.5q47 0 93 -8t82.5 -29.5t59 -58.5t22.5 -94q0 -55 -19.5 -95t-53 -67.5t-78 -45t-94.5 -27.5t-103 -14.5
t-103 -6.5q-2 -100 -41 -169t-99 -114t-134 -70.5t-146.5 -37.5t-135 -15t-100.5 -4q1 -8 1.5 -15.5t0.5 -15.5q0 -49 -14.5 -89.5t-40 -70t-61 -45.5t-76.5 -16q-39 0 -79 15q63 88 63 185q0 43 -12 91l5 8q86 5 170 10.5t160 17t140.5 33.5t112 59.5t75 94.5t29.5 139
q-20 -3 -43.5 -5.5t-47 -4.5t-45 -3t-37.5 -1q-46 0 -94.5 9t-89 30.5t-67.5 58t-30 91.5q-4 58 16.5 98.5t57.5 68t85 43.5t100 24.5t102.5 11.5t91.5 4v195zM752 902q-51 -2 -99 -5.5t-85.5 -18.5t-61 -47t-24.5 -90q0 -42 15.5 -71t42 -47t62 -26t75.5 -8q19 0 34 1t41 4
v308zM935 603q54 4 102 10.5t84 24t57 51t21 91.5q0 38 -13 65.5t-36.5 45t-55 26t-68.5 8.5q-43 0 -91 -9v-313z" />
    <glyph glyph-name="uni1244" unicode="&#x1244;" horiz-adv-x="1172" 
d="M459 484q-35 -5 -72 -8t-72 -3q-50 0 -98.5 9.5t-86.5 32.5t-61.5 62.5t-23.5 98.5q0 88 43.5 145t111.5 90t150.5 45.5t160.5 12.5h13h9t10 -1l19.5 105l17.5 96q3 15 3 31q0 26 -10.5 46.5t-38.5 22.5v37q25 6 52 11t51.5 9t44.5 6t32 2q36 0 49.5 -18t13.5 -46
q0 -10 -1.5 -20.5l-3.5 -23.5q-11 -55 -22 -118.5l-23 -130.5q43 6 86.5 10.5t88.5 4.5q49 0 92.5 -9.5t76.5 -32t52 -59t19 -90.5q0 -66 -22 -113.5t-60 -81t-88 -54.5t-105 -33t-113 -17t-111 -6l-12 -70.5t-11 -69.5q73 12 136.5 19.5t115.5 7.5q78 0 123.5 -33
t45.5 -108q0 -61 -21.5 -106t-58.5 -74.5t-87 -44t-107 -14.5q-17 0 -33 1t-39 4q-24 -5 -57.5 -10.5l-67 -10.5t-63.5 -8.5t-48 -3.5q-40 0 -54 21.5t-14 51.5q0 14 3 35q13 88 29.5 188.5zM533 911q-62 0 -117 -9t-96.5 -32.5t-65.5 -65t-24 -106.5q0 -83 45.5 -120
t124.5 -37q16 0 33.5 1.5t35.5 3.5zM791 921q-17 0 -33 -0.5t-42 -2.5l-63 -362q68 1 123.5 15t95.5 41.5t61.5 68t21.5 95.5q0 75 -44 110t-120 35zM603 239q-4 -24 -6.5 -44.5t-2.5 -37.5q-1 -26 3.5 -44.5t17 -30.5t34.5 -18t56 -6q36 0 64.5 13.5t48 36.5t30 53.5
t10.5 64.5q0 48 -27.5 67.5t-78.5 19.5q-26 0 -61.5 -2.5t-77.5 -7.5z" />
    <glyph glyph-name="uni1245" unicode="&#x1245;" horiz-adv-x="1153" 
d="M726 975q43 6 85 10.5t87 4.5q49 0 92.5 -10t76.5 -33t52 -60t19 -91q0 -66 -22 -114t-59.5 -82t-87 -55.5t-104.5 -33.5t-112.5 -17t-110.5 -6l-29.5 -185l-24.5 -164q-3 -18 -3 -36q0 -26 11 -44t43 -19v-37q-25 -6 -51 -11t-50 -9t-43.5 -6t-30.5 -2q-42 0 -57.5 21.5
t-15.5 55.5q0 13 3 31q13 88 29.5 188.5l35.5 212.5q-35 -5 -72 -8t-72 -3q-50 0 -98.5 9.5t-86.5 32.5t-61.5 62.5t-23.5 98.5q0 88 43.5 145t111.5 90t150.5 45.5t160.5 12.5h12h9t11 -1l19.5 104.5l17.5 96.5q4 12 4 33q0 20 -8.5 34.5t-29.5 24.5t-55.5 17t-86.5 12
q-39 -16 -85 -21t-88 -6l-3 16q54 57 54 123q0 32 -16.5 61t-54.5 50l2 16q18 4 38.5 5.5t41.5 1.5q33 0 69.5 -5t67 -18.5t50.5 -37.5t20 -63q0 -30 -14 -51.5t-33 -37.5l1 -2q34 3 75 5.5t79 4t67.5 2.5t38.5 1q36 0 49.5 -18.5t13.5 -46.5q0 -9 -1.5 -19.5l-3.5 -23.5
q-11 -55 -22.5 -119.5zM533 911q-62 0 -117 -9t-96.5 -32.5t-65.5 -65t-24 -106.5q0 -83 45.5 -120t124.5 -37q16 0 33.5 1.5t35.5 3.5zM787 919q-17 0 -31.5 -0.5t-40.5 -2.5l-63 -368q67 1 122.5 15.5t94.5 42.5t60.5 69t21.5 96q0 75 -44 111.5t-120 36.5z" />
    <glyph glyph-name="uni1246" unicode="&#x1246;" horiz-adv-x="1122" 
d="M440 336q-29 -6 -61.5 -9.5t-66.5 -3.5q-51 0 -101.5 10t-90.5 33.5t-65 62.5t-25 98q0 52 20 92t54 70.5t78.5 52.5t92.5 38t97.5 27.5t92.5 20.5q-14 23 -34.5 50t-39.5 58t-32 67.5t-13 78.5q0 67 33.5 117t86 83t116.5 49.5t124 16.5q43 0 83 -10t71 -31.5t49.5 -55
t18.5 -79.5q0 -63 -22 -111t-59 -84.5t-85.5 -65t-102.5 -53.5q4 -9 5.5 -18t2.5 -19q42 8 87 15.5t90 7.5q51 0 97 -11.5t80.5 -36.5t55 -64t20.5 -94q0 -90 -43 -145.5t-110 -85.5t-147 -40t-154 -10h-19q-1 -12 -2 -25.5t-3 -28.5l-5 -59l-4 -56.5t-3 -48.5q-2 -18 0 -36
q2 -26 14.5 -44t44.5 -19l2 -37q-25 -6 -50.5 -11t-49 -9t-42.5 -6t-31 -2q-42 0 -59 21.5t-19 55.5q-2 14 0 31q1 15 3 42.5t5 62t7 72l8 72.5v4zM737 773q-17 0 -33 -2t-39 -7l-35 -347h15q55 0 104 10.5t85 34t57 61t21 91.5q0 78 -48 118.5t-127 40.5zM484 777
q-56 -9 -105 -25.5t-86.5 -44t-59 -67.5t-21.5 -95q0 -78 46.5 -116t131.5 -38q11 0 24.5 1t30.5 4zM635 906q34 22 58 44t39 48.5t22 58.5t7 74q0 30 -6.5 55.5t-21 44.5t-37 30t-55.5 11q-28 0 -52 -7.5t-42 -22.5t-28 -36t-10 -48q0 -33 13 -67t32 -67t41 -63z" />
    <glyph glyph-name="uni1248" unicode="&#x1248;" horiz-adv-x="1260" 
d="M45 747q0 88 43.5 145t111.5 90t150.5 45.5t160.5 12.5h12h9t11 -1l9 48.5l7.5 41t7.5 38.5t8 42q3 15 3 31q0 26 -10.5 46.5t-38.5 22.5v37q25 6 52 11t51.5 9t44.5 6t32 2q36 0 49.5 -18t13.5 -46q0 -10 -1.5 -20.5l-3.5 -23.5l-9.5 -52l-9.5 -51l-10 -54l-11 -61
q43 6 86.5 10.5t88.5 4.5q49 0 92.5 -9.5t76.5 -32t52 -59t19 -90.5q0 -66 -22 -113.5t-60 -81t-88 -54.5t-105 -33t-113 -17t-111 -6l-12 -70.5t-11 -71.5q73 1 120 4t78 7.5t51.5 9l40.5 8.5q32 6 58.5 10t61.5 4q88 0 139 -44t51 -135q0 -33 -12.5 -69t-34.5 -66.5
t-52.5 -50t-65.5 -19.5q-19 0 -45.5 3.5t-46.5 3.5q-16 0 -33.5 -3t-34.5 -6.5l-32.5 -6.5t-25.5 -3q-28 0 -51.5 14t-40.5 35.5t-26.5 47.5t-9.5 50q0 32 10 75t30 81l-138 -5l-17.5 -118.5l-16.5 -112.5q-3 -18 -3 -36q0 -26 11 -44t43 -19v-37q-25 -6 -51 -11t-50 -9
t-43.5 -6t-30.5 -2q-42 0 -57.5 21.5t-15.5 55.5q0 13 3 31q6 43 15 101.5l19.5 122.5l21.5 128.5l20 119.5q-35 -5 -72 -8t-72 -3q-50 0 -98.5 9.5t-86.5 32.5t-61.5 62.5t-23.5 98.5zM533 982q-62 0 -117 -9t-96.5 -32.5t-65.5 -65t-24 -106.5q0 -83 45.5 -120t124.5 -37
q16 0 33.5 1.5t35.5 3.5zM791 992q-17 0 -33 -0.5t-42 -2.5l-63 -362q68 1 123.5 15t95.5 41.5t61.5 68t21.5 95.5q0 75 -44 110t-120 35zM955 144q27 0 47.5 13t35 34t22 48t7.5 54q0 51 -22 81.5t-65 30.5q-32 0 -54 -10.5t-35.5 -29.5t-19.5 -44t-6 -54q0 -23 5.5 -45.5
t16.5 -39.5t28 -27.5t40 -10.5z" />
    <glyph glyph-name="uni124A" unicode="&#x124a;" horiz-adv-x="1855" 
d="M528 1007q4 26 7 51t7 50l14 100l2 16.5t1 17.5q0 24 -9.5 43.5t-39.5 22.5v37q25 6 52 11t51.5 9t44.5 6t32 2q38 0 50 -19.5t12 -45.5q0 -11 -1 -22t-3 -21l-18 -125t-17 -126q42 6 85 10.5t88 4.5q49 0 93.5 -12t78.5 -36t54.5 -61.5t20.5 -88.5l183 6l11.5 43
t10.5 43l3.5 20t1.5 17q0 23 -11 41.5t-40 21.5v37q25 6 52.5 11t53 9t46 6t32.5 2q38 0 51 -19.5t13 -45.5q0 -11 -2 -21.5l-4 -21.5q-8 -31 -16.5 -68.5l-17 -77l-17 -78l-15.5 -70.5l322 8q-11 -26 -17 -58.5t-6 -64.5q0 -42 14 -80t49 -62l-1 -16q-45 -17 -90 -17
q-47 0 -82 17.5t-58 48t-34 73t-9 92.5q-27 -1 -49.5 -2t-44 -1.5t-43.5 -0.5h-49t-43.5 5.5t-26 14.5t-12.5 21t-3 25q0 11 2 21.5l4 21.5l10 45l-174 -6q-9 -51 -33.5 -89t-61 -64.5t-81.5 -43.5t-94.5 -27.5t-102 -14.5t-102.5 -5l-23 -197l-21 -191q-1 -8 -1.5 -17.5
t-0.5 -18.5q0 -25 10 -44t43 -19v-37q-25 -6 -51 -11t-50 -9t-43.5 -6t-30.5 -2q-42 0 -57 23.5t-15 55.5q0 8 0.5 14.5t1.5 14.5q11 106 24 215.5l27 224.5q-35 -5 -71.5 -8t-71.5 -3q-51 0 -100.5 11t-88.5 35t-63.5 63t-24.5 95q0 61 20 106t54.5 77.5t79.5 53.5t95.5 33
t103 17t101.5 5h11h8.5t9.5 -1zM520 950q-60 0 -113 -8.5t-93 -31.5t-63 -63t-23 -102q0 -82 46 -123.5t131 -41.5q15 0 33 1t35 3zM659 587q61 3 113.5 15t91.5 37.5t61 65t22 98.5q0 75 -46 115t-124 40q-17 0 -32 -0.5t-40 -2.5z" />
    <glyph glyph-name="uni124B" unicode="&#x124b;" horiz-adv-x="1173" 
d="M129 380q81 11 159.5 18.5t159.5 12.5l19 143.5t16 116.5q-35 -5 -72 -8t-72 -3q-54 0 -104 12t-88.5 40t-61.5 72.5t-23 109.5q0 91 43.5 149t111 91t148.5 45.5t156 12.5h13h10t12 -1q2 8 3 14.5l2 12.5l4 25l4 27t5 33q1 5 1.5 11t0.5 12q0 13 -2.5 27t-8.5 25
t-15.5 18t-24.5 7l-2 37q25 6 51.5 11t51 9t44.5 6t32 2q20 0 32.5 -5.5t20 -15.5t10 -22.5t2.5 -26.5q0 -20 -3 -38l-7 -41.5t-5.5 -34.5l-5.5 -37l-7 -49q43 6 85 10.5t87 4.5q52 0 97 -12.5t78.5 -39.5t52.5 -68.5t19 -99.5q0 -66 -21 -115t-57.5 -84t-85 -57.5t-103 -36
t-112.5 -19t-113 -6.5l-15.5 -114t-18.5 -144q8 1 17 1h17h35q22 0 46.5 -0.5t49.5 -1.5t48 -2.5t42 -3.5q48 -5 48 -57q0 -24 -2.5 -73t-2.5 -106q0 -64 9.5 -94.5t41.5 -32.5v-37q-52 -12 -98.5 -19t-70.5 -7q-21 0 -34 6t-19.5 19t-8.5 33t-2 49q0 42 0.5 72.5t0.5 64.5
q0 38 -1 67t-5 34q-6 10 -22.5 15.5t-40 8.5t-52 4t-56.5 1q-76 0 -138 -4t-92 -8q6 -50 -11.5 -95.5t-52 -79.5t-84 -53t-106.5 -16l-6 14q31 42 44.5 86t13.5 90q0 20 -3 41.5t-8 46.5zM548 1134q-64 1 -119 -9t-95.5 -35.5t-63.5 -68.5t-23 -107q0 -91 43.5 -138.5
t131.5 -47.5q16 0 33.5 1.5t35.5 3.5zM802 1142q-17 0 -31.5 -0.5t-40.5 -2.5l-56 -404q68 1 123 16t94 44t60 73t21 103q0 82 -44 126.5t-126 44.5z" />
    <glyph glyph-name="uni124C" unicode="&#x124c;" horiz-adv-x="1166" 
d="M541 1081q3 29 6.5 56.5t5.5 51.5q1 7 1.5 13.5t0.5 12.5q0 31 -11.5 51.5t-42.5 22.5l-3 37q25 6 51.5 11t51 9t44.5 6t32 2q20 0 33 -6.5t20.5 -17t10.5 -24t3 -28.5q0 -8 -0.5 -16t-1.5 -16q-5 -35 -8.5 -74.5t-8.5 -81.5q42 6 85.5 10.5t88.5 4.5q51 0 96.5 -11.5
t80 -35.5t55 -61.5t20.5 -89.5q0 -63 -21 -108.5t-57.5 -77t-84 -51t-101 -30.5t-108.5 -15t-106 -5q-4 -32 -7.5 -65t-6.5 -65q66 12 118.5 19t100.5 7q38 0 70 -9t55.5 -28.5t36.5 -49t13 -69.5q0 -57 -18 -98.5t-50 -69.5t-76.5 -41.5t-97.5 -13.5q-17 0 -31.5 1t-37.5 4
q-37 -8 -80 -16t-110 -19l-293 -48q2 -10 3 -21t1 -22q0 -44 -15.5 -83t-42.5 -68t-63 -46t-76 -17q-30 0 -58 9q21 42 33 84t12 84q0 24 -4.5 49.5t-13.5 49.5l429 72q-9 13 -12.5 31.5t-1.5 35.5l18 183.5l21 207.5q-35 -5 -71.5 -8t-71.5 -3q-53 0 -104 11.5t-91 36.5
t-64.5 65t-24.5 98q0 57 19.5 99t53 72.5t78 50.5t94.5 31.5t102 16t101 4.5h12h9t10 -1zM535 1024q-60 0 -112.5 -8t-91.5 -29.5t-61.5 -59t-22.5 -96.5q0 -81 46 -123.5t134 -42.5q16 0 33.5 1.5t34.5 3.5zM792 1034q-17 0 -33 -0.5t-42 -2.5l-38 -351q61 3 113.5 13.5
t91 33t60.5 59t22 92.5q0 78 -46.5 117t-127.5 39zM648 373q-2 -19 -3 -36.5t-1 -33.5q0 -24 4 -44.5t15.5 -35.5t32 -23t52.5 -8q30 0 53.5 12t39 33t23.5 49t8 60q0 54 -30 77t-78 23q-23 0 -48.5 -2t-61.5 -7z" />
    <glyph glyph-name="uni124D" unicode="&#x124d;" horiz-adv-x="1795" 
d="M524 1053q3 24 6 42.5t5.5 35.5t5.5 35.5t6 41.5l2 16.5t1 17.5q0 24 -9.5 43.5t-39.5 22.5v37q25 6 52 11t51.5 9t44.5 6t32 2q38 0 50 -19.5t12 -45.5q0 -11 -1 -22t-3 -21q-5 -30 -8.5 -54l-7 -47.5l-7 -48.5l-7.5 -55q42 6 84 10.5t87 4.5q48 0 91.5 -12t77 -37.5
t53.5 -64.5t20 -93l197 7l4.5 50.5t4.5 54.5q1 8 1.5 15.5t0.5 15.5q0 26 -9.5 45.5t-43.5 23.5v37q25 6 52 11t52 9t45.5 6t32.5 2q38 0 51 -19.5t13 -45.5q0 -22 -3 -43q-4 -30 -8 -71.5t-9 -84.5l227 8q-11 -26 -17 -58.5t-6 -64.5q0 -42 14 -80t49 -62l-1 -16
q-45 -17 -90 -17q-47 0 -82 17.5t-58 48t-34 72.5t-9 91l-380 -12q-14 -80 -61.5 -129t-113.5 -76t-143.5 -37t-151.5 -11l-12.5 -102l-12.5 -108.5l-11.5 -107l-10.5 -98.5q-1 -8 -1.5 -17.5t-0.5 -18.5q0 -25 10 -44t43 -19v-37q-25 -6 -51 -11t-50 -9t-43.5 -6t-30.5 -2
q-42 0 -57 23.5t-15 55.5q0 8 0.5 14.5t1.5 14.5l12.5 110.5l13.5 119.5l14 121.5l14 116.5q-34 -5 -70.5 -8t-70.5 -3q-50 0 -99 11t-87.5 36t-62.5 65t-24 99q0 63 20 110t53.5 80.5t78.5 55.5t95 34.5t102 17.5t100 5h11h9t10 -1zM516 996q-60 0 -112.5 -9t-91.5 -33
t-61.5 -66t-22.5 -107q0 -88 45.5 -130.5t127.5 -42.5q14 0 31.5 1t34.5 3zM653 615q60 3 112 15.5t90.5 39t60 68.5t21.5 104q0 78 -44 120t-122 42q-16 0 -31 -0.5t-39 -2.5z" />
    <glyph glyph-name="uni1250" unicode="&#x1250;" horiz-adv-x="1154" 
d="M739 1351q10 -20 14 -41t4 -44q0 -13 -1.5 -26t-2.5 -20l-7.5 -49l-7 -44.5l-7.5 -47.5l-9 -58q43 6 85 10.5t87 4.5q51 0 96 -11.5t78 -35.5t52 -62t19 -92q0 -64 -21.5 -111t-58 -80t-85 -54t-102.5 -33t-111 -17t-110 -6l-14.5 -102l-14.5 -106.5l-13 -101t-10 -85.5
q-1 -7 -1.5 -14t-0.5 -15q0 -13 2.5 -25.5t8.5 -22.5t17 -16t28 -6l1 -37q-25 -6 -51 -11t-49.5 -9t-42.5 -6t-31 -2q-42 0 -58 24t-16 56q0 7 0.5 14t1.5 14q5 43 12 95.5l14.5 109.5l16 116l16.5 114q-35 -6 -70.5 -9.5t-70.5 -3.5q-53 0 -103 11t-88.5 35.5t-62 64
t-23.5 96.5q0 62 23.5 108t63 78.5t90.5 53.5t105.5 33.5t108.5 17.5t99 6q4 27 7.5 46.5l6.5 37.5l6 35.5t6 40.5q2 12 4.5 34t2.5 45q0 21 -4 44.5t-15 43.5l-225 -19q-11 -64 -70.5 -98t-165.5 -42l-3 16q23 32 35.5 65.5t12.5 65.5q0 38 -18.5 70.5t-57.5 53.5l1 16
q45 12 94 12q32 0 61 -6t51.5 -18.5t37 -32t18.5 -46.5l594 52q30 111 224 123l2 -17q-23 -63 -23 -108q0 -42 16.5 -77.5t53.5 -58.5l1 -16q-23 -5 -47.5 -8.5t-48.5 -3.5q-30 0 -58.5 6t-52.5 18.5t-40.5 33t-22.5 50.5zM531 952q-54 -2 -107.5 -13t-96 -35.5t-68.5 -65.5
t-26 -104q0 -78 45.5 -119.5t130.5 -41.5q16 0 32 2t34 5zM659 594q57 1 110 12.5t93.5 37t65 67t24.5 103.5q0 42 -14.5 71t-39.5 47t-58 26t-69 8q-14 0 -29 -1t-29 -3z" />
    <glyph glyph-name="uni1251" unicode="&#x1251;" horiz-adv-x="1172" 
d="M739 1351q10 -20 14 -41t4 -44q0 -13 -1.5 -26t-2.5 -20l-7.5 -49l-7 -44.5l-7.5 -47.5l-9 -58q43 6 85 10.5t87 4.5q51 0 96 -11.5t78 -35.5t52 -62t19 -92q0 -64 -21.5 -111t-58 -80t-85 -54t-102.5 -33t-111 -17t-110 -6q-8 -51 -15 -106t-15 -109l186 16
q9 28 27.5 48.5t43 34t53.5 20.5t60 8q15 0 29.5 -1t28.5 -3l1 -18q-20 -17 -30.5 -47.5t-10.5 -63.5q0 -36 15 -68t47 -44l1 -18q-44 -22 -101 -22t-103 29t-62 92l-192 -17q-5 -35 -8.5 -67.5l-6.5 -58.5q-1 -7 -1.5 -14t-0.5 -15q0 -13 2.5 -25.5t8.5 -22.5t17 -16t28 -6
l1 -37q-25 -6 -51 -11t-49.5 -9t-42.5 -6t-31 -2q-42 0 -58 24t-16 56q0 7 0.5 14t1.5 14q5 43 12 95.5l14.5 109.5l16 116l16.5 114q-35 -6 -70.5 -9.5t-70.5 -3.5q-53 0 -103 11t-88.5 35.5t-62 64t-23.5 96.5q0 62 23.5 108t63 78.5t90.5 53.5t105.5 33.5t108.5 17.5
t99 6q4 27 7.5 46.5l6.5 37.5l6 35.5t6 40.5q2 12 4.5 34t2.5 45q0 21 -4 44.5t-15 43.5l-225 -19q-11 -64 -70.5 -98t-165.5 -42l-3 16q23 32 35.5 65.5t12.5 65.5q0 38 -18.5 70.5t-57.5 53.5l1 16q45 12 94 12q32 0 61 -6t51.5 -18.5t37 -32t18.5 -46.5l594 52
q30 111 224 123l2 -17q-23 -63 -23 -108q0 -42 16.5 -77.5t53.5 -58.5l1 -16q-23 -5 -47.5 -8.5t-48.5 -3.5q-30 0 -58.5 6t-52.5 18.5t-40.5 33t-22.5 50.5zM531 952q-54 -2 -107.5 -12.5t-96 -35.5t-68.5 -65.5t-26 -102.5q0 -79 45.5 -121t130.5 -42q16 0 32 2t34 5z
M659 594q57 1 110 12.5t93.5 37t65 67t24.5 103.5q0 42 -14.5 71t-39.5 47t-58 26t-69 8q-14 0 -29 -1t-29 -3z" />
    <glyph glyph-name="uni1252" unicode="&#x1252;" horiz-adv-x="1168" 
d="M735 1351q10 -20 14 -41t4 -44q0 -13 -1.5 -26t-2.5 -20l-7.5 -49l-7 -44.5l-7.5 -47.5l-9 -58q43 6 85 10.5t87 4.5q51 0 96 -11.5t78 -35.5t52 -62t19 -92q0 -64 -21.5 -111t-58 -80t-85 -54t-102.5 -33t-111 -17t-110 -6l-13.5 -91l-15 -105t-14 -107.5t-10.5 -96.5
q-4 -39 9 -58t51 -19q49 0 92 3.5t95 9.5q29 117 223 127l3 -23q-16 -23 -24 -53.5t-8 -62.5q0 -43 16.5 -80.5t53.5 -55.5l-2 -22q-20 -5 -42 -7.5t-44 -2.5q-30 0 -59.5 5.5t-53.5 19t-41 37t-23 59.5q-59 -9 -114 -16t-102 -11.5t-85 -6.5t-63 -2q-42 0 -58 24t-16 56
q0 7 0.5 14t1.5 14q5 43 12 95.5l14.5 109.5l16 116l16.5 114q-35 -6 -70.5 -9.5t-70.5 -3.5q-53 0 -103 11t-88.5 35.5t-62 64t-23.5 96.5q0 62 23.5 108t63 78.5t90.5 53.5t105.5 33.5t108.5 17.5t99 6q4 27 7.5 46.5l6.5 37.5l6 35.5t6 40.5q2 12 4.5 34t2.5 45
q0 21 -4 44.5t-15 43.5l-225 -19q-11 -64 -70.5 -98t-165.5 -42l-3 16q23 32 35.5 65.5t12.5 65.5q0 38 -18.5 70.5t-57.5 53.5l1 16q45 12 94 12q32 0 61 -6t51.5 -18.5t37 -32t18.5 -46.5l594 52q30 111 224 123l2 -17q-23 -63 -23 -108q0 -42 16.5 -77.5t53.5 -58.5
l1 -16q-23 -5 -47.5 -8.5t-48.5 -3.5q-30 0 -58.5 6t-52.5 18.5t-40.5 33t-22.5 50.5zM527 952q-54 -2 -107.5 -13t-96 -35.5t-68.5 -65.5t-26 -104q0 -78 45.5 -119.5t130.5 -41.5q16 0 32 2t34 5zM655 594q57 1 110 12.5t93.5 37t65 67t24.5 103.5q0 42 -14.5 71t-39.5 47
t-58 26t-69 8q-14 0 -29 -1t-29 -3z" />
    <glyph glyph-name="uni1253" unicode="&#x1253;" horiz-adv-x="1377" 
d="M897 1281q10 -20 14 -48.5t4 -54.5l1 -208q42 6 83 10.5t86 4.5q55 0 105.5 -13.5t88.5 -40.5t60.5 -69t22.5 -99q0 -56 -19.5 -97t-52.5 -69.5t-77 -46.5t-94 -28t-102 -14t-102 -5h-1q-7 -98 -46.5 -164t-98 -108.5t-128.5 -65.5t-137.5 -34t-126 -13.5t-93.5 -4.5
q3 -24 3 -46q0 -53 -13.5 -94t-38.5 -69.5t-59 -43t-75 -14.5q-19 0 -39 3.5t-41 9.5q30 45 44 93t14 99q0 58 -13 101l5 8l159 10t148 16t131 30.5t107 54.5t75.5 87.5t37.5 128.5q-35 -6 -69 -9.5t-69 -3.5q-57 0 -113 12.5t-100 39.5t-71 70t-27 105q0 53 21.5 92.5
t57.5 67.5t82.5 46t96.5 28.5t100 15.5t92 7v206q0 10 -0.5 24t-3 28t-6 27.5t-9.5 22.5l-218 -18q-11 -64 -70.5 -98t-165.5 -42l-3 16q23 32 35.5 65.5t12.5 65.5q0 38 -18.5 70.5t-57.5 53.5l1 16q45 12 94 12q32 0 61 -6t51.5 -18.5t37 -32t18.5 -46.5l594 52
q30 111 224 123l2 -17q-23 -63 -23 -108q0 -42 16.5 -77.5t53.5 -58.5l1 -16q-23 -5 -47.5 -8.5t-48.5 -3.5q-30 0 -58.5 6t-52.5 18.5t-40.5 33t-22.5 50.5zM731 901q-51 -2 -99.5 -11.5t-86.5 -30.5t-61 -54.5t-23 -82.5q0 -88 54.5 -134t148.5 -46q16 0 32 2t34 5z
M915 563q55 0 103 10.5t83.5 33t55.5 58.5t20 86q0 42 -16 73t-43.5 51t-65 30t-79.5 10q-14 0 -29 -1t-29 -3v-348z" />
    <glyph glyph-name="uni1254" unicode="&#x1254;" horiz-adv-x="1164" 
d="M739 1351q10 -20 14 -41t4 -44q0 -13 -1.5 -26t-2.5 -20l-7.5 -49l-7 -44.5l-7.5 -47.5l-9 -58q43 6 85 10.5t87 4.5q51 0 96 -11.5t78 -35.5t52 -62t19 -92q0 -64 -21.5 -111t-58 -80t-85 -54t-102.5 -33t-111 -17t-110 -6q-7 -43 -13 -87l-13 -92q73 12 137 19.5
t116 7.5q78 0 123.5 -33t45.5 -105q0 -59 -21 -103t-57.5 -72.5t-86 -42.5t-106.5 -14q-17 0 -33 1.5t-39 4.5q-24 -5 -56.5 -11l-65 -11.5t-61.5 -9t-47 -3.5q-40 0 -54 21.5t-14 51.5q0 7 0.5 13t1.5 14q5 43 12 95.5l14.5 109.5l16 116l16.5 114q-35 -6 -70.5 -9.5
t-70.5 -3.5q-53 0 -103 11t-88.5 35.5t-62 64t-23.5 96.5q0 62 23.5 108t63 78.5t90.5 53.5t105.5 33.5t108.5 17.5t99 6q4 27 7.5 46.5l6.5 37.5l6 35.5t6 40.5q2 12 4.5 34t2.5 45q0 21 -4 44.5t-15 43.5l-225 -19q-11 -64 -70.5 -98t-165.5 -42l-3 16q23 32 35.5 65.5
t12.5 65.5q0 38 -18.5 70.5t-57.5 53.5l1 16q45 12 94 12q32 0 61 -6t51.5 -18.5t37 -32t18.5 -46.5l594 52q30 111 224 123l2 -17q-23 -63 -23 -108q0 -42 16.5 -77.5t53.5 -58.5l1 -16q-23 -5 -47.5 -8.5t-48.5 -3.5q-30 0 -58.5 6t-52.5 18.5t-40.5 33t-22.5 50.5z
M531 952q-54 -2 -107.5 -12.5t-96 -35.5t-68.5 -65.5t-26 -102.5q0 -79 45.5 -121t130.5 -42q16 0 32 2t34 5zM659 594q57 1 110 12.5t93.5 37t65 67t24.5 103.5q0 42 -14.5 71t-39.5 47t-58 26t-69 8q-14 0 -29 -1t-29 -3zM610 242l-5.5 -41.5t-2.5 -35.5q-1 -26 3 -44.5
t16 -30.5t33.5 -18t56.5 -6q36 0 64.5 13t48 35t30 51.5t10.5 62.5q0 45 -27.5 64.5t-78.5 19.5q-26 0 -62 -2.5t-79 -7.5z" />
    <glyph glyph-name="uni1255" unicode="&#x1255;" horiz-adv-x="1162" 
d="M725 912q43 6 85 10.5t87 4.5q51 0 96 -11.5t78 -35.5t52 -62t19 -92q0 -64 -21.5 -111t-58 -80t-85 -54t-102.5 -33t-111 -17t-110 -6l-15 -104t-15 -111l-13.5 -105.5t-10.5 -88.5q-1 -7 -1.5 -14t-0.5 -15q0 -13 2.5 -25.5t8.5 -22.5t17 -16t28 -6l1 -37
q-25 -6 -51 -11t-50 -9t-43.5 -6t-30.5 -2q-42 0 -58 24t-16 56q0 7 0.5 14t1.5 14q5 43 12 97.5t15.5 114.5l17 121l16.5 116q-35 -6 -70.5 -9.5t-70.5 -3.5q-53 0 -103 11t-88.5 35.5t-62 64t-23.5 96.5q0 62 23.5 108t63 78.5t90.5 53.5t105.5 33.5t108.5 17.5t99 6
l19.5 123l19.5 118l-173 -15l-5 4l6.5 45.5t8 53.5l9 57t9.5 56t6.5 50t1.5 40l-183 -17q-11 -64 -70.5 -98t-165.5 -42l-3 16q23 32 35.5 65.5t12.5 65.5q0 38 -18.5 70.5t-57.5 53.5l1 16q45 12 94 12q32 0 61 -6t51.5 -18.5t37 -32t18.5 -46.5l596 55q30 111 224 123
l2 -17q-23 -63 -23 -108q0 -42 16.5 -77.5t53.5 -58.5l1 -16q-23 -5 -47.5 -8.5t-48.5 -3.5q-30 0 -58.5 6t-52.5 18.5t-40.5 33t-22.5 50.5l-229 -20q0 -17 -1 -39t-6 -48l-16 -93.5t-13 -82.5l174 16l6 -5q-11 -69 -23.5 -139t-22.5 -145zM533 843q-54 -2 -107.5 -13
t-96 -35.5t-68.5 -65.5t-26 -104q0 -78 45.5 -119.5t130.5 -41.5q16 0 32 2t34 5zM662 485q57 1 110 12.5t93.5 37t65 67t24.5 103.5q0 42 -14.5 71t-39.5 47t-58 26t-69 8q-14 0 -29 -1t-29 -3z" />
    <glyph glyph-name="uni1256" unicode="&#x1256;" horiz-adv-x="1127" 
d="M725 1437l-9 -89q41 -1 79.5 -12t68 -32.5t47 -54t17.5 -77.5q0 -64 -22.5 -111.5t-60.5 -84t-87.5 -65t-103.5 -53.5q4 -9 5.5 -18t2.5 -19q42 8 87 15.5t90 7.5q51 0 97 -11.5t80.5 -36.5t55 -64t20.5 -94q0 -90 -43 -145.5t-110 -85.5t-147 -40t-154 -10h-19
q-1 -12 -2 -25.5t-3 -28.5l-5 -59l-4 -56.5t-3 -48.5q-2 -18 0 -36q2 -26 14.5 -44t44.5 -19l2 -37q-25 -6 -50 -11t-47.5 -9t-40.5 -6t-30 -2q-42 0 -59 21.5t-19 55.5q-2 14 0 31q1 15 3 42.5t5 62t7 72l8 72.5v4q-29 -6 -61.5 -9.5t-66.5 -3.5q-51 0 -101.5 10
t-90.5 33.5t-65 62.5t-25 98q0 52 20 92t54 70.5t78.5 52.5t92.5 38t97.5 27.5t92.5 20.5q-14 23 -34.5 50t-39.5 58t-32 67.5t-13 78.5q0 45 15.5 82.5t42.5 67t62.5 51.5t76.5 36l10 104l-245 -21q-11 -64 -70.5 -98t-165.5 -42l-3 16q23 32 35.5 65.5t12.5 65.5
q0 38 -18.5 70.5t-57.5 53.5l1 16q45 12 94 12q32 0 61 -6t51.5 -18.5t37 -32t18.5 -46.5l655 58q30 111 224 123l2 -17q-23 -63 -23 -108q0 -42 16.5 -77.5t53.5 -58.5l1 -16q-23 -5 -47.5 -8.5t-48.5 -3.5q-30 0 -58.5 6t-52.5 18.5t-40.5 33t-22.5 50.5zM732 773
q-17 0 -33 -2t-39 -7l-35 -347h15q55 0 104 10.5t85 34t57 61t21 91.5q0 78 -48 118.5t-127 40.5zM484 777q-56 -9 -105 -25.5t-86.5 -44t-59 -67.5t-21.5 -95q0 -78 46.5 -116t131.5 -38q11 0 24.5 1t30.5 4zM630 906q34 22 59 44t41 48.5t23.5 58.5t7.5 74q0 30 -6.5 55.5
t-21 44.5t-37 30t-55.5 11q-28 0 -52 -7.5t-42 -22.5t-28 -36t-10 -48q0 -33 12 -67t30.5 -67t39.5 -63z" />
    <glyph glyph-name="uni1258" unicode="&#x1258;" horiz-adv-x="1278" 
d="M546 1056l5.5 34t5 28t4.5 25t4 26q3 18 5.5 41.5t2.5 48.5q0 20 -2 40t-8 37l-225 -19q-11 -64 -70.5 -98t-165.5 -42l-3 16q23 32 35.5 65.5t12.5 65.5q0 38 -18.5 70.5t-57.5 53.5l1 16q45 12 94 12q32 0 61 -6t51.5 -18.5t37 -32t18.5 -46.5l590 52q30 111 224 123
l2 -17q-23 -63 -23 -108q0 -42 16.5 -77.5t53.5 -58.5l1 -16q-23 -5 -47.5 -8.5t-48.5 -3.5q-30 0 -58.5 6t-52.5 18.5t-40.5 33t-22.5 50.5l-179 -16q9 -45 9 -79q0 -14 -1.5 -26.5t-3.5 -25.5q-3 -21 -5.5 -36l-5 -30.5l-5.5 -35.5t-8 -50q43 6 85 10.5t87 4.5
q51 0 96 -11.5t78 -35.5t52 -62t19 -92q0 -64 -21.5 -111t-58 -80t-85 -54t-102.5 -33t-111 -17t-110 -6q-5 -32 -10 -70t-11 -78q73 4 120 7.5t78 7t51.5 7t41.5 7.5l58.5 11t61.5 5q88 0 139 -44t51 -135q0 -33 -12.5 -69t-34.5 -66.5t-52.5 -50t-65.5 -19.5
q-19 0 -45.5 3.5t-46.5 3.5q-16 0 -33.5 -3t-34.5 -6.5l-32.5 -6.5t-25.5 -3q-28 0 -51.5 14t-40.5 35.5t-26.5 47.5t-9.5 50q0 32 10 75t30 81l-137 -7q-10 -69 -18 -133l-13 -106q-1 -7 -1.5 -14t-0.5 -15q0 -13 2.5 -25.5t8.5 -22.5t17 -16t28 -6l1 -37q-25 -6 -51 -11
t-49.5 -9t-42.5 -6t-31 -2q-42 0 -58 24t-16 56q0 7 0.5 14t1.5 14q5 43 13 103l17 126l18.5 132l17.5 121q-35 -6 -70.5 -9.5t-70.5 -3.5q-53 0 -103 11t-88.5 35.5t-62 64t-23.5 96.5q0 62 23.5 108t63 78.5t90.5 53.5t105.5 33.5t108.5 17.5t99 6zM538 999
q-54 -2 -107.5 -13t-96 -35.5t-68.5 -65.5t-26 -104q0 -78 45.5 -119.5t130.5 -41.5q16 0 32 2t34 5zM666 641q57 1 110 12.5t93.5 37t65 67t24.5 103.5q0 42 -14.5 71t-39.5 47t-58 26t-69 8q-14 0 -29 -1t-29 -3zM973 154q27 0 47.5 13t35 34t22 48t7.5 54q0 51 -22 81.5
t-65 30.5q-32 0 -54 -10.5t-35.5 -29.5t-19.5 -44t-6 -54q0 -23 5.5 -45.5t16.5 -39.5t28 -27.5t40 -10.5z" />
    <glyph glyph-name="uni125A" unicode="&#x125a;" horiz-adv-x="1854" 
d="M539 1009q4 27 7.5 46.5l6.5 37.5l6 35.5t6 40.5q3 18 5.5 41.5t2.5 48.5q0 20 -2 40t-8 37l-225 -19q-11 -64 -70.5 -98t-165.5 -42l-3 16q23 32 35.5 65.5t12.5 65.5q0 38 -18.5 70.5t-57.5 53.5l1 16q45 12 94 12q32 0 61 -6t51.5 -18.5t37 -32t18.5 -46.5l590 52
q30 111 224 123l2 -17q-23 -63 -23 -108q0 -42 16.5 -77.5t53.5 -58.5l1 -16q-23 -5 -47.5 -8.5t-48.5 -3.5q-30 0 -58.5 6t-52.5 18.5t-40.5 33t-22.5 50.5l-179 -16q9 -45 9 -79q0 -14 -1.5 -26.5t-3.5 -25.5l-7.5 -49l-7 -44.5l-7.5 -47.5l-9 -58q43 6 85 10.5t87 4.5
q49 0 93 -10.5t77 -33.5t53 -59t22 -87l182 6l11 41.5t10 41.5l3.5 20t1.5 17q0 23 -11 41.5t-40 21.5v37q25 6 52.5 11t53 9t46 6t32.5 2q38 0 51 -19.5t13 -45.5q0 -11 -2 -21.5l-4 -21.5q-8 -31 -16.5 -68.5l-17 -77l-17 -78l-15.5 -70.5l322 8q-11 -26 -17 -58.5
t-6 -64.5q0 -42 14 -80t49 -62l-1 -16q-45 -17 -90 -17q-47 0 -82 17.5t-58 48t-34 73t-9 92.5q-27 -1 -49.5 -2t-44 -1.5t-43.5 -0.5h-49t-43.5 5.5t-26 14.5t-12.5 21t-3 25q0 11 2 21.5l4 21.5l11 48l-171 -6q-8 -53 -33.5 -92t-62.5 -67t-84 -45.5t-98 -27.5t-104 -14.5
t-102 -5.5l-14.5 -102l-14.5 -106.5l-13 -101t-10 -85.5q-1 -7 -1.5 -14t-0.5 -15q0 -13 2.5 -25.5t8.5 -22.5t17 -16t28 -6l1 -37q-25 -6 -51 -11t-49.5 -9t-42.5 -6t-31 -2q-42 0 -58 24t-16 56q0 7 0.5 14t1.5 14q5 43 12 95.5l14.5 109.5l16 116l16.5 114
q-35 -6 -70.5 -9.5t-70.5 -3.5q-53 0 -103 11t-88.5 35.5t-62 64t-23.5 96.5q0 62 23.5 108t63 78.5t90.5 53.5t105.5 33.5t108.5 17.5t99 6zM531 952q-54 -2 -107.5 -13t-96 -35.5t-68.5 -65.5t-26 -104q0 -78 45.5 -119.5t130.5 -41.5q16 0 32 2t34 5zM659 594
q57 1 110 12.5t93.5 37t65 67t24.5 103.5q0 42 -14.5 71t-39.5 47t-58 26t-69 8q-14 0 -29 -1t-29 -3z" />
    <glyph glyph-name="uni125B" unicode="&#x125b;" horiz-adv-x="1169" 
d="M764 1407l-38 -257q43 6 85.5 10.5t87.5 4.5q51 0 96 -11.5t78 -35.5t52 -62t19 -92q0 -64 -21.5 -111t-58 -80t-85 -54t-102.5 -33t-111 -17t-110 -6l-37 -266q9 1 18 1h18h36q22 0 46.5 -0.5t49.5 -1.5t48 -2.5t42 -3.5q48 -5 48 -57q0 -23 -2.5 -62.5t-2.5 -96.5
q0 -64 9.5 -94.5t41.5 -32.5v-37q-52 -12 -98.5 -19t-70.5 -7q-21 0 -34 6t-19.5 19t-8.5 33t-2 49v35q0 15 0.5 27.5t0.5 24.5v30q0 38 -1 67t-5 34q-6 10 -22.5 15.5t-40 8.5t-52 4t-56.5 1q-76 0 -138 -4t-92 -8q0 -53 -17 -95.5t-49 -72t-78 -44.5t-103 -12l-6 14
q29 40 41 76t12 74q0 22 -3.5 45t-9.5 49q79 11 158 18.5t158 12.5l38 260q-35 -6 -70.5 -9.5t-70.5 -3.5q-53 0 -103 11t-88.5 35.5t-62 64t-23.5 96.5q0 62 23.5 108t63 78.5t90.5 53.5t105.5 33.5t108.5 17.5t99 6l38 250l-230 -19q-23 -126 -236 -142l-3 16
q23 32 35.5 65.5t12.5 65.5q0 38 -18.5 70.5t-57.5 53.5l1 16q45 12 94 12q32 0 61 -6t51.5 -18.5t37 -32t18.5 -46.5l594 52q30 111 224 123l2 -17q-23 -63 -23 -108q0 -42 16.5 -77.5t53.5 -58.5l1 -16q-23 -5 -47.5 -8.5t-48.5 -3.5q-30 0 -58.5 6t-52.5 19.5t-40.5 34
t-22.5 50.5zM537 1085q-54 -2 -107.5 -13t-96 -35.5t-68.5 -65.5t-26 -104q0 -78 45.5 -119.5t130.5 -41.5q16 0 32 2t34 5zM664 723q57 1 110 12.5t93.5 37t65 67t24.5 103.5q0 42 -14.5 71t-39.5 47t-58 26t-69 8q-14 0 -29 -1t-29 -3z" />
    <glyph glyph-name="uni125C" unicode="&#x125c;" horiz-adv-x="1176" 
d="M754 1354q-3 -30 -7.5 -69l-9 -77l-8 -70t-4.5 -48q42 6 85.5 10.5t88.5 4.5q51 0 96.5 -11.5t80 -35.5t55 -61.5t20.5 -89.5q0 -63 -21 -108.5t-57.5 -77t-84 -51t-101 -30.5t-108.5 -15t-106 -5l-4 -32q-2 -20 -4 -37.5t-4 -44.5q69 12 122 19t101 7q38 0 70.5 -9
t56 -27.5t37 -47t13.5 -67.5q0 -55 -18.5 -95.5t-51 -67t-77.5 -39.5t-99 -13q-17 0 -32 1t-38 4q-37 -8 -80 -16t-110 -19l-293 -48q2 -10 3 -21t1 -22q0 -44 -15.5 -83t-42.5 -68t-63 -46t-76 -17q-30 0 -58 9q21 42 33 84t12 84q0 24 -4.5 49.5t-13.5 49.5l429 72
q-9 13 -12.5 31.5t-1.5 35.5q7 83 16 169l20 193q-35 -10 -71.5 -15.5t-71.5 -5.5q-53 0 -104 11.5t-91 36.5t-64.5 65t-24.5 98q0 60 22 104.5t59 76t85.5 51.5t101.5 31.5t107.5 15.5t103.5 4q1 13 5 48l8.5 75.5l9 78t6.5 56.5l-226 -19q-11 -64 -70.5 -98t-165.5 -42
l-3 16q23 32 35.5 65.5t12.5 65.5q0 38 -18.5 70.5t-57.5 53.5l1 16q45 12 94 12q32 0 61 -6t51.5 -18.5t37 -32t18.5 -46.5l590 52q30 111 224 123l2 -17q-23 -63 -23 -108q0 -42 16.5 -77.5t53.5 -58.5l1 -16q-23 -5 -47.5 -8.5t-48.5 -3.5q-30 0 -58.5 6t-52.5 18.5
t-40.5 33t-22.5 50.5zM535 1024q-60 0 -112.5 -9.5t-91.5 -33t-61.5 -62.5t-22.5 -98q0 -81 46 -123.5t134 -42.5q16 0 34 3t34 9q11 91 20 181.5t20 175.5zM792 1034q-17 0 -33 -0.5t-42 -2.5l-19 -174l-19 -177q61 3 113.5 13.5t91 33t60.5 59t22 92.5q0 78 -46.5 117
t-127.5 39zM650 392q-2 -17 -3 -34t-1 -32q0 -23 4 -42t16 -33t33 -22t54 -8q31 0 55 11.5t40 31.5t24 46.5t8 56.5q0 51 -31 73t-79 22q-23 0 -49.5 -2t-64.5 -7z" />
    <glyph glyph-name="uni125D" unicode="&#x125d;" horiz-adv-x="1780" 
d="M344 1316q-11 -64 -70.5 -98t-165.5 -42l-3 16q23 32 35.5 65.5t12.5 65.5q0 38 -18.5 70.5t-57.5 53.5l1 16q45 12 94 12q32 0 61 -6t51.5 -18.5t37 -32t18.5 -46.5l590 52q30 111 224 123l2 -17q-23 -66 -23 -108t16.5 -77.5t53.5 -58.5l1 -16q-23 -5 -47.5 -8.5
t-48.5 -3.5q-30 0 -58.5 6t-52.5 18.5t-40.5 33t-22.5 50.5l-189 -17l-33 -301q42 6 83.5 10.5t86.5 4.5q51 0 96 -12t79 -38t54.5 -66t21.5 -97l175 9q2 23 5 53t5 57q1 8 1.5 15.5t0.5 15.5q0 26 -9.5 45.5t-43.5 23.5v37q25 6 52 11t52 9t45.5 6t32.5 2q38 0 51 -19.5
t13 -45.5q0 -22 -3 -43q-4 -30 -8 -72.5t-9 -85.5l227 10q-11 -26 -17 -58.5t-6 -64.5q0 -42 14 -80t49 -62l-1 -16q-48 -17 -90 -17q-45 0 -79 16t-57 44t-35 67t-12 85v17l-358 -17q-9 -48 -34 -83.5t-61.5 -61t-82 -42.5t-94.5 -26.5t-100 -13.5t-98 -4l-23 -214
t-20 -208q-1 -7 -1.5 -14t-0.5 -15q0 -13 2.5 -25.5t8.5 -22.5t17 -16t28 -6l1 -37q-25 -6 -51 -11t-49.5 -9t-42.5 -6t-31 -2q-42 0 -58 24t-16 56q0 7 0.5 14t1.5 14l22.5 227.5t24.5 233.5q-69 -12 -138 -12q-55 0 -106 11.5t-90.5 37.5t-63.5 67t-24 101q0 59 23 103.5
t60.5 76t87 52t102.5 32.5t106 17t98 6q9 76 17 150.5l16 147.5zM413 600q29 0 65 6l20.5 186.5l21.5 186.5q-54 -2 -106 -13t-92.5 -35t-65 -63.5t-24.5 -98.5q0 -81 46.5 -125t134.5 -44zM762 993q-14 0 -28.5 -1t-28.5 -3l-21 -184l-20 -184q55 1 106.5 12t91 35.5
t63 64.5t23.5 99q0 44 -15 74.5t-40.5 50t-59.5 28t-71 8.5z" />
    <glyph glyph-name="uni1260" unicode="&#x1260;" horiz-adv-x="1047" 
d="M980 15q-9 -3 -38 -8l-63 -10.5t-66 -9t-48 -3.5q-15 0 -22.5 9.5t-12.5 26.5q-8 27 -13 69t-7.5 84.5t-3 79t-0.5 53.5q0 84 2.5 171.5t5.5 166l5.5 142.5t2.5 100q0 59 -6.5 115t-25 99.5t-51.5 70t-86 26.5q-64 0 -108 -38.5t-72.5 -100.5t-44 -140t-22.5 -155.5
t-8.5 -147.5t-1.5 -117q0 -31 0.5 -78t2.5 -97t6.5 -95.5t12.5 -73.5q14 -45 36 -65t59 -28l-2 -37q-9 -4 -38 -11t-64 -13.5t-69.5 -11t-54.5 -4.5q-15 0 -26.5 6t-19.5 30q-10 32 -17.5 80.5t-13 102.5t-8 108t-2.5 97q0 92 4 193t19 198t46 184.5t85 153.5t135 105
t197 39q102 0 167 -32t101.5 -87t50 -128.5t13.5 -157.5q0 -50 -2.5 -105.5t-6 -121t-6 -143.5t-2.5 -174q0 -71 1.5 -120.5t9 -82.5t24.5 -51t48 -26z" />
    <glyph glyph-name="uni1261" unicode="&#x1261;" horiz-adv-x="1437" 
d="M980 15q-9 -3 -38 -8l-63 -10.5t-66 -9t-48 -3.5q-15 0 -22.5 9.5t-12.5 26.5q-8 27 -13 69t-7.5 84.5t-3 79t-0.5 53.5q0 84 2.5 171.5t5.5 166l5.5 142.5t2.5 100q0 59 -6.5 115t-25 99.5t-51.5 70t-86 26.5q-64 0 -108 -38.5t-72.5 -100.5t-44 -140t-22.5 -155.5
t-8.5 -147.5t-1.5 -117q0 -31 0.5 -78t2.5 -97t6.5 -95.5t12.5 -73.5q14 -45 36 -65t59 -28l-2 -37q-9 -4 -38 -11t-64 -13.5t-69.5 -11t-54.5 -4.5q-15 0 -26.5 6t-19.5 30q-10 32 -17.5 80.5t-13 102.5t-8 108t-2.5 97q0 92 4 193t19 198t46 184.5t85 153.5t135 105
t197 39q102 0 167 -32t101.5 -87t50 -128.5t13.5 -157.5q0 -29 -1 -59.5t-3 -63.5l229 10q10 30 30.5 51t47 34t57 19t61.5 6q15 0 29.5 -1.5t28.5 -3.5l1 -18q-20 -16 -32 -47.5t-12 -66.5t14 -65.5t46 -44.5v-18q-57 -18 -104 -18q-66 0 -110 31.5t-61 86.5l-227 -11
q-4 -75 -7.5 -162.5t-3.5 -202.5q0 -71 1.5 -120.5t9 -82.5t24.5 -51t48 -26z" />
    <glyph glyph-name="uni1262" unicode="&#x1262;" horiz-adv-x="1438" 
d="M411 24q-9 -4 -38 -11t-64 -13.5t-69.5 -11t-54.5 -4.5q-15 0 -26.5 6t-19.5 30q-10 32 -17.5 80.5t-13 102.5t-8 108t-2.5 97q0 92 4 193t19 198t46 184.5t85 153.5t135 105t197 39q102 0 167 -32t101.5 -87t50 -128.5t13.5 -157.5q0 -50 -2.5 -105.5t-6 -121t-6 -143.5
t-2.5 -174v-35q0 -64 2 -108.5t12 -73.5q6 -19 21 -26.5t50 -7.5q26 0 68.5 1.5t87.5 7.5q14 58 68.5 92t154.5 39l3 -23q-14 -19 -22 -47t-8 -60q0 -40 16.5 -77t55.5 -57l-2 -22q-20 -5 -42 -7.5t-44 -2.5q-30 0 -59 5.5t-53 18.5t-41 33t-23 49q-124 -23 -199.5 -31
t-110.5 -8q-60 0 -85 21.5t-30 56.5q-5 30 -7.5 65.5t-4 68.5t-1.5 60.5v41.5q0 84 2.5 171.5t5.5 166l5.5 142.5t2.5 100q0 59 -6.5 115t-25 99.5t-51.5 70t-86 26.5q-64 0 -108 -38.5t-72.5 -100.5t-44 -140t-22.5 -155.5t-8.5 -147.5t-1.5 -117q0 -31 0.5 -78t2.5 -97
t6.5 -95.5t12.5 -73.5q14 -45 36 -65t59 -28z" />
    <glyph glyph-name="uni1263" unicode="&#x1263;" horiz-adv-x="1039" 
d="M972 15q-9 -3 -38 -8l-63 -10.5t-66 -9t-48 -3.5q-15 0 -22.5 9.5t-12.5 26.5q-8 27 -13 69t-7.5 84.5t-3 79t-0.5 53.5q0 84 2.5 171.5t5.5 166l5.5 142.5t2.5 100q0 59 -6.5 115t-25 99.5t-51.5 70t-86 26.5q-57 0 -98 -30.5t-70 -78.5t-46 -106.5t-27 -114t-13 -102
t-3 -70.5v-54.5t2 -66.5t6 -65.5t12 -51.5q12 -32 31.5 -44t52.5 -17l-2 -37q-8 -4 -35.5 -10t-61 -12t-66 -10.5t-50.5 -4.5q-15 0 -26.5 4.5t-19.5 22.5q-10 23 -17.5 57t-13 72t-8 76.5t-2.5 70.5q0 37 3 100t17.5 136t44.5 147.5t84 135t136 99t201 38.5q102 0 167 -32
t101.5 -87t50 -128.5t13.5 -157.5q0 -50 -2.5 -105.5t-6 -121t-6 -143.5t-2.5 -174q0 -71 1.5 -120.5t9 -82.5t24.5 -51t48 -26z" />
    <glyph glyph-name="uni1264" unicode="&#x1264;" horiz-adv-x="1363" 
d="M1018 -7q-23 -5 -57.5 -10t-70 -9t-67.5 -6.5t-49 -2.5q-34 0 -44 37q-8 28 -12.5 70.5t-7 86t-3.5 81t-1 55.5q0 86 2.5 174t5.5 166.5l5.5 142t2.5 101.5q0 60 -6.5 117t-25 102t-51.5 72t-86 27q-64 0 -108 -38.5t-72.5 -100.5t-44 -140t-22.5 -155.5t-8.5 -147.5
t-1.5 -117q0 -31 0.5 -78t2.5 -97t6.5 -95.5t12.5 -73.5q14 -45 36 -65t59 -28l-2 -37q-9 -4 -38 -11t-64 -13.5t-69.5 -11t-54.5 -4.5q-15 0 -26.5 6t-19.5 30q-10 32 -17.5 80.5t-13 102.5t-8 108t-2.5 97q0 92 4 193t19 198t46 184.5t85 153.5t135 105t197 39
q102 0 167 -32.5t101.5 -89t50 -132t13.5 -161.5q0 -51 -2.5 -104t-6 -115.5t-6 -138.5t-2.5 -172q70 14 129.5 22t110.5 8q88 0 136 -43t48 -131q0 -54 -18.5 -92t-49 -63t-71.5 -36.5t-86 -11.5q-19 0 -35.5 1t-44.5 3zM899 214q0 -44 3 -76.5t15 -54.5t35.5 -33t65.5 -11
q31 0 54 11t38 30t22 44t7 54q0 55 -25 87.5t-87 32.5q-26 0 -58 -4t-70 -11v-69z" />
    <glyph glyph-name="uni1265" unicode="&#x1265;" horiz-adv-x="1387" 
d="M1320 15q-9 -3 -37.5 -8t-63.5 -10.5t-69.5 -9t-54.5 -3.5q-15 0 -25 36q-8 27 -13 69t-7.5 84.5t-3 79t-0.5 53.5q0 84 2.5 171.5t5.5 166l5.5 142.5t2.5 100q0 59 -6.5 115t-25 99.5t-51.5 70t-86 26.5q-64 0 -108 -38.5t-72.5 -100.5t-44 -140t-22.5 -155.5
t-8.5 -147.5t-1.5 -117q0 -31 0.5 -78t2.5 -97t6.5 -95.5t12.5 -73.5q14 -45 36 -65t59 -28l-2 -37q-9 -4 -38 -11t-64 -13.5t-69.5 -11t-54.5 -4.5q-15 0 -26.5 6t-19.5 30q-10 32 -17.5 80.5t-13 102.5t-8 108t-2.5 97q0 85 3 173t14 179l-191 -25q15 -38 15 -74
q0 -33 -11 -61.5t-31.5 -50t-48.5 -34t-61 -12.5q-36 0 -60 10q10 32 16 59.5t6 53.5q0 31 -10 60.5t-34 62.5q1 5 1.5 8t0.5 4l417 58q16 94 47.5 178t85.5 147t134 100t193 37q102 0 167 -32t101.5 -87t50 -128.5t13.5 -157.5q0 -50 -2.5 -105.5t-6 -121t-6 -143.5
t-2.5 -174q0 -71 1.5 -120.5t9 -82.5t24.5 -51t48 -26z" />
    <glyph glyph-name="uni1266" unicode="&#x1266;" horiz-adv-x="1025" 
d="M968 323q-9 -3 -38 -8l-63 -10.5t-66 -9t-48 -3.5q-15 0 -22.5 7t-12.5 20q-8 20 -13 51t-7.5 62.5t-3 58.5t-0.5 40q0 63 2 121.5t4.5 109l4.5 91.5t2 68q0 43 -6 91.5t-23.5 88.5t-49 66.5t-83.5 26.5q-62 0 -104.5 -38.5t-70 -100.5t-43 -139.5t-22.5 -155t-8 -147
t-1 -115.5q0 -31 0.5 -78t2.5 -97t6.5 -95.5t12.5 -73.5q14 -45 36 -65t59 -28l-2 -37q-9 -4 -38 -11t-64 -13.5t-69.5 -11t-54.5 -4.5q-15 0 -26.5 6t-19.5 30q-10 32 -17.5 80.5t-13 102.5t-8 108t-2.5 97q0 92 3.5 193t19 198t45.5 184.5t83.5 153.5t133.5 105t194 39
q100 0 163.5 -30.5t99 -79.5t48.5 -110.5t13 -124.5q0 -37 -2 -71.5t-5 -75.5t-5 -93t-2 -124q0 -54 1.5 -91.5t9 -62.5t24.5 -38.5t48 -19.5z" />
    <glyph glyph-name="uni1267" unicode="&#x1267;" horiz-adv-x="1364" 
d="M1344 -153q-41 -16 -98 -16q-41 0 -77 12.5t-62 37.5t-41 62t-15 87l-562 -45q0 -122 -64 -182.5t-207 -60.5h-12t-13 1l-1 18q29 32 44 73.5t15 84.5q0 32 -14 79l-2 23l448 37q2 56 4 130t3.5 154t3.5 160.5t3 149.5t1.5 121t0.5 75q0 49 -4.5 104.5t-20.5 102
t-46.5 77t-82.5 30.5q-59 0 -101 -31.5t-70.5 -80.5t-45.5 -109.5t-26 -117.5t-11.5 -105t-2.5 -73v-53t2 -65.5t6 -65t12 -51.5q12 -32 31.5 -44t52.5 -17l-2 -37q-8 -4 -35.5 -10t-61 -12t-66 -10.5t-50.5 -4.5q-15 0 -26.5 4.5t-19.5 22.5q-10 23 -17.5 57t-13 72
t-8 76.5t-2.5 70.5q0 67 8 142.5t28 149.5t55.5 142t90.5 119.5t132.5 82t181.5 30.5q90 0 149 -33t94 -89t49.5 -129.5t14.5 -154.5q0 -33 -0.5 -84.5t-2 -115t-3 -136t-3.5 -146.5l-4 -146.5t-4 -135.5l422 36q-9 -39 -9 -80q0 -45 13 -89.5t40 -77.5z" />
    <glyph glyph-name="uni1268" unicode="&#x1268;" horiz-adv-x="1084" 
d="M999 15q-9 -3 -38 -8l-63 -10.5t-66 -9t-48 -3.5q-15 0 -23 9.5t-13 26.5q-7 22 -11 54.5t-6 66t-2.5 62t-0.5 42.5q0 66 2 135t4.5 130.5l4.5 111.5t2 79q0 48 -7.5 92.5t-25.5 78t-49 54t-77 20.5q-61 0 -104 -31.5t-71.5 -81t-45 -111t-24.5 -122t-10 -113.5t-2 -86
v-61q0 -26 0.5 -55.5t2 -57.5t5 -53t9.5 -41q12 -35 35 -50.5t60 -21.5l-2 -37q-9 -4 -38 -11t-64 -13.5t-69.5 -11t-54.5 -4.5q-15 0 -26.5 6t-19.5 30q-9 26 -16 65t-11.5 82t-6.5 86t-2 78q0 68 5 146.5t22 156.5t49.5 149.5t86.5 126.5t133 87.5t190 32.5
q96 0 158 -26.5t98.5 -71t51 -103t14.5 -121.5q0 -40 -2 -84t-5 -96t-5 -114.5t-2 -138.5v-29q0 -48 1.5 -82t9.5 -56.5t24 -35.5t45 -20zM1104 1159q-23 -5 -47.5 -8.5t-48.5 -3.5q-30 0 -58 6t-51.5 18.5t-39.5 33t-22 50.5l-537 -45q-11 -64 -72 -98t-167 -42l-3 16
q23 32 35.5 65.5t12.5 65.5q0 38 -18.5 70.5t-57.5 53.5l1 16q45 12 94 12q31 0 60.5 -6t52.5 -18.5t38.5 -32t19.5 -46.5l537 47q30 111 221 123l2 -17q-23 -63 -23 -108q0 -42 16.5 -77.5t53.5 -58.5z" />
    <glyph glyph-name="uni1269" unicode="&#x1269;" horiz-adv-x="1448" 
d="M999 15q-9 -3 -38 -8l-63 -10.5t-66 -9t-48 -3.5q-15 0 -23 9.5t-13 26.5q-7 22 -11 54.5t-6 66t-2.5 62t-0.5 42.5q0 66 2 135t4.5 130.5l4.5 111.5t2 79q0 48 -7.5 92.5t-25.5 78t-49 54t-77 20.5q-61 0 -104 -31.5t-71.5 -81t-45 -111t-24.5 -122t-10 -113.5t-2 -86
v-61q0 -26 0.5 -55.5t2 -57.5t5 -53t9.5 -41q12 -35 35 -50.5t60 -21.5l-2 -37q-9 -4 -38 -11t-64 -13.5t-69.5 -11t-54.5 -4.5q-15 0 -26.5 6t-19.5 30q-9 26 -16 65t-11.5 82t-6.5 86t-2 78q0 68 5 146.5t22 156.5t49.5 149.5t86.5 126.5t133 87.5t190 32.5
q96 0 158 -26.5t98.5 -71t51 -103t14.5 -121.5q0 -38 -2 -79.5t-5 -92.5l209 9q10 30 30.5 51t47 34t57 19t61.5 6q15 0 29.5 -1.5t28.5 -3.5l1 -18q-20 -16 -32 -47.5t-12 -66.5t14 -65.5t46 -44.5v-18q-57 -18 -104 -18q-66 0 -110 31.5t-61 86.5l-207 -10
q-2 -45 -3.5 -95t-1.5 -110v-29q0 -48 1.5 -82t9.5 -56.5t24 -35.5t45 -20zM1104 1159q-23 -5 -47.5 -8.5t-48.5 -3.5q-30 0 -58 6t-51.5 18.5t-39.5 33t-22 50.5l-537 -45q-11 -64 -72 -98t-167 -42l-3 16q23 32 35.5 65.5t12.5 65.5q0 38 -18.5 70.5t-57.5 53.5l1 16
q45 12 94 12q31 0 60.5 -6t52.5 -18.5t38.5 -32t19.5 -46.5l537 47q30 111 221 123l2 -17q-23 -63 -23 -108q0 -42 16.5 -77.5t53.5 -58.5z" />
    <glyph glyph-name="uni126A" unicode="&#x126a;" horiz-adv-x="1460" 
d="M729 306q1 60 3 119.5t4 112.5l3.5 95.5t1.5 67.5q0 48 -7.5 92.5t-25.5 78t-49 54t-77 20.5q-61 0 -104 -31.5t-71.5 -81t-45 -111t-24.5 -122t-10 -113.5t-2 -86v-61q0 -26 0.5 -55.5t2 -57.5t5 -53t9.5 -41q12 -35 35 -50.5t60 -21.5l-2 -37q-9 -4 -38 -11t-64 -13.5
t-69.5 -11t-54.5 -4.5q-15 0 -26.5 6t-19.5 30q-9 26 -16 65t-11.5 82t-6.5 86t-2 78q0 68 5 146.5t22 156.5t49.5 149.5t86.5 126.5t133 87.5t190 32.5q96 0 158 -26.5t98.5 -71t51 -103t14.5 -121.5q0 -36 -1.5 -75.5t-4 -85t-4.5 -98.5t-3 -117v-61q0 -54 2 -92t11 -64
q6 -19 21 -26.5t50 -7.5q26 0 68.5 1.5t87.5 7.5q14 58 68.5 92t154.5 39l3 -23q-14 -19 -22 -47t-8 -60q0 -40 16.5 -77t55.5 -57l-2 -22q-20 -5 -42 -7.5t-44 -2.5q-30 0 -59 5.5t-53 18.5t-41 33t-23 49q-124 -23 -199.5 -31t-110.5 -8q-60 0 -85 21.5t-30 56.5
q-8 48 -10 101t-2 93v42zM1104 1159q-23 -5 -47.5 -8.5t-48.5 -3.5q-30 0 -58 6t-51.5 18.5t-39.5 33t-22 50.5l-537 -45q-11 -64 -72 -98t-167 -42l-3 16q23 32 35.5 65.5t12.5 65.5q0 38 -18.5 70.5t-57.5 53.5l1 16q45 12 94 12q31 0 60.5 -6t52.5 -18.5t38.5 -32
t19.5 -46.5l537 47q30 111 221 123l2 -17q-23 -63 -23 -108q0 -42 16.5 -77.5t53.5 -58.5z" />
    <glyph glyph-name="uni126B" unicode="&#x126b;" horiz-adv-x="1084" 
d="M999 15q-9 -3 -38 -8l-63 -10.5t-66 -9t-48 -3.5q-15 0 -23 9.5t-13 26.5q-7 22 -11 54.5t-6 66t-2.5 62t-0.5 42.5q0 66 2 135t4.5 130.5l4.5 111.5t2 79q0 48 -7.5 92.5t-25.5 78t-49 54t-77 20.5q-52 0 -91 -19t-67.5 -50.5t-47.5 -73t-30.5 -87t-16 -92t-4.5 -88.5
q0 -41 2.5 -75.5t11 -60t26 -40.5t47.5 -18l-2 -37q-9 -4 -34 -10t-56 -11.5t-61.5 -9.5t-49.5 -4q-15 0 -27 4t-19 22q-15 39 -22.5 90.5t-7.5 105.5q0 63 10.5 127t33.5 124t59.5 112t90 91t124.5 61.5t162 22.5q96 0 158 -26.5t98.5 -71t51 -103t14.5 -121.5
q0 -40 -2 -84t-5 -96t-5 -114.5t-2 -138.5v-29q0 -48 1.5 -82t9.5 -57t24 -36t45 -19zM1104 1159q-23 -5 -47.5 -8.5t-48.5 -3.5q-30 0 -58 6t-51.5 18.5t-39.5 33t-22 50.5l-537 -45q-11 -64 -72 -98t-167 -42l-3 16q23 32 35.5 65.5t12.5 65.5q0 38 -18.5 70.5t-57.5 53.5
l1 16q45 12 94 12q31 0 60.5 -6t52.5 -18.5t38.5 -32t19.5 -46.5l537 47q30 111 221 123l2 -17q-23 -63 -23 -108q0 -42 16.5 -77.5t53.5 -58.5z" />
    <glyph glyph-name="uni126C" unicode="&#x126c;" horiz-adv-x="1390" 
d="M729 313q1 59 3 117.5t4 110.5l3.5 93.5t1.5 66.5q0 48 -7.5 92.5t-25.5 78t-49 54t-77 20.5q-61 0 -104 -31.5t-71.5 -81t-45 -111t-24.5 -122t-10 -113.5t-2 -86v-61q0 -26 0.5 -55.5t2 -57.5t5 -53t9.5 -41q12 -35 35 -50.5t60 -21.5l-2 -37q-9 -4 -38 -11t-64 -13.5
t-69.5 -11t-54.5 -4.5q-15 0 -26.5 6t-19.5 30q-9 26 -16 65t-11.5 82t-6.5 86t-2 78q0 68 5 146.5t22 156.5t49.5 149.5t86.5 126.5t133 87.5t190 32.5q96 0 158 -26.5t98.5 -71t51 -103t14.5 -121.5q0 -68 -5.5 -152t-7.5 -201q69 14 128.5 22t110.5 8q88 0 136 -43
t48 -131q0 -54 -18.5 -92t-49 -63t-71.5 -36.5t-86 -11.5q-19 0 -35.5 1t-44.5 3q-23 -5 -57.5 -10t-70 -9t-67.5 -6.5t-49 -2.5q-34 0 -44 36q-8 28 -12.5 71t-7 86.5t-3 81t-0.5 54.5zM1104 1159q-23 -5 -47.5 -8.5t-48.5 -3.5q-30 0 -58 6t-51.5 18.5t-39.5 33t-22 50.5
l-537 -45q-11 -64 -72 -98t-167 -42l-3 16q23 32 35.5 65.5t12.5 65.5q0 38 -18.5 70.5t-57.5 53.5l1 16q45 12 94 12q31 0 60.5 -6t52.5 -18.5t38.5 -32t19.5 -46.5l537 47q30 111 221 123l2 -17q-23 -63 -23 -108q0 -42 16.5 -77.5t53.5 -58.5zM921 233q0 -44 3 -76.5
t15 -54.5t35.5 -33t65.5 -11q31 0 54 11t38 30t22 44t7 54q0 55 -25 87.5t-87 32.5q-26 0 -58 -4t-70 -11v-69z" />
    <glyph glyph-name="uni126D" unicode="&#x126d;" horiz-adv-x="1395" 
d="M1310 15q-9 -3 -37.5 -8t-63.5 -10.5t-69.5 -9t-54.5 -3.5q-16 0 -26 36q-7 22 -11 54.5t-6 66t-2.5 62t-0.5 42.5q0 66 2 135t4.5 130.5l4.5 111.5t2 79q0 48 -7.5 92.5t-25.5 78t-49 54t-77 20.5q-61 0 -104 -31.5t-71.5 -81t-45 -111t-24.5 -122t-10 -113.5t-2 -86
v-61q0 -26 0.5 -55.5t2 -57.5t5 -53t9.5 -41q12 -35 35 -50.5t60 -21.5l-2 -37q-9 -4 -38 -11t-64 -13.5t-69.5 -11t-54.5 -4.5q-15 0 -26.5 6t-19.5 30q-9 26 -16 65t-11.5 82t-6.5 86t-2 78q0 45 2 93.5t7 99.5l-183 -24q15 -38 15 -74q0 -33 -11 -61.5t-31.5 -50
t-48.5 -34t-61 -12.5q-36 0 -60 10q10 32 16 59.5t6 53.5q0 31 -10 60.5t-34 62.5q1 5 1.5 8t0.5 4l408 57q14 84 44 164.5t84 143.5t137.5 101t203.5 38q96 0 158 -26.5t98.5 -71t51 -103t14.5 -121.5q0 -40 -2 -84t-5 -96t-5 -114.5t-2 -138.5v-29q0 -48 1.5 -82
t9.5 -56.5t24 -35.5t45 -20zM1415 1159q-23 -5 -47.5 -8.5t-48.5 -3.5q-30 0 -58 6t-51.5 18.5t-39.5 33t-22 50.5l-537 -45q-11 -64 -72 -98t-167 -42l-3 16q23 32 35.5 65.5t12.5 65.5q0 38 -18.5 70.5t-57.5 53.5l1 16q45 12 94 12q31 0 60.5 -6t52.5 -18.5t38.5 -32
t19.5 -46.5l537 47q30 111 221 123l2 -17q-23 -63 -23 -108q0 -42 16.5 -77.5t53.5 -58.5z" />
    <glyph glyph-name="uni126E" unicode="&#x126e;" horiz-adv-x="1084" 
d="M999 325q-9 -3 -38 -8l-62.5 -10.5t-65.5 -9t-48 -3.5t-24 6.5t-13 17.5q-7 15 -11 37.5t-6 45t-2.5 42t-0.5 28.5q0 30 1.5 67l3 73t3 67.5t1.5 51.5q0 33 -7 70.5t-24 70t-47.5 54t-76.5 21.5q-61 0 -104 -31.5t-71.5 -81t-45 -111t-24.5 -122t-10 -113.5t-2 -86v-61
q0 -26 0.5 -55.5t2 -57.5t5 -53t9.5 -41q12 -35 35 -50.5t60 -21.5l-2 -37q-9 -4 -38 -11t-64 -13.5t-69.5 -11t-54.5 -4.5q-15 0 -26.5 6t-19.5 30q-9 26 -16 65t-11.5 82t-6.5 86t-2 78q0 68 5 146.5t22 156.5t49.5 149.5t86.5 126.5t133 87.5t190 32.5q96 0 157.5 -26
t97 -66t49.5 -87.5t14 -90.5q0 -54 -5 -119.5t-5 -126.5q0 -38 1 -65t8 -45t23.5 -28t47.5 -14zM1104 1159q-23 -5 -47.5 -8.5t-48.5 -3.5q-30 0 -58 6t-51.5 18.5t-39.5 33t-22 50.5l-537 -45q-11 -64 -72 -98t-167 -42l-3 16q23 32 35.5 65.5t12.5 65.5q0 38 -18.5 70.5
t-57.5 53.5l1 16q45 12 94 12q31 0 60.5 -6t52.5 -18.5t38.5 -32t19.5 -46.5l537 47q30 111 221 123l2 -17q-23 -63 -23 -108q0 -42 16.5 -77.5t53.5 -58.5z" />
    <glyph glyph-name="uni126F" unicode="&#x126f;" horiz-adv-x="1401" 
d="M716 58l4.5 99t5.5 114.5t5.5 120.5t4.5 118t3.5 106t1.5 85q0 48 -7.5 92.5t-25.5 78t-49 54t-77 20.5q-52 0 -91 -19t-67.5 -50.5t-47.5 -73t-30.5 -87t-16 -92t-4.5 -88.5q0 -41 2.5 -75.5t11 -60t26 -40.5t47.5 -18l-2 -37q-9 -4 -34 -10t-56 -11.5t-61.5 -9.5
t-49.5 -4q-15 0 -27 4t-19 22q-15 39 -22.5 90.5t-7.5 105.5q0 63 10.5 127t33.5 124t59.5 112t90 91t124.5 61.5t162 22.5q96 0 158 -26.5t98.5 -71t51 -103t14.5 -121.5q0 -48 -2.5 -124t-6.5 -163.5l-8.5 -178.5l-8.5 -168l426 36q-9 -39 -9 -80q0 -45 13 -89.5t40 -77.5
l2 -16q-41 -16 -98 -16q-41 0 -77 12.5t-62 37.5t-41 62t-15 87l-562 -45q0 -121 -63.5 -181.5t-205.5 -61.5h-13t-14 1l-1 18q29 32 44 73.5t15 84.5q0 32 -14 79l-2 23zM1104 1159q-23 -5 -47.5 -8.5t-48.5 -3.5q-30 0 -58 6t-51.5 18.5t-39.5 33t-22 50.5l-537 -45
q-11 -64 -72 -98t-167 -42l-3 16q23 32 35.5 65.5t12.5 65.5q0 38 -18.5 70.5t-57.5 53.5l1 16q45 12 94 12q31 0 60.5 -6t52.5 -18.5t38.5 -32t19.5 -46.5l537 47q30 111 221 123l2 -17q-23 -64 -23 -108q0 -42 16.5 -77.5t53.5 -58.5z" />
    <glyph glyph-name="uni1270" unicode="&#x1270;" horiz-adv-x="1248" 
d="M549 1252q25 6 51.5 11t50.5 9t43.5 6t31.5 2q35 0 49 -15.5t14 -51.5q0 -10 -1 -21t-3 -25l-24 -151t-23 -153l439 37q-5 -20 -7 -42.5t-2 -42.5q0 -45 13 -92t40 -80l2 -16q-51 -17 -85 -17q-38 0 -71 13.5t-58 40.5t-39 66.5t-13 91.5l-228 -19l-46 -327t-41 -326
q-1 -5 -1.5 -10t-0.5 -10v-18q0 -26 10.5 -45t43.5 -20v-37q-25 -6 -50.5 -11t-49 -9t-42.5 -6t-31 -2q-42 0 -57 21t-15 56q0 8 0.5 15.5t1.5 15.5q21 178 45 349l50 350l-246 -20q0 -63 -14 -111t-46 -79.5t-83.5 -46.5t-125.5 -12l-1 18q29 32 44 76t15 87
q0 20 -3.5 42.5t-10.5 41.5l-2 23l481 40l20 132l21 132q4 11 4 35q0 26 -10.5 46t-39.5 22v37z" />
    <glyph glyph-name="uni1271" unicode="&#x1271;" horiz-adv-x="1248" 
d="M549 1252q25 6 51.5 11t50.5 9t43.5 6t31.5 2q35 0 49 -15.5t14 -51.5q0 -10 -1 -21t-3 -25l-24 -151t-23 -153l439 37q-5 -20 -7 -42.5t-2 -42.5q0 -45 12 -90t39 -78l2 -16q-51 -17 -85 -17q-38 0 -71 13t-57.5 39t-38 65t-12.5 91l-228 -19l-31 -215.5l-29 -215.5
l241 19q9 29 27.5 50t43 34.5t53.5 20.5t60 8q15 0 29.5 -1t28.5 -3l1 -18q-20 -16 -31 -48t-9 -67q1 -35 16 -65t47 -43l1 -18q-44 -22 -101 -22t-103.5 28.5t-61.5 88.5l-249 -20l-10 -83l-10 -83q-1 -5 -1.5 -10t-0.5 -10v-18q0 -26 10.5 -45t43.5 -20v-37
q-25 -6 -50.5 -11t-49 -9t-42.5 -6t-31 -2q-42 0 -57 21t-15 56q0 8 0.5 15.5t1.5 15.5q21 178 45 349l50 350l-246 -20q0 -63 -14 -111t-46 -79.5t-83.5 -46.5t-125.5 -12l-1 18q29 32 44 76t15 87q0 20 -3.5 42.5t-10.5 41.5l-2 23l481 40l20 132l21 132q4 11 4 35
q0 26 -10.5 46t-39.5 22v37z" />
    <glyph glyph-name="uni1272" unicode="&#x1272;" horiz-adv-x="1248" 
d="M448 52q0 8 1 19t2 19q21 178 45 349l50 350l-246 -20q0 -63 -14 -111t-46 -79.5t-83.5 -46.5t-125.5 -12l-1 18q29 32 44 76t15 87q0 20 -3.5 42.5t-10.5 41.5l-2 23l481 40l20 132l21 132q4 11 4 35q0 26 -10.5 46t-39.5 22v37q25 6 51.5 11t50.5 9t43.5 6t31.5 2
q35 0 49 -15.5t14 -51.5q0 -10 -1 -21t-3 -25l-24 -151t-23 -153l439 37q-5 -20 -7 -42.5t-2 -42.5q0 -45 13 -92t40 -80l2 -16q-51 -17 -85 -17q-38 0 -71 13.5t-58 40.5t-39 66.5t-13 91.5l-228 -19l-46 -327t-41 -326q-2 -11 -3 -28.5t-1 -26.5q0 -17 8.5 -26t29.5 -9
q30 0 85.5 1.5t121.5 9.5q29 117 223 127l3 -23q-16 -23 -24 -53.5t-8 -62.5q0 -43 16.5 -80.5t53.5 -55.5l-2 -22q-20 -5 -42 -7.5t-44 -2.5q-30 0 -59.5 5.5t-53.5 19t-41 37t-23 59.5q-121 -18 -204.5 -26.5t-134.5 -8.5q-52 0 -73.5 21.5t-21.5 53.5z" />
    <glyph glyph-name="uni1273" unicode="&#x1273;" horiz-adv-x="1436" 
d="M60 187q88 6 171 12.5t156.5 21.5t135 42.5t106 75.5t69 119.5t24.5 175.5v176l-229 -18q0 -63 -14 -110t-45.5 -77.5t-83 -45t-125.5 -11.5l-1 18q29 32 43.5 73.5t14.5 84.5q0 21 -3 42.5t-11 41.5l-2 23l456 38v329q0 26 -10.5 46t-39.5 22v37q25 6 51 11t49 9t42 6
t30 2q35 0 49 -15.5t14 -51.5v-379l458 38q-5 -20 -7 -42.5t-2 -42.5q0 -45 13 -92t40 -80l2 -16q-51 -17 -85 -17q-38 0 -71 13.5t-58 40.5t-39 66.5t-13 91.5l-238 -19v-199q0 -89 -21 -157t-57 -118.5t-83.5 -86t-100 -58.5t-107 -36t-104 -19.5t-91.5 -8.5t-70 -3
q1 -11 1.5 -19.5t0.5 -19.5q0 -61 -14 -105.5t-38.5 -74t-58.5 -44t-74 -14.5q-19 0 -39 3.5t-41 9.5q28 48 43 92.5t15 100.5q0 28 -3.5 56.5t-9.5 53.5z" />
    <glyph glyph-name="uni1274" unicode="&#x1274;" horiz-adv-x="1248" 
d="M522 -11q-42 0 -57 21t-15 56q0 8 0.5 15.5t1.5 15.5q21 176 44.5 345.5l49.5 346.5l-246 -20q0 -63 -14 -111t-46 -79.5t-83.5 -46.5t-125.5 -12l-1 18q29 32 44 76t15 87q0 20 -3.5 42.5t-10.5 41.5l-2 23l481 40l20 132l21 132q4 11 4 35q0 26 -10.5 46t-39.5 22v37
q25 6 51.5 11t50.5 9t43.5 6t31.5 2q35 0 49 -15.5t14 -51.5q0 -10 -1 -21t-3 -25l-24 -151t-23 -153l439 37q-5 -20 -7 -42.5t-2 -42.5q0 -45 13 -92t40 -80l2 -16q-51 -17 -85 -17q-38 0 -71 13.5t-58 40.5t-39 66.5t-13 91.5l-228 -19l-30.5 -211.5l-28.5 -211.5
q75 14 136 23t113 9q85 0 129 -38t44 -116q0 -62 -22 -107t-58 -74.5t-83 -44t-96 -14.5q-19 0 -36 1t-45 3q-24 -5 -56.5 -10.5l-65 -10.5t-61.5 -8.5t-47 -3.5zM655 257q-3 -26 -5 -47t-2 -39q0 -26 5 -44.5t18 -30.5t35 -18t55 -6q37 0 65 14.5t46 38t27 54.5t9 64
q0 48 -23.5 72.5t-83.5 24.5q-26 0 -61 -4.5t-77 -11.5z" />
    <glyph glyph-name="uni1275" unicode="&#x1275;" horiz-adv-x="1248" 
d="M227 1475q18 4 38.5 5.5t41.5 1.5q33 0 69.5 -5t67 -18.5t50.5 -37.5t20 -63q0 -30 -14 -51.5t-33 -37.5l1 -2q34 3 75 5.5t78.5 4t66.5 2.5t38 1q35 0 49 -15.5t14 -51.5q0 -10 -1 -21t-3 -25l-24 -151t-23 -153l439 37q-5 -20 -7 -42.5t-2 -42.5q0 -45 13 -92t40 -80
l2 -16q-51 -17 -85 -17q-38 0 -71 13.5t-58 40.5t-39 66.5t-13 91.5l-228 -19l-46 -327t-41 -326q-1 -5 -1.5 -10t-0.5 -10v-18q0 -26 10.5 -45t43.5 -20v-37q-25 -6 -50.5 -11t-49 -9t-42.5 -6t-31 -2q-42 0 -57 21t-15 56q0 8 0.5 15.5t1.5 15.5l45 350l49 349l-245 -20
q0 -63 -14 -111t-46 -79.5t-83.5 -46.5t-125.5 -12l-1 18q29 32 44 76t15 87q0 20 -3.5 42.5t-10.5 41.5l-2 23l481 40l19.5 126l19.5 127q4 15 4 41q0 19 -7 34.5t-26.5 27t-54.5 19.5t-91 13q-39 -16 -85 -21t-88 -6l-3 16q54 57 54 123q0 32 -16.5 61t-54.5 50z" />
    <glyph glyph-name="uni1276" unicode="&#x1276;" horiz-adv-x="1243" 
d="M708 689q-20 -139 -37 -270l-34 -269q-1 -5 -1.5 -10t-0.5 -10v-18q0 -26 10.5 -45t43.5 -20v-37q-25 -6 -50.5 -11t-49 -9t-42.5 -6t-31 -2q-42 0 -57 21t-15 56q0 8 0.5 15.5t1.5 15.5q20 172 43.5 337.5l48.5 338.5q-81 -26 -142 -36.5t-96 -13.5q0 -63 -14 -111.5
t-46 -81t-83.5 -48t-125.5 -12.5l-1 18q29 32 44 76t15 87q0 20 -3.5 42.5t-10.5 41.5l-2 23q38 3 90 6t111 10t122.5 19t123.5 32q-20 25 -41 55.5t-38 63.5t-28 67.5t-11 66.5q0 67 33.5 117t86 83t116.5 49.5t124 16.5q40 0 80 -9.5t72 -29.5t51.5 -53t19.5 -79
q0 -63 -23.5 -111.5t-62 -87t-87 -69.5t-98.5 -58q4 -11 4 -41q0 -26 -3 -50l457 38q-5 -20 -7 -42.5t-2 -42.5q0 -45 13 -92t40 -80l2 -16q-51 -17 -85 -17q-38 0 -71 13.5t-58 40.5t-39 66.5t-13 91.5zM688 891q64 44 96.5 99.5t32.5 136.5q0 60 -29.5 97t-90.5 37
q-28 0 -52 -7.5t-42 -22.5t-28 -36t-10 -48q0 -32 12 -66t30 -67.5t39.5 -64.5z" />
    <glyph glyph-name="uni1277" unicode="&#x1277;" horiz-adv-x="1276" 
d="M474 84l48.5 375t52.5 371l-247 -20q0 -63 -14 -111t-46 -79.5t-83.5 -46.5t-125.5 -12l-1 18q29 32 44 76t15 87q0 20 -3.5 42.5t-10.5 41.5l-2 23l483 40l13.5 89.5t14.5 92.5q4 9 4 35t-10.5 46t-39.5 22v37q25 6 51.5 11t50.5 9t43.5 6t31.5 2q35 0 49 -15.5
t14 -51.5q0 -10 -1 -21t-3 -25l-18 -110q-5 -28 -9 -55.5l-8 -56.5l438 37q-5 -20 -7 -42.5t-2 -42.5q0 -45 13 -92t40 -80l2 -16q-53 -17 -85 -17q-36 0 -68.5 12.5t-57 37.5t-39.5 62t-16 86v14l-226 -18l-52.5 -376.5t-46.5 -368.5l457 38q-5 -20 -7 -42.5t-2 -42.5
q0 -45 13 -92t40 -80l2 -16q-53 -17 -85 -17q-38 0 -71 13.5t-58 40.5t-39 66.5t-13 91.5l-637 -51q0 -60 -13 -106.5t-41.5 -78t-74 -48t-111.5 -17.5h-14t-15 1l-1 18q29 32 44 76t15 87q0 20 -3.5 42.5t-10.5 41.5l-2 23z" />
    <glyph glyph-name="uni1278" unicode="&#x1278;" horiz-adv-x="1262" 
d="M1237 1141q-23 -5 -47.5 -8.5t-48.5 -3.5q-30 0 -58 6t-51.5 18.5t-39.5 33t-22 50.5l-174 -15l-58 -371l439 37q-5 -20 -7 -42.5t-2 -42.5q0 -45 13 -92t40 -80l2 -16q-51 -17 -85 -17q-38 0 -71 13.5t-58 40.5t-39 66.5t-13 91.5l-228 -19l-45 -321t-40 -320
q-1 -5 -1.5 -10t-0.5 -10v-18q0 -26 10.5 -45t43.5 -20v-37q-25 -6 -50.5 -11t-49 -9t-42.5 -6t-31 -2q-42 0 -57 21t-15 56q0 8 0.5 15.5t1.5 15.5q21 175 44 343l49 344l-246 -20q0 -63 -14 -111t-46 -79.5t-83.5 -46.5t-125.5 -12l-1 18q29 32 44 76t15 87
q0 20 -3.5 42.5t-10.5 41.5l-2 23l481 40l58 371l-207 -17q-11 -64 -72 -98t-167 -42l-3 16q23 32 37.5 68t14.5 71t-17 65.5t-55 52.5l1 16q45 12 94 12q32 0 60 -6.5t49.5 -19t35.5 -32.5t18 -47l565 49q15 57 73.5 90t155.5 35l2 -17q-12 -28 -19 -58t-7 -59
q0 -38 15 -72t50 -57z" />
    <glyph glyph-name="uni1279" unicode="&#x1279;" horiz-adv-x="1262" 
d="M1237 1141q-23 -5 -47.5 -8.5t-48.5 -3.5q-30 0 -58 6t-51.5 18.5t-39.5 33t-22 50.5l-174 -15l-56 -359l439 37q-5 -20 -7 -42.5t-2 -42.5q0 -45 13 -89.5t40 -77.5l2 -16q-51 -17 -85 -17q-38 0 -71 13t-58 39t-39 64.5t-13 90.5l-228 -19l-34.5 -239.5t-31.5 -239.5
l221 18q9 29 27.5 50t43 34.5t53.5 20.5t60 8q15 0 29.5 -1t28.5 -3l1 -18q-20 -16 -31 -48t-9 -67q1 -35 16 -65t47 -43l1 -18q-44 -22 -101 -22t-103.5 28.5t-61.5 88.5l-229 -19q-4 -29 -7.5 -59t-6.5 -59q-1 -5 -1.5 -10t-0.5 -10v-18q0 -26 10.5 -45t43.5 -20v-37
q-25 -6 -50.5 -11t-49 -9t-42.5 -6t-31 -2q-42 0 -57 21t-15 56q0 8 0.5 15.5t1.5 15.5q21 178 45 349l50 350l-246 -20q0 -63 -14 -111t-46 -79.5t-83.5 -46.5t-125.5 -12l-1 18q29 32 44 76t15 87q0 20 -3.5 42.5t-10.5 41.5l-2 23l481 40l56 359l-207 -17
q-11 -64 -72 -98t-167 -42l-3 16q23 32 37.5 68t14.5 71t-17 65.5t-55 52.5l1 16q45 12 94 12q32 0 60 -6.5t49.5 -19t35.5 -32.5t18 -47l565 49q15 57 73.5 90t155.5 35l2 -17q-12 -28 -19 -58t-7 -59q0 -38 15 -72t50 -57z" />
    <glyph glyph-name="uni127A" unicode="&#x127a;" horiz-adv-x="1262" 
d="M523 -18q-42 0 -57 21t-15 56q0 8 0.5 15.5t1.5 15.5q21 175 44 343l49 344l-246 -20q0 -63 -14 -111t-46 -79.5t-83.5 -46.5t-125.5 -12l-1 18q29 32 44 76t15 87q0 20 -3.5 42.5t-10.5 41.5l-2 23l481 40l58 371l-207 -17q-11 -64 -72 -98t-167 -42l-3 16
q23 32 37.5 68t14.5 71t-17 65.5t-55 52.5l1 16q45 12 94 12q32 0 60 -6.5t49.5 -19t35.5 -32.5t18 -47l565 49q15 57 73.5 90t155.5 35l2 -17q-12 -28 -19 -58t-7 -59q0 -38 15 -72t50 -57l1 -16q-23 -5 -47.5 -8.5t-48.5 -3.5q-30 0 -58 6t-51.5 18.5t-39.5 33t-22 50.5
l-174 -15l-58 -371l439 37q-5 -20 -7 -42.5t-2 -42.5q0 -45 13 -92t40 -80l2 -16q-51 -17 -85 -17q-38 0 -71 13.5t-58 40.5t-39 66.5t-13 91.5l-228 -19l-45 -321t-40 -320q-2 -11 -3 -26t-1 -24q0 -17 8 -26t29 -9q11 0 35 1t52 3.5l56.5 5t49.5 5.5q14 58 68.5 92
t154.5 39l3 -23q-15 -23 -23.5 -53t-8.5 -62q0 -42 16 -79t53 -55l-2 -22q-20 -5 -42 -7.5t-44 -2.5q-30 0 -59 7t-53 21t-41 35.5t-23 50.5q-121 -18 -211 -28.5t-135 -10.5z" />
    <glyph glyph-name="uni127B" unicode="&#x127b;" horiz-adv-x="1366" 
d="M68 102l124 24t117 29.5t105.5 45t89 70t68 104t42.5 147.5q10 63 18 120t18 122l-246 -20q0 -63 -14 -111t-46 -79.5t-83.5 -46.5t-125.5 -12l-1 18q29 32 44 76t15 87q0 20 -3.5 42.5t-10.5 41.5l-2 23l481 40l58 368l-207 -17q-11 -64 -72 -96.5t-167 -40.5l-3 16
q23 32 37.5 68t14.5 71t-17 65.5t-55 52.5l1 16q45 12 94 12q32 0 60 -7t49.5 -20.5t35.5 -33.5t18 -47l565 49q15 57 73.5 92.5t155.5 37.5l2 -17q-12 -28 -19 -58t-7 -59q0 -38 15 -72t50 -57l1 -16q-23 -5 -47.5 -8.5t-48.5 -3.5q-30 0 -58 5t-51.5 17t-39.5 31.5
t-22 49.5l-174 -15l-58 -368l439 37q-5 -20 -7 -42.5t-2 -42.5q0 -45 13 -92t40 -80l2 -16q-51 -17 -85 -17q-38 0 -71 13.5t-58 40.5t-39 66.5t-13 91.5l-228 -19l-18.5 -129.5l-18.5 -126.5q-12 -83 -47.5 -151t-98 -121t-154.5 -92.5t-218 -65.5q1 -11 1.5 -20.5
t0.5 -20.5q0 -60 -13.5 -104t-37 -73.5t-56 -44t-71.5 -14.5q-48 0 -87 16q29 46 44.5 84t15.5 87q0 32 -11 90z" />
    <glyph glyph-name="uni127C" unicode="&#x127c;" horiz-adv-x="1262" 
d="M453 94q21 174 44 341l49 342l-246 -20q0 -63 -14 -111t-46 -79.5t-83.5 -46.5t-125.5 -12l-1 18q29 32 44 76t15 87q0 20 -3.5 42.5t-10.5 41.5l-2 23l481 40l58 371l-207 -17q-11 -64 -72 -98t-167 -42l-3 16q23 32 37.5 68t14.5 71t-17 65.5t-55 52.5l1 16
q45 12 94 12q32 0 60 -6.5t49.5 -19t35.5 -32.5t18 -47l565 49q15 57 73.5 90t155.5 35l2 -17q-12 -28 -19 -58t-7 -59q0 -38 15 -72t50 -57l1 -16q-23 -5 -47.5 -8.5t-48.5 -3.5q-30 0 -58 6t-51.5 18.5t-39.5 33t-22 50.5l-174 -15l-58 -371l439 37q-5 -20 -7 -42.5
t-2 -42.5q0 -45 13 -92t40 -80l2 -16q-51 -17 -85 -17q-38 0 -71 13.5t-58 40.5t-39 66.5t-13 91.5l-228 -19q-16 -106 -29.5 -207l-27.5 -204q75 14 136 23t113 9q85 0 129 -38t44 -116q0 -62 -22 -107t-58 -74.5t-83 -44t-96 -14.5q-19 0 -36 1t-45 3q-24 -5 -56.5 -10.5
l-65 -10.5t-61.5 -8.5t-47 -3.5q-42 0 -57.5 21t-15.5 56q0 8 0.5 14t1.5 14zM657 257q-3 -26 -5 -47t-2 -39q0 -26 5 -44.5t18 -30.5t35 -18t55 -6q37 0 65 14.5t46 38t27 54.5t9 64q0 48 -23.5 72.5t-83.5 24.5q-26 0 -61 -4.5t-77 -11.5z" />
    <glyph glyph-name="uni127D" unicode="&#x127d;" horiz-adv-x="1256" 
d="M431 1130l40 252l-422 -35h-1q3 17 5 33t2 32q0 39 -12 76t-41 75l-2 16q25 10 50 14.5t49 4.5q34 0 64 -10.5t52.5 -32t35.5 -55.5t13 -80l594 52q15 63 73.5 97.5t155.5 34.5l2 -17q-12 -27 -19.5 -56t-7.5 -58q0 -35 14.5 -66.5t49.5 -54.5l1 -16q-23 -5 -47.5 -8.5
t-48.5 -3.5q-61 0 -106.5 19.5t-62.5 70.5l-207 -17l-35 -212l174 16l6 -5q-3 -20 -6.5 -41l-7.5 -44l-15 -92l-13.5 -90l-11.5 -78l439 37q-5 -20 -7 -42.5t-2 -42.5q0 -45 13 -92t40 -80l2 -16q-51 -17 -85 -17q-38 0 -71 13.5t-58 40.5t-39 66.5t-13 91.5l-228 -19
l-45 -321t-40 -320q-1 -5 -1.5 -10t-0.5 -10v-18q0 -26 10.5 -45t43.5 -20v-37q-25 -6 -50.5 -11t-49 -9t-42.5 -6t-31 -2q-42 0 -57 21t-15 56q0 8 0.5 15.5t1.5 15.5q21 175 44 343l49 344l-246 -20q0 -63 -14 -111t-46 -79.5t-83.5 -46.5t-125.5 -12l-1 18q29 32 44 76
t15 87q0 20 -3.5 42.5t-10.5 41.5l-2 23l481 40q3 26 8.5 63l12 78.5l13.5 84l13 79.5l-173 -15z" />
    <glyph glyph-name="uni127E" unicode="&#x127e;" horiz-adv-x="1243" 
d="M708 689q-20 -139 -37 -270l-34 -269q-1 -5 -1.5 -10t-0.5 -10v-18q0 -26 10.5 -45t43.5 -20v-37q-25 -6 -50.5 -11t-49 -9t-42.5 -6t-31 -2q-42 0 -57 21t-15 56q0 8 0.5 15.5t1.5 15.5q20 172 43.5 337.5l48.5 338.5q-81 -26 -142 -36.5t-96 -13.5q0 -63 -14 -111.5
t-46 -81t-83.5 -48t-125.5 -12.5l-1 18q29 32 44 76t15 87q0 20 -3.5 42.5t-10.5 41.5l-2 23q38 3 90 6t111 10t122.5 19t123.5 32q-20 25 -41 55.5t-38 63.5t-28 67.5t-11 66.5q0 51 18.5 90.5t50.5 70.5q-33 -15 -88.5 -21t-116.5 -5l-3 16q54 57 54 123q0 32 -16.5 61
t-54.5 50l2 16q26 3 52 5t52 2q37 0 72.5 -6t63 -21t44.5 -39.5t17 -61.5q0 -42 -23 -77q33 22 69.5 34t73.5 19t73.5 10.5t69.5 8.5q33 4 61 11.5t49 22t32.5 38.5t11.5 61q0 31 -9 75l226 22q12 -38 12 -73q0 -34 -10.5 -64t-31 -52.5t-51 -35.5t-70.5 -13q-25 0 -55 6
q-21 -14 -38 -23t-36 -17q36 -20 59 -53.5t23 -84.5q0 -63 -23.5 -111.5t-62 -87t-87 -69.5t-98.5 -58q4 -11 4 -41q0 -26 -3 -50l457 38q-5 -20 -7 -42.5t-2 -42.5q0 -45 13 -92t40 -80l2 -16q-51 -17 -85 -17q-38 0 -71 13.5t-58 40.5t-39 66.5t-13 91.5zM688 891
q64 44 96.5 99.5t32.5 136.5q0 60 -29.5 97t-90.5 37q-28 0 -52 -7.5t-42 -22.5t-28 -36t-10 -48q0 -32 12 -66t30 -67.5t39.5 -64.5z" />
    <glyph glyph-name="uni127F" unicode="&#x127f;" horiz-adv-x="1323" 
d="M492 72l107 646l-256 -14q-4 -116 -60 -164.5t-156 -48.5q-13 0 -24.5 0.5t-25.5 2.5l-1 18q64 67 64 145q0 34 -12 70l-1 23l482 27l56 326l-217 -12q-14 -60 -75.5 -91.5t-167.5 -36.5l-3 16q25 32 40.5 68t15.5 72q0 35 -15.5 64.5t-53.5 52.5l2 16q37 10 84 10
q33 0 62.5 -6.5t52.5 -21t37.5 -36t17.5 -51.5l586 36q17 60 74.5 91.5t154.5 31.5h4l1 -17q-29 -63 -29 -121q0 -37 13 -70t48 -56l1 -16q-41 -9 -84 -9q-31 0 -61 5.5t-54.5 18.5t-41.5 33t-23 50l-185 -11l-56 -326l440 25q-5 -32 -8 -53t-3 -31q0 -38 11 -74t37 -70
l1 -16q-54 -14 -84 -14q-35 0 -65 10.5t-52.5 33t-35.5 58t-13 85.5l-239 -14l-105 -645l443 23q-12 -44 -12 -94q0 -45 11 -87.5t37 -76.5l1 -16q-53 -14 -79 -14q-38 0 -70.5 13.5t-57.5 39.5t-39 64t-14 88v12l-638 -31q-2 -59 -16 -104t-42.5 -76t-73 -46.5
t-107.5 -15.5h-18.5t-18.5 1l-1 18q32 34 48 78t16 92q0 20 -2.5 39t-8.5 37l-2 23z" />
    <glyph glyph-name="uni1280" unicode="&#x1280;" horiz-adv-x="1081" 
d="M699 903l75.5 8t70.5 7t59.5 4.5t41.5 1.5q33 0 49 -20.5t16 -53.5q0 -23 -4 -35q-10 -49 -24 -112l-29.5 -131.5l-30.5 -137l-28 -128l-22.5 -105t-12.5 -67.5q-2 -8 -2.5 -13t-0.5 -10q-1 -31 17 -46.5t60 -18.5l-2 -39q-26 -3 -53 -6.5t-52.5 -6l-47 -4.5t-36.5 -2
q-45 0 -63.5 21.5t-18.5 54.5q0 17 3 35q6 38 20 104.5l32 147l37 168l35 167.5q4 20 7.5 40t3.5 38q0 33 -16 54.5t-63 21.5q-26 0 -66.5 -4t-86.5 -8q-29 -2 -40.5 7.5t-11.5 35.5q0 14 2.5 40l5.5 58l-190 -19q3 -54 -10 -100t-39.5 -79t-66 -51.5t-88.5 -18.5
q-43 0 -74 10q27 50 42.5 94.5t15.5 100.5q0 15 -1.5 31t-3.5 33l3 12l419 42l9 79t4 49q0 59 -72 64v37q27 6 56 11t55.5 9t48 6t33.5 2q38 0 53.5 -15t15.5 -48q0 -17 -4 -52.5l-9 -79.5t-11 -92t-10 -91z" />
    <glyph glyph-name="uni1281" unicode="&#x1281;" horiz-adv-x="1455" 
d="M699 903l75.5 8t70.5 7t59.5 4.5t41.5 1.5q33 0 49 -20.5t16 -53.5q0 -23 -4 -35l-18.5 -85.5l-22.5 -101.5l418 35q-5 -20 -7 -42.5t-2 -42.5q0 -45 13 -92t40 -80l2 -16q-51 -17 -85 -17q-38 0 -71 13.5t-58 40.5t-39 66.5t-13 91.5l-211 -18l-30 -136l-21.5 -96.5
l-19 -86l-14.5 -69t-8 -45.5q-2 -8 -2.5 -13t-0.5 -10q-1 -31 17 -46.5t60 -18.5l-2 -39q-26 -3 -53 -6.5t-52.5 -6l-47 -4.5t-36.5 -2q-45 0 -63.5 21.5t-18.5 54.5q0 17 3 35q6 38 20 104.5l32 147l37 168l35 167.5q4 20 7.5 40t3.5 38q0 33 -16 54.5t-63 21.5
q-26 0 -66.5 -4t-86.5 -8q-29 -2 -40.5 7.5t-11.5 35.5q0 14 2.5 40l5.5 58l-190 -19q3 -54 -10 -100t-39.5 -79t-66 -51.5t-88.5 -18.5q-43 0 -74 10q27 50 42.5 94.5t15.5 100.5q0 15 -1.5 31t-3.5 33l3 12l419 42l9 79t4 49q0 59 -72 64v37q27 6 56 11t55.5 9t48 6
t33.5 2q38 0 53.5 -15t15.5 -48q0 -17 -4 -52.5l-9 -79.5t-11 -92t-10 -91z" />
    <glyph glyph-name="uni1282" unicode="&#x1282;" horiz-adv-x="1280" 
d="M666 -21q-48 -1 -67.5 21.5t-19.5 53.5q0 4 1.5 13t3.5 23q10 38 33 106l51.5 150.5l58.5 171l55 168.5q6 20 11 42t5 42q0 29 -16 49.5t-62 20.5q-26 0 -66.5 -4t-86.5 -8q-29 -2 -40.5 7.5t-11.5 35.5q0 14 2.5 40l5.5 58l-190 -19q3 -54 -10 -100t-39.5 -79t-66 -51.5
t-88.5 -18.5q-43 0 -74 10q27 50 42.5 94.5t15.5 100.5q0 15 -1.5 31t-3.5 33l3 12l419 42l9 79t4 49q0 59 -72 64v37q27 6 56 11t55.5 9t48 6t33.5 2q38 0 53.5 -15t15.5 -48q0 -17 -4 -52.5l-9 -79.5t-11 -92t-10 -91l79 8t73 7t61 4.5t43 1.5q35 0 51.5 -21.5t16.5 -50.5
q0 -19 -6 -37l-37 -111.5l-44 -132.5l-46 -137l-32.5 -97l-28.5 -86.5t-22 -70t-13 -46.5q-2 -8 -4 -19t-2 -18q0 -17 8 -27t29 -10q11 0 29 1t39 2.5l44 3t44 3.5q14 58 68.5 92t154.5 39l3 -23q-14 -22 -22 -50.5t-8 -58.5q0 -45 17.5 -84t55.5 -58l-2 -22
q-20 -5 -42 -7.5t-44 -2.5q-30 0 -59.5 6.5t-54 20t-42.5 35.5t-26 54q-120 -18 -194.5 -25t-119.5 -7z" />
    <glyph glyph-name="uni1283" unicode="&#x1283;" horiz-adv-x="1106" 
d="M83 211q85 5 175 19.5t176 41t162.5 67.5t134 99.5t91 135t33.5 175.5q0 45 -17 68t-65 23q-26 0 -66.5 -4t-86.5 -8q-29 -2 -40.5 7.5t-11.5 35.5q0 14 2.5 40l5.5 58l-190 -19q3 -54 -10 -100t-39.5 -79t-66 -51.5t-88.5 -18.5q-43 0 -74 10q27 50 42.5 94.5
t15.5 100.5q0 15 -1.5 31t-3.5 33l3 12l419 42l9 79t4 49q0 59 -72 64v37q27 6 56 11t55.5 9t48 6t33.5 2q38 0 53.5 -15t15.5 -48q0 -17 -4 -52.5l-9 -79.5t-11 -92t-10 -91l136 14t89 6q25 0 39 -11.5t21 -29.5t9 -40t2 -43q0 -149 -55.5 -257.5t-155 -184.5
t-237.5 -122.5t-303 -70.5q1 -11 1.5 -19.5t0.5 -19.5q0 -61 -14 -105.5t-38.5 -74t-58.5 -44t-74 -14.5q-34 0 -84 14q32 42 48 93.5t16 105.5q0 52 -15 102z" />
    <glyph glyph-name="uni1284" unicode="&#x1284;" horiz-adv-x="1354" 
d="M664 99q6 38 20 104.5l32 147l37 168l35 167.5q4 20 7.5 40t3.5 38q0 33 -16 54.5t-63 21.5q-26 0 -66.5 -4t-86.5 -8q-29 -2 -40.5 7.5t-11.5 35.5q0 14 2.5 40l5.5 58l-190 -19q3 -54 -10 -100t-39.5 -79t-66 -51.5t-88.5 -18.5q-43 0 -74 10q27 50 42.5 94.5
t15.5 100.5q0 15 -1.5 31t-3.5 33l3 12l419 42l9 79t4 49q0 59 -72 64v37q27 6 56 11t55.5 9t48 6t33.5 2q38 0 53.5 -15t15.5 -48q0 -17 -4 -52.5l-9 -79.5t-11 -92t-10 -91l75.5 8t70.5 7t59.5 4.5t41.5 1.5q33 0 49 -20.5t16 -53.5q0 -23 -4 -35l-21 -96l-25 -113
l-26.5 -118l-25.5 -117q75 14 133.5 23.5t109.5 9.5q73 0 117.5 -38.5t44.5 -110.5q0 -65 -21 -111.5t-57 -76.5t-83 -44.5t-99 -14.5q-20 0 -40.5 1.5t-40.5 6.5q-24 -5 -58.5 -10t-69.5 -8.5t-66 -6t-49 -2.5q-42 0 -57.5 22t-12.5 57q1 8 1.5 15.5t2.5 15.5zM884 249
q-5 -26 -8.5 -47t-5.5 -39q-2 -26 1.5 -44.5t15.5 -30.5t33.5 -17.5t54.5 -5.5q38 0 67.5 14t49 38t29.5 56t10 69q0 45 -22.5 67.5t-73.5 22.5q-26 0 -60.5 -4.5t-76.5 -11.5z" />
    <glyph glyph-name="uni1285" unicode="&#x1285;" horiz-adv-x="1055" 
d="M672 903l75.5 8t70.5 7t59.5 4.5t41.5 1.5q33 0 49 -20.5t16 -53.5q0 -23 -4 -35q-10 -49 -24 -112l-29.5 -131.5l-30.5 -137l-28 -128l-22.5 -105t-12.5 -67.5q-2 -8 -2.5 -13t-0.5 -10q-1 -31 17 -46.5t60 -18.5l-2 -39q-26 -3 -53 -6.5t-52.5 -6l-47 -4.5t-36.5 -2
q-45 0 -63.5 21.5t-18.5 54.5q0 17 3 35q6 38 20 104.5l32 147l37 168l35 167.5q4 20 7.5 40t3.5 38q0 33 -16 54.5t-63 21.5q-26 0 -66.5 -4t-86.5 -8q-29 -2 -40.5 7.5t-11.5 35.5q0 15 2 36.5l4.5 47t6 52.5l6.5 52q-64 -3 -110.5 -23.5t-76.5 -62t-44.5 -104.5
t-14.5 -151l-201 -20q0 90 32.5 164t92.5 128.5t143.5 87t185.5 39.5q1 6 1.5 11t0.5 9v15q0 59 -72 64v37q27 6 56 11t55.5 9t48 6t33.5 2q38 0 53.5 -15t15.5 -48q0 -17 -4 -52.5l-9 -79.5t-11 -92t-10 -91z" />
    <glyph glyph-name="uni1286" unicode="&#x1286;" horiz-adv-x="1618" 
d="M1009 1046q0 18 1.5 35.5t6 36t12.5 40t21 48.5q-89 -9 -152.5 -35.5t-103.5 -71.5t-58.5 -109.5t-18.5 -149.5q0 -109 42.5 -155t134.5 -46q14 0 33.5 3t41 6l43.5 6t42 3q42 0 64.5 -22.5t22.5 -67.5q0 -16 -3 -32l-14.5 -94.5l-15.5 -100.5l-15.5 -100.5l-14.5 -94.5
q-3 -18 -3 -31q-2 -35 9 -50.5t41 -17.5l-2 -37q-26 -6 -52 -11t-50 -9t-43 -6t-31 -2q-35 0 -51 16.5t-16 53.5q0 17 3 38q6 45 13.5 95.5t16 102.5l16.5 103l15 97q1 5 1.5 9.5t0.5 12.5q0 38 -29 56.5t-77 18.5q-54 0 -98.5 -10t-76.5 -10q-41 0 -67.5 21t-42 55.5
t-21.5 77.5t-6 88q0 30 2 57.5t6 53.5l-203 -20q3 -54 -10 -100t-39.5 -79t-66 -51.5t-88.5 -18.5q-43 0 -74 10q27 50 42.5 94.5t15.5 100.5q0 17 -1.5 36.5t-6.5 38.5l444 45q22 78 65 130t101.5 85t130 51t149.5 27q87 10 147.5 18.5l104 14.5t75 9.5t60.5 3.5
q50 0 91.5 -12t71.5 -35.5t46.5 -59t16.5 -83.5q0 -36 -14.5 -73.5t-40.5 -68t-61.5 -49.5t-77.5 -19q-23 0 -52.5 1.5t-52.5 1.5q-19 0 -41 -4t-43.5 -9l-40 -9t-31.5 -4q-32 0 -58.5 15t-45.5 38t-29.5 50.5t-10.5 53.5zM1294 973q36 0 63 13t46 34.5t28.5 49t9.5 56.5
q0 54 -28.5 86.5t-85.5 32.5q-42 0 -70.5 -11t-46.5 -30.5t-26 -46.5t-8 -58q0 -25 7.5 -47.5t22.5 -40t37 -28t51 -10.5z" />
    <glyph glyph-name="uni1288" unicode="&#x1288;" horiz-adv-x="1674" 
d="M471 1236q27 6 56 11t55.5 9t48 6t33.5 2q38 0 53.5 -15t15.5 -48q0 -17 -4.5 -56t-11 -87l-13 -100t-10.5 -95l77.5 4t72 4l60.5 3.5t42 1.5q36 0 51 -22t15 -51q0 -4 -1.5 -13t-3.5 -23l-10.5 -42.5t-12.5 -46.5q91 6 149 9.5t95.5 6t61 4.5t46.5 5q32 4 61 8.5t64 4.5
q91 0 142 -46.5t51 -140.5q0 -35 -13 -73t-36.5 -69.5t-55 -52t-68.5 -20.5q-20 0 -48 1t-49 1q-17 0 -35 -2t-36 -5t-34 -5t-27 -2q-29 0 -53.5 14.5t-42 37.5t-27.5 50t-10 53q0 36 10.5 83.5t32.5 89.5l-193 -10l-39.5 -145.5l-38.5 -143.5l-31.5 -120.5t-17.5 -76.5
q-3 -15 -3 -27q0 -26 17.5 -42.5t59.5 -18.5l-2 -39l-54 -6.5t-54.5 -6l-49 -4.5t-37.5 -2q-47 0 -64.5 23t-17.5 55q0 16 3 33q7 38 23 98l36 132.5l41.5 153t40.5 160.5q5 17 8.5 37t3.5 38q0 16 -4 29.5t-13 24t-24.5 16.5t-39.5 6q-26 0 -64 -1.5l-86 -3.5
q-29 -2 -40.5 7.5t-11.5 35.5q0 14 2.5 40l5.5 58l-190 -9q2 -53 -11.5 -97.5t-40 -76.5t-65 -50t-87.5 -18q-43 0 -74 10q27 50 42.5 94.5t15.5 100.5q0 15 -1.5 31t-3.5 33l3 12l419 25q2 21 5 45t6 45t5 37.5t2 22.5q0 59 -72 64v37zM1375 369q30 0 53.5 15t39.5 38.5
t24.5 52.5t8.5 58q0 54 -25 87t-73 33q-36 0 -60.5 -11.5t-39.5 -31.5t-22 -46.5t-7 -57.5q0 -25 6 -49.5t19 -44t31.5 -31.5t44.5 -12z" />
    <glyph glyph-name="uni128A" unicode="&#x128a;" horiz-adv-x="1727" 
d="M471 1236q27 6 56 11t55.5 9t48 6t33.5 2q38 0 53.5 -15t15.5 -48q0 -17 -4.5 -56t-11 -87l-13 -100t-10.5 -95l77.5 4t72 4l60.5 3.5t42 1.5q36 0 51 -22t15 -51q0 -4 -1.5 -13t-3.5 -23l-10.5 -42.5t-12.5 -46.5l-14 -54l213 12l23 86q3 12 5 23.5t2 22.5
q0 21 -10 36.5t-37 17.5l2 37q25 6 52 11t51.5 9t45 6t32.5 2q36 0 49 -18t13 -43q0 -11 -2 -23.5t-5 -23.5l-17.5 -68.5l-19.5 -77l-19.5 -78t-16.5 -70.5l322 19q-8 -25 -13.5 -54.5t-5.5 -59.5q0 -45 15 -85t53 -65v-16q-43 -22 -93 -22q-41 0 -76.5 16.5t-61.5 46.5
t-39.5 72t-10.5 93q-27 -2 -50.5 -3.5l-45.5 -3t-44.5 -2t-49.5 -0.5q-48 0 -65.5 16.5t-17.5 42.5q0 15 8 49l13 49l-215 -12l-36 -133.5l-33.5 -127l-27 -105t-15.5 -66.5q-3 -15 -3 -27q0 -26 17.5 -42.5t59.5 -18.5l-2 -39l-54 -6.5t-54.5 -6l-49 -4.5t-37.5 -2
q-47 0 -64.5 23t-17.5 55q0 16 3 33q7 38 23 98l36 132.5l41.5 153t40.5 160.5q5 17 8.5 37t3.5 38q0 16 -4 29.5t-13 24t-24.5 16.5t-39.5 6q-26 0 -64 -1.5l-86 -3.5q-29 -2 -40.5 7.5t-11.5 35.5q0 14 2.5 40l5.5 58l-190 -9q2 -53 -11.5 -97.5t-40 -76.5t-65 -50
t-87.5 -18q-43 0 -74 10q27 50 42.5 94.5t15.5 100.5q0 15 -1.5 31t-3.5 33l3 12l419 25q2 21 5 45t6 45t5 37.5t2 22.5q0 59 -72 64v37z" />
    <glyph glyph-name="uni128B" unicode="&#x128b;" horiz-adv-x="1282" 
d="M170 401q136 20 265.5 32.5t266.5 18.5q25 88 47 182t39 182q4 20 7.5 40t3.5 38q0 33 -16 54.5t-63 21.5q-26 0 -66.5 -4t-86.5 -8q-29 -2 -40.5 7.5t-11.5 35.5q0 14 2.5 40l5.5 58l-190 -19q3 -54 -10 -100t-39.5 -79t-66 -51.5t-88.5 -18.5q-43 0 -74 10
q27 50 42.5 94.5t15.5 100.5q0 15 -1.5 31t-3.5 33l3 12l419 42l9 79t4 49q0 59 -72 64v37q27 6 56 11t55.5 9t48 6t33.5 2q38 0 53.5 -15t15.5 -48q0 -17 -4 -52.5l-9 -79.5t-11 -92t-10 -91l75.5 8t70.5 7t59.5 4.5t41.5 1.5q33 0 49 -20.5t16 -53.5q0 -23 -4 -35
l-23 -106.5l-28.5 -125l-32 -131.5l-32.5 -125q15 0 30 0.5t30 0.5q44 0 95.5 -2t89.5 -6q19 -2 31 -10.5t18.5 -19t9 -20.5t2.5 -14q0 -28 -4 -65l-8.5 -75t-8 -74t-3.5 -62q0 -59 49 -63v-37q-25 -6 -51 -10.5t-49.5 -7.5t-43 -4.5t-31.5 -1.5q-38 0 -52.5 17.5
t-14.5 43.5q0 5 0.5 12.5t1.5 13.5q2 20 6 51.5l8 65t7 64.5t3 49q0 22 -2.5 39t-8.5 27q-6 9 -23 15t-41 9t-52.5 4t-56.5 1q-72 0 -139 -2.5t-124.5 -7t-103 -10t-72.5 -11.5q6 -50 -11.5 -95.5t-52 -79.5t-84 -53t-106.5 -16l-6 14q31 42 44.5 86t13.5 90q0 20 -3 41.5
t-8 46.5z" />
    <glyph glyph-name="uni128C" unicode="&#x128c;" horiz-adv-x="1385" 
d="M700 362q7 38 16 79.5l20 92l24 112.5l29 142q4 20 7.5 40t3.5 38q0 33 -16 54.5t-63 21.5q-26 0 -66.5 -4t-86.5 -8q-29 -2 -40.5 7.5t-11.5 35.5q0 14 2.5 40l5.5 58l-190 -19q3 -54 -10 -100t-39.5 -79t-66 -51.5t-88.5 -18.5q-43 0 -74 10q27 50 42.5 94.5
t15.5 100.5q0 15 -1.5 31t-3.5 33l3 12l419 42l9 79t4 49q0 59 -72 64v37q27 6 56 11t55.5 9t48 6t33.5 2q38 0 53.5 -15t15.5 -48q0 -17 -4 -52.5l-9 -79.5t-11 -92t-10 -91l75.5 8t70.5 7t59.5 4.5t41.5 1.5q32 0 48 -20.5t16 -53.5q0 -23 -4 -35l-17 -78l-14 -62.5
l-16 -70.5t-22 -101q72 14 127 23.5t103 9.5q34 0 64 -10t51.5 -29t34 -47.5t12.5 -64.5q0 -57 -20.5 -97.5t-55 -67t-79 -39t-92.5 -12.5q-17 0 -39 2t-36 5q-20 -4 -47.5 -8t-57 -7.5t-58 -6.5t-50.5 -5l-330 -31q1 -5 1.5 -9t0.5 -6v-14q0 -41 -16.5 -78t-44.5 -64.5
t-63.5 -44t-74.5 -16.5q-35 0 -69 15q26 43 41 83.5t15 86.5q0 37 -12 82l465 46q-11 13 -10.5 29t2.5 32zM913 494q-6 -23 -9.5 -44t-3.5 -39q0 -38 22 -61t84 -23q35 0 62 11.5t45 31.5t27.5 47t9.5 57q0 45 -22 67.5t-70 22.5q-26 0 -58 -4.5t-74 -11.5z" />
    <glyph glyph-name="uni128D" unicode="&#x128d;" horiz-adv-x="1604" 
d="M1376 736l-44 -165h221q-11 -27 -17.5 -60.5t-6.5 -67.5q0 -39 11 -74.5t39 -58.5l-2 -18q-29 -13 -72 -13q-36 0 -69.5 13t-59 38.5t-40.5 63t-15 85.5q0 8 0.5 16.5t1.5 16.5h-384l-31 -118.5l-29.5 -111l-23.5 -91t-13 -57.5q-3 -15 -3 -27q0 -26 17.5 -42.5
t59.5 -18.5l-2 -39l-54 -6.5t-54.5 -6l-49 -4.5t-37.5 -2q-47 0 -64.5 23t-17.5 55q0 16 3 33q7 38 23 98l36 132.5l41.5 153t40.5 160.5q5 17 8.5 37t3.5 38q0 16 -4 29.5t-13 24t-24.5 16.5t-39.5 6q-26 0 -64 -1.5l-86 -3.5q-29 -2 -40.5 7.5t-11.5 35.5q0 14 2.5 40
l5.5 58l-190 -9q2 -53 -11.5 -97.5t-40 -76.5t-65 -50t-87.5 -18q-43 0 -74 10q27 50 42.5 94.5t15.5 100.5q0 15 -1.5 31t-3.5 33l3 12l419 25q2 21 5 45t6 45t5 37.5t2 22.5q0 59 -72 64v37q27 6 56 11t55.5 9t48 6t33.5 2q38 0 53.5 -15t15.5 -48q0 -17 -4.5 -56t-11 -87
l-13 -100t-10.5 -95l77.5 4t72 4l60.5 3.5t42 1.5q36 0 51 -22t15 -51q0 -4 -1.5 -13t-3.5 -23l-10.5 -42.5t-12.5 -46.5l-14 -51.5l-15 -55.5h181l45 165h195z" />
    <glyph glyph-name="uni1290" unicode="&#x1290;" horiz-adv-x="713" 
d="M311 903q33 5 73.5 10t78.5 9t69 6.5t45 2.5q36 0 53.5 -20.5t17.5 -53.5q0 -7 -1.5 -15.5l-3.5 -19.5l-28.5 -112.5l-35 -132.5l-37.5 -138.5l-34.5 -130l-27 -106.5t-15.5 -68q-2 -8 -2.5 -12.5t-0.5 -9.5q-1 -31 17 -47t60 -19l-2 -39q-26 -3 -53.5 -6.5t-53.5 -6
l-48 -4.5t-37 -2q-45 0 -63.5 21.5t-18.5 54.5q0 23 4 35q7 38 24 103.5l39 145l45 166t42 166.5q5 22 9 42t4 37q0 18 -4.5 32.5t-16 25t-32.5 16t-54 5.5q-29 0 -67 -3t-77 -7q-29 -3 -40.5 7t-11.5 36q0 12 2 37.5t5.5 56.5l7.5 65l7.5 64t5.5 52.5t2 30.5q0 59 -72 64
v37q27 6 56 11t55.5 9t48 6t33.5 2q38 0 53.5 -15t15.5 -48q0 -17 -4 -56t-10 -88l-12 -101t-10 -95z" />
    <glyph glyph-name="uni1291" unicode="&#x1291;" horiz-adv-x="1051" 
d="M311 903q33 5 73.5 10t78.5 9t69 6.5t45 2.5q36 0 53.5 -20.5t17.5 -53.5q0 -7 -1.5 -15.5l-3.5 -19.5q-8 -35 -19.5 -78.5l-24.5 -91.5l382 28q-9 -28 -14 -55t-5 -53q0 -45 15.5 -80t48.5 -58l-1 -16q-26 -13 -50 -18t-47 -5q-37 0 -69 14t-55 41t-36.5 66t-13.5 90
l-171 -11l-38.5 -143.5l-35.5 -135.5l-28 -111.5t-16 -70.5q-2 -8 -2.5 -12.5t-0.5 -9.5q-1 -31 17 -47t60 -19l-2 -39q-26 -3 -53.5 -6.5t-53.5 -6l-48 -4.5t-37 -2q-45 0 -63.5 21.5t-18.5 54.5q0 23 4 35q7 38 24 103.5l39 145l45 166t42 166.5q5 22 9 42t4 37
q0 18 -4.5 32.5t-16 25t-32.5 16t-54 5.5q-29 0 -67 -3t-77 -7q-29 -3 -40.5 7t-11.5 36q0 12 2 37.5t5.5 56.5l7.5 65l7.5 64t5.5 52.5t2 30.5q0 59 -72 64v37q27 6 56 11t55.5 9t48 6t33.5 2q38 0 53.5 -15t15.5 -48q0 -17 -4 -56t-10 -88l-12 -101t-10 -95z" />
    <glyph glyph-name="uni1292" unicode="&#x1292;" horiz-adv-x="920" 
d="M320 890l89 8.5t95.5 8t84.5 6t55 2.5q45 0 68.5 -22t23.5 -54q0 -10 -2.5 -19.5t-6.5 -19.5l-47 -112l-57 -130.5l-59.5 -135.5l-55 -127l-44 -104t-25.5 -67q-2 -11 -3.5 -18t-1.5 -11q0 -17 8 -26t29 -9q11 0 29 0.5t39 1.5t44 2.5t44 3.5q14 58 68.5 92t154.5 39
l3 -23q-14 -22 -23 -50.5t-9 -57.5q0 -42 15.5 -78t53.5 -55l-2 -22q-20 -5 -42 -7.5t-44 -2.5q-30 0 -59 5.5t-53 18.5t-41 33t-23 49q-120 -18 -194.5 -25t-119.5 -7q-52 0 -73.5 21.5t-21.5 53.5q0 9 2 19t5 20q13 38 38 97.5l56 131l66.5 151.5l69.5 159q11 26 18 53
t7 50q0 19 -5 35.5t-19 28.5t-38.5 19t-63.5 7q-32 0 -75.5 -3t-88.5 -5q-29 -3 -40.5 7t-11.5 36q0 12 2 37t5.5 56l7.5 64.5l7.5 63t5.5 52t2 30.5q0 59 -72 64v37q27 6 56 11t55 9t47.5 6t33.5 2q38 0 53.5 -15t15.5 -48q0 -17 -4 -56t-10 -87l-12 -99.5t-10 -94.5z" />
    <glyph glyph-name="uni1293" unicode="&#x1293;" horiz-adv-x="1002" 
d="M726 1203q-11 1 -18.5 1.5t-12.5 0.5h-24q-205 -2 -308.5 -101.5t-103.5 -295.5q0 -94 47.5 -147.5t150.5 -53.5q15 0 37 3t46.5 6l49.5 6t46 3q97 0 97 -91q0 -15 -3 -31l-27.5 -179l-27.5 -179q-3 -18 -3 -31q-2 -35 9 -50.5t41 -17.5l-2 -37q-26 -6 -52 -11t-50 -9
t-43 -6t-31 -2q-35 0 -51 16.5t-16 53.5q0 17 3 38q13 91 27.5 181.5l28.5 184.5q1 5 1.5 9.5t0.5 12.5q0 38 -32.5 56.5t-86.5 18.5q-60 0 -110 -10t-86 -10q-45 0 -75 21t-47 55.5t-24 77.5t-7 88q0 104 22.5 181t66 132t106 90.5t142.5 56t176 28.5t206 8q41 0 77.5 -0.5
t84.5 -2.5q-5 -22 -7.5 -44t-2.5 -44q0 -42 11.5 -81.5t37.5 -73.5l2 -16q-51 -17 -85 -17q-38 0 -71 13.5t-58 40.5t-39 66.5t-13 91.5z" />
    <glyph glyph-name="uni1294" unicode="&#x1294;" horiz-adv-x="892" 
d="M335 890q34 4 76 8.5t81.5 8t71.5 6t47 2.5q38 0 59 -22t21 -54q0 -10 -3 -19.5t-7 -19.5l-47.5 -97.5l-56 -114l-59.5 -120.5l-58 -117q69 13 127 20.5t107 7.5q69 0 113.5 -31.5t44.5 -98.5q0 -59 -23 -105.5t-60.5 -78t-86.5 -48t-100 -16.5q-26 0 -49.5 1t-51.5 3
q-24 -5 -61 -10t-75.5 -9t-72 -6.5t-50.5 -2.5q-54 0 -76 21.5t-22 53.5q0 12 8 39q16 38 46 100l67 137l78.5 157.5l80.5 161.5q12 24 20.5 48.5t8.5 47.5q0 34 -21.5 57t-78.5 23q-24 0 -60 -2.5t-69 -5.5q-29 -2 -40.5 7.5t-11.5 35.5q0 12 2 37t5.5 56l7.5 64.5l7.5 63
t5.5 52t2 30.5q0 59 -72 64v37q27 6 56 11t55 9t47.5 6t33.5 2q38 0 53.5 -15t15.5 -48q0 -17 -4 -56t-10 -87l-12 -99.5t-10 -94.5zM343 104q-3 -8 -3 -12q0 -14 15.5 -21.5t37.5 -11t45.5 -4t38.5 -0.5q39 0 73.5 10t60 31t40 53.5t14.5 77.5q0 84 -96 84q-26 0 -62 -4.5
t-75 -11.5z" />
    <glyph glyph-name="uni1295" unicode="&#x1295;" horiz-adv-x="965" 
d="M44 1193q57 13 111.5 28t110 27.5t112.5 21t119 8.5q133 0 192 -43.5t59 -127.5q0 -55 -22 -124.5t-64 -157.5l112 9t76 4q45 0 65 -21t20 -50q0 -12 -8 -38l-48.5 -105.5l-54 -115l-54.5 -116l-50 -107l-40 -88.5t-25 -61q-6 -15 -6 -29q0 -54 80 -59l-2 -39l-55.5 -6.5
t-58 -6l-53 -4.5t-40.5 -2q-51 0 -72.5 21.5t-21.5 50.5q0 12 8 39q15 38 42 96.5l60.5 129.5l71 150l73.5 158q23 58 23 83q0 30 -21.5 40t-66.5 10q-25 0 -61 -2.5t-73 -4.5q-18 -2 -26.5 -0.5t-8.5 9.5q0 5 4 15.5t9 19.5q40 88 65 158t25 122q0 28 -7.5 50.5t-25 37.5
t-47 23t-74.5 8q-29 0 -60.5 -4t-63.5 -10q7 -21 7 -53q0 -39 -12.5 -75.5t-36 -64t-56 -44.5t-72.5 -17q-32 0 -50 7q13 32 20.5 63t7.5 60t-9 57t-29 58z" />
    <glyph glyph-name="uni1296" unicode="&#x1296;" horiz-adv-x="1200" 
d="M591 1066q0 19 1.5 38t6 39t12.5 43.5t21 52.5q-104 -10 -175.5 -40t-115.5 -79.5t-63 -119.5t-19 -160q0 -109 49.5 -155t156.5 -46q16 0 39 3t48.5 6l51.5 6t48 3q49 0 75 -23.5t26 -68.5q0 -14 -3 -30l-14.5 -94.5l-15.5 -100.5l-15.5 -100.5l-14.5 -94.5
q-3 -18 -3 -31q-2 -35 9 -50.5t41 -17.5l-2 -37q-26 -6 -52 -11t-50 -9t-43 -6t-31 -2q-35 0 -51 16.5t-16 53.5q0 17 3 38q6 45 13.5 95.5t16 102.5l16.5 103l15 97q1 5 1.5 9.5t0.5 12.5q0 38 -33.5 56.5t-90.5 18.5q-61 0 -113.5 -10t-90.5 -10q-48 0 -79 21t-49 55.5
t-25 77.5t-7 88q0 136 37.5 224.5t105 143t160.5 82t204 41.5q87 10 147.5 19l104 15.5t75 10t60.5 3.5q50 0 91.5 -12.5t71.5 -37.5t46.5 -63t16.5 -88q0 -38 -14.5 -77.5t-40.5 -71.5t-61.5 -52.5t-77.5 -20.5q-23 0 -52 1.5t-52 1.5q-19 0 -41 -4.5t-43 -9.5l-39.5 -9.5
t-31.5 -4.5q-33 0 -60 16t-46 40.5t-29.5 54.5t-10.5 58zM878 982q35 0 62 14.5t45.5 37.5t28 53t9.5 62q0 58 -28.5 93.5t-85.5 35.5q-41 0 -69.5 -12t-46 -33.5t-25.5 -50.5t-8 -63q0 -27 7.5 -52t22.5 -43.5t37 -30t51 -11.5z" />
    <glyph glyph-name="uni1297" unicode="&#x1297;" horiz-adv-x="1066" 
d="M438 81q7 42 16 88l18 92.5l17 91.5t14 84q1 5 1.5 10t0.5 10q0 38 -27 55.5t-81 17.5t-99.5 -5t-77.5 -5q-41 0 -68 19.5t-43 51.5t-22.5 73.5t-6.5 86.5q0 104 22.5 181t66 132t106 90.5t142.5 56t176 28.5t206 8q41 0 77.5 -0.5t84.5 -2.5q-5 -22 -7.5 -44t-2.5 -44
q0 -42 11.5 -81.5t37.5 -73.5l2 -16q-51 -17 -85 -17q-38 0 -71 13.5t-58 40.5t-39 66.5t-13 91.5q-11 1 -18.5 1.5t-12.5 0.5h-24q-205 -2 -308.5 -101.5t-103.5 -295.5q0 -94 43 -145t137 -51q14 0 33.5 1t41.5 2.5l44.5 3t42.5 1.5q42 0 65 -21.5t23 -64.5q0 -15 -3 -31
q-7 -44 -16 -93l-19 -100l-19.5 -101t-16.5 -95l372 22q-5 -23 -8 -42.5t-3 -36.5q-2 -45 10 -90t38 -79l2 -16q-25 -8 -50 -11t-49 -2q-41 1 -75 14.5t-58 39.5t-37 63.5t-11 87.5l-456 -25q-8 -61 -30.5 -104t-56 -70.5t-75.5 -40t-88 -12.5h-20q-5 0 -10 0.5t-10 1.5v19
q26 31 38 72t12 83q0 36 -9 71l-1 23z" />
    <glyph glyph-name="uni1298" unicode="&#x1298;" horiz-adv-x="1192" 
d="M693 1189q-3 -28 -9.5 -73.5l-14 -95.5l-14 -97.5t-9.5 -80.5l67.5 8.5t70.5 8t61.5 6t41.5 2.5q36 0 54 -21.5t18 -50.5q0 -9 -2 -18.5t-5 -18.5l-36 -108l-41.5 -121l-43 -123.5l-39 -114.5l-30.5 -94t-18 -63q-4 -8 -4 -26q0 -29 19 -46.5t58 -19.5l-2 -39l-54.5 -6.5
t-55.5 -6l-50.5 -4.5t-38.5 -2q-48 0 -67.5 21.5t-19.5 54.5q0 7 1.5 15.5l3.5 19.5q10 39 29.5 95l43.5 124l51 145l53 157q8 25 14.5 49t6.5 44q0 29 -19.5 47.5t-72.5 18.5q-25 0 -60 -3t-70 -7q-26 -3 -37 7t-11 38q0 12 3.5 40.5t8.5 65.5l11 78l11.5 78.5l9.5 66
t5 40.5l-224 -13q-13 -64 -75 -91.5t-168 -32.5l-2 16q24 31 37.5 65.5t13.5 68.5q0 35 -17 67t-56 55l2 16q36 9 77 9q33 0 65 -7t57.5 -21t42.5 -36t20 -53l661 40q17 57 72.5 90.5t152.5 36.5l1 -17q-25 -50 -25 -111q0 -39 15 -74t51 -60v-16q-23 -5 -46.5 -8t-47.5 -3
q-29 0 -57.5 5t-52 17t-39.5 32t-21 50z" />
    <glyph glyph-name="uni1299" unicode="&#x1299;" horiz-adv-x="1444" 
d="M693 1189q-3 -28 -9.5 -73.5l-14 -95.5l-14 -97.5t-9.5 -80.5l67.5 8.5t70.5 8t61.5 6t41.5 2.5q36 0 54 -21.5t18 -50.5q0 -9 -2 -18.5t-5 -18.5q-8 -26 -18 -55l-20 -59l463 27q-14 -50 -14 -87q0 -42 13.5 -78t42.5 -65l-2 -16q-25 -12 -50.5 -20t-51.5 -8
q-35 0 -64.5 14t-50.5 40t-32.5 63.5t-9.5 85.5l-265 -16l-47 -137.5l-44.5 -131l-36 -109.5t-21.5 -72q-4 -8 -4 -26q0 -29 19 -46.5t58 -19.5l-2 -39l-54.5 -6.5t-55.5 -6l-50.5 -4.5t-38.5 -2q-48 0 -67.5 21.5t-19.5 54.5q0 7 1.5 15.5l3.5 19.5q10 39 29.5 95l43.5 124
l51 145l53 157q8 25 14.5 49t6.5 44q0 29 -19.5 47.5t-72.5 18.5q-25 0 -60 -3t-70 -7q-26 -3 -37 7t-11 38q0 12 3.5 40.5t8.5 65.5l11 78l11.5 78.5l9.5 66t5 40.5l-224 -13q-13 -64 -75 -91.5t-168 -32.5l-2 16q24 31 37.5 65.5t13.5 68.5q0 35 -17 67t-56 55l2 16
q36 9 77 9q33 0 65 -7t57.5 -21t42.5 -36t20 -53l661 40q17 57 72.5 90.5t152.5 36.5l1 -17q-25 -50 -25 -111q0 -39 15 -74t51 -60v-16q-23 -5 -46.5 -8t-47.5 -3q-29 0 -57.5 5t-52 17t-39.5 32t-21 50z" />
    <glyph glyph-name="uni129A" unicode="&#x129a;" horiz-adv-x="1272" 
d="M693 1189q-3 -28 -9.5 -73.5l-14 -95.5l-14 -97.5t-9.5 -80.5l67.5 8.5t70.5 8t61.5 6t41.5 2.5q36 0 54 -21.5t18 -50.5q0 -11 -8 -37l-40.5 -108l-46.5 -121l-47 -123.5l-43 -114.5l-34.5 -94t-20.5 -63q-2 -7 -4 -16.5t-2 -15.5q0 -17 9 -26t30 -9q11 0 33 1t47.5 3
l52 4t47.5 4q14 58 68.5 92t154.5 39l3 -23q-14 -22 -23 -50.5t-9 -57.5q0 -42 15.5 -78t53.5 -55l-2 -22q-20 -5 -42 -7.5t-44 -2.5q-30 0 -59 5.5t-52.5 18.5t-40 33t-22.5 49q-50 -8 -100 -14.5t-95.5 -11.5t-84 -7.5t-65.5 -2.5q-49 0 -69 21.5t-20 54.5q0 17 6 35
q11 39 32.5 95l48.5 124l57.5 145l59.5 157q9 24 16.5 49t7.5 46q0 28 -19 46t-71 18q-24 0 -58.5 -3t-68.5 -7q-26 -3 -37 7t-11 38q0 12 3.5 40.5t8.5 65.5l11 78l11.5 78.5l9.5 66t5 40.5l-224 -13q-13 -64 -75 -91.5t-168 -32.5l-2 16q24 31 37.5 65.5t13.5 68.5
q0 35 -17 67t-56 55l2 16q36 9 77 9q33 0 65 -7t57.5 -21t42.5 -36t20 -53l661 40q17 57 72.5 90.5t152.5 36.5l1 -17q-25 -50 -25 -111q0 -39 15 -74t51 -60v-16q-23 -5 -46.5 -8t-47.5 -3q-29 0 -57.5 5t-52 17t-39.5 32t-21 50z" />
    <glyph glyph-name="uni129B" unicode="&#x129b;" horiz-adv-x="1172" 
d="M1075 1076q-16 -42 -16 -101q0 -82 37 -152q-42 -17 -79 -17q-35 0 -66 14t-54.5 41t-37 67.5t-12.5 93.5q-63 17 -131 32.5t-137 15.5q-73 0 -129.5 -21t-94.5 -59.5t-58 -93.5t-20 -124q0 -87 44.5 -124.5t136.5 -37.5q15 0 37.5 3l47 6l50 6t46.5 3q43 0 65.5 -21
t22.5 -60q0 -9 -1 -19.5t-4 -21.5l-44 -180.5t-42 -180.5q-3 -13 -5.5 -26.5t-2.5 -26.5q0 -19 9.5 -32t36.5 -14l-5 -37q-26 -6 -52.5 -11t-50.5 -9t-43.5 -6t-31.5 -2q-35 0 -48.5 17t-13.5 43q0 11 2 23t5 25q20 91 43 183l45 186q11 49 -18.5 73t-90.5 24
q-60 0 -110.5 -9t-86.5 -9q-41 0 -67 15t-41.5 40t-21.5 57.5t-6 68.5q0 93 30 166.5t86.5 125.5t136.5 82.5t179 38.5q5 33 9.5 66t8 61.5t6.5 49.5t4 31l-245 -14q-13 -64 -75 -91.5t-168 -32.5l-2 16q24 31 37.5 65.5t13.5 68.5q0 35 -17 67t-56 55l2 16q36 9 77 9
q33 0 65 -7t57.5 -21t42.5 -36t20 -53l661 40q17 57 72.5 90.5t152.5 36.5l1 -17q-25 -50 -25 -111q0 -39 15 -74t51 -60v-16q-23 -5 -46.5 -8t-47.5 -3q-29 0 -57.5 5t-52 17t-39.5 32t-21 50l-234 -14q-2 -18 -5.5 -44t-8 -55.5l-9.5 -62t-9 -63.5q38 -6 76.5 -14
t78 -14.5t81 -11.5t85.5 -5h28q7 0 14 0.5t15 1.5z" />
    <glyph glyph-name="uni129C" unicode="&#x129c;" horiz-adv-x="1237" 
d="M609 -16q-49 0 -69 21.5t-20 54.5q0 17 6 35q11 39 32.5 95l48.5 124l57.5 145l59.5 157q9 24 16.5 49t7.5 46q0 28 -19 46t-71 18q-24 0 -58.5 -3t-68.5 -7q-26 -3 -38 7t-10 38q1 12 4.5 39.5l8 63t10.5 76t11 77.5l9 67l6 46l-242 -21q-11 -64 -73 -93t-166 -37l-3 16
q23 32 35.5 65.5t12.5 65.5q0 38 -18.5 70.5t-57.5 53.5l1 16q45 12 94 12q31 0 60.5 -7.5t52.5 -22t38.5 -35.5t19.5 -48l660 58q15 57 69.5 92t151.5 41l2 -17q-23 -63 -23 -108q0 -42 16.5 -77.5t53.5 -58.5l1 -16q-54 -14 -96 -14q-30 0 -58 4.5t-51.5 16t-39.5 30.5
t-22 49l-235 -20q-3 -27 -10 -73l-14.5 -97t-14 -100t-9.5 -82l67.5 8.5t70.5 8t61.5 6t41.5 2.5q36 0 54 -21.5t18 -50.5q0 -11 -8 -37l-35 -94l-40 -106l-42.5 -111l-41.5 -109q60 11 111.5 17.5t103.5 6.5q66 0 105 -32.5t39 -95.5q0 -55 -21 -98t-56 -72t-80 -44.5
t-93 -15.5q-25 0 -51.5 1t-52.5 3q-22 -4 -53 -8.5t-61.5 -8t-56.5 -5.5t-38 -2zM733 111q-4 -7 -4 -22q0 -7 3.5 -13t12.5 -10.5t25.5 -7t42.5 -2.5q35 0 67.5 9t57 28t39 48.5t14.5 71.5q0 40 -20 63t-62 23q-20 0 -53 -3.5t-62 -8.5q-22 -58 -38.5 -105.5t-22.5 -70.5z
" />
    <glyph glyph-name="uni129D" unicode="&#x129d;" horiz-adv-x="1124" 
d="M31 1291q8 46 8 69q0 45 -13.5 88t-42.5 75l-3 15q46 18 98 18q36 0 70 -10.5t61 -32t43 -55.5t16 -82l551 55q-5 57 12.5 98t51 68t80.5 40t102 13h16t15 -1l8 -10q-29 -32 -42 -70t-13 -78q0 -42 17 -96l-413 -42q-3 -26 -6 -63t-5 -79q6 0 11.5 0.5t11.5 0.5
q41 0 69.5 -9.5t46.5 -27t26 -41.5t8 -53q0 -20 -3.5 -42.5t-9.5 -45.5l-28 -107l-28 -107q36 4 73 7.5t68.5 6t55 4t32.5 1.5q42 0 60.5 -21.5t18.5 -53.5q0 -23 -9 -50l-48 -147l-53 -156.5l-46.5 -139.5t-28.5 -96q-2 -14 -3.5 -22.5t-1.5 -10.5q0 -24 15 -38.5t54 -16.5
l-2 -39l-54 -6.5t-54 -6l-48 -4.5t-37 -2q-46 0 -65 22t-19 53q0 9 1 18t4 18q22 77 64 189t94 272q17 53 17 84q0 32 -18.5 51t-66.5 19q-26 0 -66.5 -4t-86.5 -8q-29 -2 -40.5 7.5t-4.5 35.5l29 113l29 113q5 22 11 46t6 45q0 26 -15 43t-60 17q-24 0 -52 -5.5t-57 -14.5
t-59.5 -21t-58.5 -25q2 -9 3 -19.5t1 -19.5q0 -43 -14 -83t-38.5 -71t-59 -50t-75.5 -19q-8 0 -17.5 1.5l-22.5 3.5q14 38 25.5 73t11.5 70q0 24 -7 47.5t-24 48.5l2 12q39 10 81.5 24.5l87 31l89.5 33t89 30.5q4 51 8 95.5t6 70.5z" />
    <glyph glyph-name="uni129E" unicode="&#x129e;" horiz-adv-x="1318" 
d="M763 1064q-81 15 -146 15q-98 0 -161 -29t-100 -74t-51 -100.5t-14 -107.5q0 -36 10.5 -62.5t34.5 -43.5t62 -25t93 -8q16 0 39 3t48.5 6l51.5 6t48 3q48 0 72.5 -23t24.5 -66q0 -15 -3 -33l-35.5 -190l-35.5 -190q-2 -13 -3.5 -24t-1.5 -22q0 -21 10 -36.5t39 -16.5
l-4 -37q-26 -6 -52 -11t-50 -9t-43 -6t-31 -2q-38 0 -51.5 18.5t-13.5 47.5q0 30 4 42l35.5 192.5l37.5 195.5q10 49 -21 73t-98 24q-61 0 -114 -10t-91 -10q-47 0 -76.5 15.5t-46.5 40.5t-23.5 56.5t-6.5 63.5q0 90 29 159t78.5 119t115.5 81t140 44l9.5 65.5t8 60.5
t6.5 49t4 31l-214 -12q-13 -64 -75 -91.5t-168 -32.5l-2 16q24 31 37.5 65.5t13.5 68.5q0 35 -17 67t-56 55l2 16q36 9 77 9q33 0 65 -7t57.5 -21t42.5 -36t20 -53l615 37q17 57 73 92.5t153 38.5l1 -17q-11 -26 -18 -54t-7 -57q0 -39 15 -74t51 -60v-16q-22 -5 -47.5 -8.5
t-51.5 -3.5q-29 0 -56 5t-49.5 16.5t-38.5 31t-22 48.5l-219 -13l-13 -91.5l-17 -116.5q48 -3 98.5 -8l98.5 -10q90 21 151 28t108 7q46 0 86.5 -10.5t69.5 -31.5t46 -53t17 -74q0 -37 -15 -74.5t-41.5 -68t-63.5 -50t-82 -19.5q-23 0 -52 1t-52 1q-19 0 -41 -4t-43.5 -8.5
l-40.5 -8.5t-32 -4q-33 0 -59 14.5t-44 36.5t-27.5 49t-9.5 53q0 44 13 78.5t35 78.5zM1000 832q36 0 64 13t47.5 35t29.5 50.5t10 58.5q0 48 -26.5 78.5t-83.5 30.5q-76 0 -115.5 -40t-39.5 -107q0 -24 7 -45.5t21 -38t35.5 -26t50.5 -9.5z" />
    <glyph glyph-name="uni129F" unicode="&#x129f;" horiz-adv-x="1171" 
d="M553 81q3 42 7 91.5t8.5 100l9 99t7.5 87.5q2 21 -5 30t-20 9q-21 0 -56.5 -18.5l-78.5 -42.5l-52.5 -28t-53.5 -25.5t-53 -19t-50 -7.5q-27 0 -50.5 11.5t-41 38.5t-27 71.5t-9.5 111.5q0 111 26.5 193.5t76 140t121 91.5t160.5 49q3 29 5.5 56.5t4 51t3 41t2.5 26.5
l-185 -15q-13 -64 -75 -91.5t-168 -32.5l-2 16q24 31 37.5 65.5t13.5 68.5q0 35 -17 67t-56 55l2 16q36 9 77 9q33 0 65 -7t57.5 -21t42.5 -36t20 -53l541 38q17 57 72.5 90.5t152.5 36.5l1 -17q-25 -50 -25 -111q0 -39 15 -74t51 -60v-16q-23 -5 -46.5 -8t-47.5 -3
q-29 0 -57.5 5t-52 17t-39.5 32t-21 50l-174 -11q-4 -29 -8 -74.5t-9 -96.5h7q36 0 68.5 -1.5t64.5 -3.5t64.5 -3.5t69.5 -1.5q-10 -36 -10 -83q0 -42 11.5 -80.5t38.5 -73.5v-14q-18 -5 -33.5 -6.5t-32.5 -1.5q-37 0 -69 12t-55 36.5t-36.5 62t-13.5 88.5q-25 4 -48 5.5
t-46 1.5q-178 0 -265.5 -98.5t-87.5 -293.5q0 -72 22.5 -100.5t58.5 -28.5q38 0 85 21.5t98 47.5q49 26 92.5 46.5t77.5 20.5q29 0 46.5 -20.5t17.5 -74.5q0 -8 -0.5 -16t-1.5 -17l-9 -97l-10 -108l-10 -108l-9 -98l372 22q-5 -23 -8 -42.5t-3 -36.5q-2 -45 10 -90t38 -79
l2 -16q-25 -8 -50 -11t-49 -2q-41 1 -75 14.5t-58 39.5t-37 63.5t-11 87.5l-453 -25q-8 -61 -30.5 -104t-56 -70.5t-75.5 -40t-88 -12.5h-20q-5 0 -10 0.5t-10 1.5v19q26 31 38 72t12 83q0 36 -9 71l-1 23z" />
    <glyph glyph-name="uni12A0" unicode="&#x12a0;" horiz-adv-x="1031" 
d="M423 961q33 5 92.5 17.5t140.5 25.5l6 -9q-60 -69 -119 -158t-113 -183l3 -1l78 22.5t86 23t78 17.5t55 7q18 0 33 -7.5t29.5 -30.5t28 -66t27.5 -114l70 -358q6 -30 13 -49t17 -29.5t23 -15t30 -5.5v-37q-22 -5 -46.5 -10t-47.5 -9t-42 -6.5t-31 -2.5q-19 0 -34.5 4.5
t-28.5 18.5t-23 39.5t-17 67.5l-60 328q-9 50 -22.5 82t-32 50t-42 24.5t-51.5 6.5q-26 0 -55.5 -2.5t-65.5 -8.5q-38 -74 -70 -146t-55 -135.5t-36 -115t-13 -84.5q0 -34 14 -52t55 -22v-39q-42 -7 -70.5 -11t-47 -5.5t-30 -2t-19.5 -0.5q-51 0 -73 28t-22 80
q0 56 20.5 128t54 150t76.5 158t88 153.5t88.5 135.5t78.5 104l-51 -8.5t-51.5 -8t-43 -5.5t-25.5 -2q-14 0 -21 5t-10 15.5t-3.5 25.5t-1.5 35q-4 71 -4.5 116.5t-1.5 81.5q-1 31 -3 52.5t-6.5 34.5t-14 19t-25.5 7v37q25 6 51.5 11.5t50 9.5t43 6.5t31.5 2.5q21 0 33 -6
t18 -19t7.5 -33.5t1.5 -49.5q0 -14 0.5 -45.5t1.5 -71.5t2.5 -83.5t3.5 -82.5z" />
    <glyph glyph-name="uni12A1" unicode="&#x12a1;" horiz-adv-x="1368" 
d="M423 961q33 5 92.5 17.5t140.5 25.5l6 -9q-60 -69 -119 -158t-113 -183l3 -1l78 22.5t86 23t78 17.5t55 7q18 0 33 -7.5t29.5 -30.5t28 -66t27.5 -114l4 -23l443 61l5 -5q-12 -48 -9 -97q4 -48 21 -91t46 -73q-48 -30 -94 -33q-36 -3 -69 10t-58.5 40t-40.5 67t-15 92
l-217 -30l54 -276q6 -30 13 -49t17 -29.5t23 -15t30 -5.5v-37q-22 -5 -46.5 -10t-47.5 -9t-42 -6.5t-31 -2.5q-19 0 -34.5 4.5t-28.5 18.5t-23 39.5t-17 67.5l-60 328q-9 50 -22.5 82t-32 50t-42 24.5t-51.5 6.5q-26 0 -55.5 -2.5t-65.5 -8.5q-38 -74 -70 -146t-55 -135.5
t-36 -115t-13 -84.5q0 -34 14 -52t55 -22v-39q-42 -7 -70.5 -11t-47 -5.5t-30 -2t-19.5 -0.5q-51 0 -73 28t-22 80q0 56 20.5 128t54 150t76.5 158t88 153.5t88.5 135.5t78.5 104l-51 -8.5t-51.5 -8t-43 -5.5t-25.5 -2q-14 0 -21 5t-10 15.5t-3.5 25.5t-1.5 35
q-4 71 -4.5 116.5t-1.5 81.5q-1 31 -3 52.5t-6.5 34.5t-14 19t-25.5 7v37q25 6 51.5 11.5t50 9.5t43 6.5t31.5 2.5q21 0 33 -6t18 -19t7.5 -33.5t1.5 -49.5q0 -14 0.5 -45.5t1.5 -71.5t2.5 -83.5t3.5 -82.5z" />
    <glyph glyph-name="uni12A2" unicode="&#x12a2;" horiz-adv-x="1451" 
d="M423 961q33 5 92.5 17.5t140.5 25.5l6 -9q-60 -69 -119 -158t-113 -183l3 -1l78 22.5t86 23t78 17.5t55 7q18 0 33 -7.5t29.5 -30.5t28 -66t27.5 -114l70 -358q7 -36 17.5 -59.5t35.5 -23.5q13 0 34 1t47 3.5l54.5 5.5t55.5 7q14 58 68.5 92t154.5 39l3 -23
q-14 -22 -22 -50.5t-8 -58.5q0 -45 17.5 -84t55.5 -58l-2 -22q-20 -5 -42 -7.5t-44 -2.5q-30 0 -59.5 6.5t-54 20t-42.5 35.5t-26 54q-127 -20 -206 -29.5t-121 -9.5q-19 0 -34.5 4.5t-28.5 18.5t-23 39.5t-17 67.5l-60 328q-9 50 -22.5 82t-32 50t-42 24.5t-51.5 6.5
q-26 0 -55.5 -2.5t-65.5 -8.5q-38 -74 -70 -146t-55 -135.5t-36 -115t-13 -84.5q0 -34 14 -52t55 -22v-39q-42 -7 -70.5 -11t-47 -5.5t-30 -2t-19.5 -0.5q-51 0 -73 28t-22 80q0 56 20.5 128t54 150t76.5 158t88 153.5t88.5 135.5t78.5 104l-51 -8.5t-51.5 -8t-43 -5.5
t-25.5 -2q-14 0 -21 5t-10 15.5t-3.5 25.5t-1.5 35q-4 71 -4.5 116.5t-1.5 81.5q-1 31 -3 52.5t-6.5 34.5t-14 19t-25.5 7v37q25 6 51.5 11.5t50 9.5t43 6.5t31.5 2.5q21 0 33 -6t18 -19t7.5 -33.5t1.5 -49.5q0 -14 0.5 -45.5t1.5 -71.5t2.5 -83.5t3.5 -82.5z" />
    <glyph glyph-name="uni12A3" unicode="&#x12a3;" horiz-adv-x="970" 
d="M366 929q33 5 92.5 17.5t140.5 25.5l6 -9q-60 -54 -120.5 -135.5t-115.5 -172.5l3 -2l78 22.5t86 23t78 17.5t55 7q18 0 33 -7.5t29.5 -30.5t28 -66t27.5 -114l70 -358q6 -30 13 -49t17 -29.5t23 -15t30 -5.5v-37q-22 -5 -46.5 -10t-47.5 -9t-42 -6.5t-31 -2.5
q-19 0 -34.5 4.5t-28.5 18.5t-23 39.5t-17 67.5l-60 328q-9 50 -22.5 82t-32 50t-42 24.5t-51.5 6.5q-26 0 -60 -2.5t-69 -9.5q-27 -47 -49 -92t-38 -85.5t-24.5 -75t-8.5 -60.5q0 -29 11 -43t45 -21v-39q-40 -6 -66 -9.5t-43 -5t-27 -2t-18 -0.5q-51 0 -73 23t-22 68
t18 100.5t47.5 115t67.5 120.5t78.5 116.5t80 102.5t72.5 80l-51 -8.5t-51.5 -8t-43 -5.5t-25.5 -2q-14 0 -21 5t-10 15.5t-3.5 25.5t-1.5 35q-2 36 -2.5 60.5t-1 44t-1 35.5t-1.5 34q-1 31 -3 52.5t-6.5 34.5t-14 19t-25.5 7v37q25 6 51.5 11.5t50 9.5t43 6.5t31.5 2.5
q21 0 33 -6t18 -19t7.5 -33.5t1.5 -49.5q0 -14 0.5 -41.5t1.5 -63t2.5 -75.5t3.5 -79z" />
    <glyph glyph-name="uni12A4" unicode="&#x12a4;" horiz-adv-x="1318" 
d="M848 250q2 -46 7 -81t18.5 -58t38 -35t66.5 -12q33 0 55.5 13t36.5 34t20 48t6 56q0 64 -30.5 99.5t-96.5 35.5q-34 0 -63 -7.5t-62 -18.5zM409 934q33 5 92.5 17.5t140.5 25.5l6 -9q-60 -69 -119 -158t-113 -183l3 -1q37 9 81 17.5t86 15.5t77 11t54 4q18 0 37 -7
t35.5 -30t28.5 -66t17 -115l5 -82q60 19 117 31.5t120 12.5q42 0 78.5 -11t64 -33t43 -55.5t15.5 -78.5q0 -57 -19.5 -99.5t-53 -70.5t-78.5 -41.5t-96 -13.5q-26 0 -51 3l-52.5 -11l-59 -11.5t-55 -9t-38.5 -3.5q-19 0 -36.5 4t-31 15.5t-22.5 32t-10 52.5l-19 305
q-2 55 -13.5 91t-32 56t-49 28t-64.5 8q-25 0 -51.5 -2.5t-57.5 -6.5q-35 -70 -64.5 -137.5t-50.5 -127.5t-33 -109t-12 -80q0 -34 14 -52t55 -22v-39q-42 -7 -70.5 -11t-47 -5.5t-30 -2t-19.5 -0.5q-51 0 -73 28t-22 80q0 54 19.5 123.5t52 145t74 153t85 148.5t85.5 131
t76 101l-51 -8.5t-51.5 -8t-43 -5.5t-25.5 -2q-14 0 -21 5t-10 15.5t-3.5 25.5t-1.5 35q-4 71 -4.5 116.5t-1.5 81.5q-1 31 -3 52.5t-6.5 34.5t-14 19t-25.5 7v37q25 6 51.5 11.5t50 9.5t43 6.5t31.5 2.5q21 0 33 -6t18 -19t7.5 -33.5t1.5 -49.5q0 -14 0.5 -45.5t1.5 -71.5
t2.5 -83.5t3.5 -82.5z" />
    <glyph glyph-name="uni12A5" unicode="&#x12a5;" horiz-adv-x="1035" 
d="M123 1342q20 2 43.5 4t49.5 2q33 0 68.5 -5t64 -18.5t47 -37t18.5 -60.5q0 -25 -6.5 -44t-17.5 -34l171 13l5 -6q-9 -16 -22.5 -42.5l-30 -59l-35.5 -69l-38 -72.5l162 12l4 -5q-51 -67 -96.5 -142.5l-90.5 -154.5l3 -1l81.5 22.5t90 23t82 17.5t58.5 7q19 0 35 -7.5
t31 -30.5t29 -66t29 -114l64 -327q6 -30 13 -49t17 -29.5t23 -15t30 -5.5v-37q-22 -5 -46.5 -10t-47.5 -9t-42 -6.5t-31 -2.5q-19 0 -34.5 4.5t-28.5 18.5t-23 39.5t-17 67.5l-54 297q-10 50 -24.5 82t-34.5 50t-45 24.5t-56 6.5q-28 0 -59.5 -2.5t-70.5 -8.5
q-35 -69 -64 -136.5t-50 -126.5t-32.5 -107.5t-11.5 -79.5q0 -34 14 -52t55 -22v-39q-42 -7 -70.5 -11t-47 -5.5t-30 -2t-19.5 -0.5q-51 0 -73 28t-22 80t17 117t45.5 136.5t65.5 145.5t77.5 144t81.5 132t77 109l-181 -12l-4 6l29.5 56.5l34 65l35 67l32.5 62.5
q-21 -12 -46.5 -19t-53 -10t-55.5 -4t-54 -1l-3 13q26 27 40 59.5t14 62.5q0 32 -16.5 61.5t-54.5 50.5z" />
    <glyph glyph-name="uni12A6" unicode="&#x12a6;" horiz-adv-x="1000" 
d="M399 929q33 5 92.5 17.5t140.5 25.5l6 -9q-54 -63 -107 -143.5t-101 -165.5l3 -1l78 22.5t86 23t78 17.5t55 7q18 0 33 -7.5t29 -30.5t27.5 -66t28.5 -114l44 -212q6 -30 13.5 -49t17.5 -29.5t22.5 -15t29.5 -5.5v-37q-22 -5 -46.5 -10t-47.5 -9t-42 -6.5t-31 -2.5
q-20 0 -35 4.5t-27 18.5t-21.5 39.5t-17.5 67.5l-36 182q-10 50 -24 82t-32 50t-41 24.5t-51 6.5q-26 0 -55.5 -2.5t-65.5 -8.5q-38 -74 -70 -146t-55 -135.5t-36 -115t-13 -84.5q0 -34 14 -52t55 -22v-39q-42 -7 -70.5 -11t-47 -5.5t-30 -2t-19.5 -0.5q-51 0 -73 28t-22 80
q0 54 19 123t50.5 144t72 152t83 147.5t83.5 130.5t74 100l-51 -8.5t-51.5 -8t-43 -5.5t-25.5 -2q-14 0 -21 5t-10 15.5t-3.5 25.5t-1.5 35q-2 36 -2.5 60.5t-1 44t-1 35.5t-1.5 34q-1 31 -3 52.5t-6.5 34.5t-14 19t-25.5 7v37q25 6 51.5 11.5t50 9.5t43 6.5t31.5 2.5
q21 0 33 -6t18 -19t7.5 -33.5t1.5 -49.5q0 -14 0.5 -41.5t1.5 -63t2.5 -75.5t3.5 -79z" />
    <glyph glyph-name="uni12A7" unicode="&#x12a7;" horiz-adv-x="1250" 
d="M653 1299l-5 -389l20 24q18 22 45.5 35.5t57.5 21t58 10.5t46 3l6 -9q-60 -69 -119 -158t-113 -183l3 -1l78 22.5t86 23t78 17.5t55 7q18 0 33 -7.5t29.5 -30.5t28 -66t27.5 -114l70 -358q6 -30 13 -49t17 -29.5t23 -15t30 -5.5v-37q-22 -5 -46.5 -10t-47.5 -9t-42 -6.5
t-31 -2.5q-19 0 -34.5 4.5t-28.5 18.5t-23 39.5t-17 67.5l-60 328q-9 50 -22.5 82t-32 50t-42 24.5t-51.5 6.5q-26 0 -55.5 -2.5t-65.5 -8.5q-38 -74 -70 -146t-55 -135.5t-36 -115t-13 -84.5q0 -34 14 -52t55 -22v-39q-42 -7 -70.5 -11t-47 -5.5t-30 -2t-19.5 -0.5
q-51 0 -73 28t-22 80q0 50 16.5 113.5t44 134t64 144t77 144t82.5 134.5t81 115l-143 -4l-4 4l5 422l-193 -5q-8 -32 -30 -53.5t-55.5 -35t-77.5 -20t-96 -7.5l-1 16q25 31 40 66.5t15 70.5q0 34 -16 65t-53 55l2 16q28 6 64 6q35 0 70.5 -7t65 -22t49 -38t22.5 -56l587 17
q19 55 81.5 87t159.5 33v-17q-13 -28 -20.5 -58t-7.5 -60q0 -37 14 -70.5t47 -58.5v-16q-17 -3 -37.5 -5t-42.5 -2q-32 0 -64.5 5t-59.5 18t-45.5 33.5t-23.5 52.5z" />
    <glyph glyph-name="uni12A8" unicode="&#x12a8;" horiz-adv-x="1093" 
d="M1026 15q-9 -3 -38 -8l-63 -10.5t-66 -9t-48 -3.5q-15 0 -22.5 9.5t-12.5 26.5q-8 27 -13 69t-7.5 84.5t-3 79t-0.5 53.5q0 62 2.5 124t5.5 117l5.5 99t2.5 71q0 43 -5.5 87t-23 79t-50 57t-85.5 22q-64 0 -108 -30t-72.5 -78t-44 -108t-22.5 -120.5t-8.5 -115
t-1.5 -90.5q0 -24 1 -60t3 -74.5t6.5 -74t11.5 -57.5q14 -45 36 -64.5t59 -27.5l-2 -37q-9 -4 -38 -10.5t-64 -13t-69.5 -11.5t-53.5 -5q-14 0 -25 6.5t-20 29.5q-10 26 -17.5 65.5t-13 83.5t-8 87.5t-2.5 78.5q0 68 3.5 142t16 146.5t37 140.5t66.5 123q-35 -5 -69.5 -8.5
t-50.5 -3.5q-28 0 -33 21.5t-3 61.5q1 36 2.5 77t3 76l2.5 59.5t1 27.5q0 64 -7.5 94.5t-39.5 32.5v37q25 6 52.5 11.5t52.5 9t45.5 6t32.5 2.5q21 0 33 -6t18 -19t7.5 -33.5t1.5 -49.5q0 -15 -1.5 -57.5l-3.5 -95.5l-4 -107.5t-3 -93.5q54 54 134.5 85t195.5 31
q102 0 164.5 -26.5t97.5 -71t47 -102.5t12 -121q0 -38 -2.5 -77t-6 -85t-6 -102.5t-2.5 -128.5q0 -71 1.5 -120.5t9 -82.5t24.5 -51t48 -26z" />
    <glyph glyph-name="uni12A9" unicode="&#x12a9;" horiz-adv-x="1442" 
d="M1026 15q-9 -3 -38 -8l-63 -10.5t-66 -9t-48 -3.5q-15 0 -22.5 9.5t-12.5 26.5q-8 27 -13 69t-7.5 84.5t-3 79t-0.5 53.5q0 62 2.5 124t5.5 117l5.5 99t2.5 71q0 43 -5.5 87t-23 79t-50 57t-85.5 22q-64 0 -108 -30t-72.5 -78t-44 -108t-22.5 -120.5t-8.5 -115
t-1.5 -90.5q0 -24 1 -60t3 -74.5t6.5 -74t11.5 -57.5q14 -45 36 -64.5t59 -27.5l-2 -37q-9 -4 -38 -10.5t-64 -13t-69.5 -11.5t-53.5 -5q-14 0 -25 6.5t-20 29.5q-10 26 -17.5 65.5t-13 83.5t-8 87.5t-2.5 78.5q0 68 3.5 142t16 146.5t37 140.5t66.5 123q-35 -5 -69.5 -8.5
t-50.5 -3.5q-28 0 -33 21.5t-3 61.5q1 36 2.5 77t3 76l2.5 59.5t1 27.5q0 64 -7.5 94.5t-39.5 32.5v37q25 6 52.5 11.5t52.5 9t45.5 6t32.5 2.5q21 0 33 -6t18 -19t7.5 -33.5t1.5 -49.5q0 -15 -1.5 -57.5l-3.5 -95.5l-4 -107.5t-3 -93.5q54 54 134.5 85t195.5 31
q102 0 164.5 -26.5t97.5 -71t47 -102.5t12 -121q0 -28 -1.5 -56t-3.5 -60l180 17q8 31 27.5 53.5t45.5 37t56.5 22t62.5 9.5q15 1 29.5 0.5t28.5 -2.5l2 -18q-20 -17 -30 -49t-8 -67t17 -65t48 -42l1 -18q-29 -11 -54.5 -16t-48.5 -7q-66 -3 -113 25t-66 82l-183 -18
q-3 -45 -5 -98.5t-2 -122.5q0 -71 1.5 -120.5t9 -82.5t24.5 -51t48 -26z" />
    <glyph glyph-name="uni12AA" unicode="&#x12aa;" horiz-adv-x="1474" 
d="M752 306q0 62 2.5 124t5.5 117l5.5 99t2.5 71q0 43 -5.5 87t-23 79t-50 57t-85.5 22q-64 0 -108 -30t-72.5 -78t-44 -108t-22.5 -120.5t-8.5 -115t-1.5 -90.5q0 -24 1 -60t3 -74.5t6.5 -74t11.5 -57.5q14 -45 36 -64.5t59 -27.5l-2 -37q-9 -4 -38 -10.5t-64 -13
t-69.5 -11.5t-53.5 -5q-14 0 -25 6.5t-20 29.5q-10 26 -17.5 65.5t-13 83.5t-8 87.5t-2.5 78.5q0 68 3.5 142t16 146.5t37 140.5t66.5 123q-35 -5 -69.5 -8.5t-50.5 -3.5q-28 0 -33 21.5t-3 61.5q1 36 2.5 77t3 76l2.5 59.5t1 27.5q0 64 -7.5 94.5t-39.5 32.5v37
q25 6 52.5 11.5t52.5 9t45.5 6t32.5 2.5q21 0 33 -6t18 -19t7.5 -33.5t1.5 -49.5q0 -15 -1.5 -57.5l-3.5 -95.5l-4 -107.5t-3 -93.5q54 54 134.5 85t195.5 31q102 0 164.5 -26.5t97.5 -71t47 -102.5t12 -121q0 -38 -2.5 -77t-6 -85t-6 -102.5t-2.5 -128.5q0 -81 2 -133
t13 -85q6 -19 20.5 -26t49.5 -7q26 0 68.5 1.5t87.5 7.5q14 58 68.5 92t154.5 39l3 -23q-14 -19 -22 -47t-8 -60q0 -40 16.5 -77t55.5 -57l-2 -22q-20 -5 -42 -7.5t-44 -2.5q-30 0 -59 5.5t-53 18.5t-41 33t-23 49q-124 -23 -199.5 -31t-110.5 -8q-60 0 -85 21.5t-30 56.5
q-5 31 -7.5 66.5t-4 68.5t-1.5 60v41z" />
    <glyph glyph-name="uni12AB" unicode="&#x12ab;" horiz-adv-x="1093" 
d="M455 352q-9 -4 -35 -10.5t-57.5 -12.5t-63 -10t-51.5 -4q-14 0 -25 4.5t-21 18.5q-26 37 -35.5 87t-9.5 104q0 106 29.5 197.5t89.5 161.5l-35.5 -4l-35.5 -4t-30.5 -3t-20.5 -1q-28 0 -33 21.5t-3 61.5q1 36 2.5 77t3 76l2.5 59.5t1 27.5q0 64 -7.5 94.5t-39.5 32.5v37
q25 6 52.5 11.5t52.5 9t45.5 6t32.5 2.5q21 0 33 -6t18 -19t7.5 -33.5t1.5 -49.5q0 -10 -0.5 -33t-1.5 -54t-2.5 -67.5t-2.5 -73.5t-2.5 -71t-2.5 -60q60 57 142 89t188 32q102 0 164.5 -26.5t97.5 -71t47 -102.5t12 -121q0 -38 -2.5 -77t-6 -85t-6 -102.5t-2.5 -128.5
q0 -71 1.5 -120.5t9 -82.5t24.5 -51t48 -26l-2 -37q-9 -3 -38 -8l-63 -10.5t-66 -9t-48 -3.5q-15 0 -22.5 9.5t-12.5 26.5q-8 27 -13 69t-7.5 84.5t-3 79t-0.5 53.5q0 62 2.5 124t5.5 117l5.5 99t2.5 71q0 43 -5.5 87t-23 79t-50 57t-85.5 22q-68 0 -115.5 -34t-77 -86.5
t-43 -117t-13.5 -124.5q0 -36 4.5 -72t16 -66t31 -50t50.5 -23z" />
    <glyph glyph-name="uni12AC" unicode="&#x12ac;" horiz-adv-x="1429" 
d="M752 295q0 62 2.5 125.5t5.5 120.5l5.5 103t2.5 73q0 43 -5.5 87t-23 79t-50 57t-85.5 22q-64 0 -108 -30t-72.5 -78t-44 -108t-22.5 -120.5t-8.5 -115t-1.5 -90.5q0 -24 1 -60t3 -74.5t6.5 -74t11.5 -57.5q14 -45 36 -64.5t59 -27.5l-2 -37q-9 -4 -38 -10.5t-64 -13
t-69.5 -11.5t-53.5 -5q-14 0 -25 6.5t-20 29.5q-10 26 -17.5 65.5t-13 83.5t-8 87.5t-2.5 78.5q0 68 3.5 142t16 146.5t37 140.5t66.5 123q-35 -5 -69.5 -8.5t-50.5 -3.5q-28 0 -33 21.5t-3 61.5q1 36 2.5 77t3 76l2.5 59.5t1 27.5q0 64 -7.5 94.5t-39.5 32.5v37
q25 6 52.5 11.5t52.5 9t45.5 6t32.5 2.5q21 0 33 -6t18 -19t7.5 -33.5t1.5 -49.5q0 -15 -1.5 -57.5l-3.5 -95.5l-4 -107.5t-3 -93.5q54 54 134.5 85t195.5 31q102 0 164.5 -26.5t97.5 -71t47 -102.5t12 -121q0 -38 -2.5 -76t-6 -84t-6 -101.5t-2.5 -127.5q69 14 129 22
t111 8q88 0 136 -43t48 -131q0 -54 -18.5 -92t-49 -63t-71.5 -36.5t-86 -11.5q-19 0 -35.5 1t-44.5 3q-23 -5 -57.5 -10t-70 -9t-67.5 -6.5t-49 -2.5q-34 0 -44 37q-8 28 -12.5 70.5t-7 86t-3.5 81t-1 55.5zM945 214q0 -44 3 -76.5t15 -54.5t35.5 -33t65.5 -11q31 0 54 11
t38 30t22 44t7 54q0 55 -25 87.5t-87 32.5q-26 0 -58 -4t-70 -11v-69z" />
    <glyph glyph-name="uni12AD" unicode="&#x12ad;" horiz-adv-x="1096" 
d="M115 585q14 91 47.5 168.5t93.5 141.5q-32 -4 -60 -6.5t-42 -2.5q-28 0 -33 21.5t-3 61.5q1 36 2.5 75t3 73l2.5 56.5t1 25.5q0 64 -7.5 94.5t-39.5 32.5v37q25 6 52.5 11.5t52.5 9t45.5 6t32.5 2.5q21 0 33 -6t18 -19t7.5 -33.5t1.5 -49.5q0 -14 -1.5 -54l-3.5 -90.5
l-4 -104t-3 -93.5q60 48 146 76t192 28q103 0 164.5 -28.5t94.5 -74.5t43.5 -104t10.5 -117q0 -38 -2.5 -76.5t-6 -84t-6 -101.5t-2.5 -128q0 -71 1.5 -120.5t9 -82.5t24.5 -51t48 -26l-2 -37q-9 -3 -38 -8l-63 -10.5t-66 -9t-48 -3.5q-15 0 -22.5 9.5t-12.5 26.5
q-8 27 -13 69t-7.5 84.5t-3 79t-0.5 53.5q0 62 2.5 123.5t5.5 116l5.5 98t2.5 70.5q0 41 -3.5 85t-20.5 80t-52.5 59.5t-98.5 23.5q-69 0 -117.5 -27.5t-81 -72.5t-52 -103t-29.5 -119l129 13l4 -6q-54 -81 -87.5 -173.5t-33.5 -189.5q0 -73 19 -130q14 -45 36 -64.5
t59 -27.5l-2 -37q-9 -4 -37.5 -11t-63 -13.5t-68.5 -11t-53 -4.5q-14 0 -25 6.5t-20 29.5q-19 48 -27.5 100.5t-8.5 107.5q0 97 23.5 190t65.5 171l-103 -10z" />
    <glyph glyph-name="uni12AE" unicode="&#x12ae;" horiz-adv-x="1098" 
d="M1026 368q-9 -3 -38 -8l-63 -10.5t-66 -9t-48 -3.5q-15 0 -22.5 6t-12.5 17q-8 18 -13 44.5t-7.5 53.5t-3 50t-0.5 35q0 48 2.5 97.5t2.5 100.5q0 44 -5.5 84t-21.5 70.5t-46.5 48.5t-79.5 18q-64 0 -108 -30t-72.5 -78t-44 -108t-22.5 -120.5t-8.5 -115t-1.5 -90.5
q0 -24 1 -60t3 -74.5t6.5 -74t11.5 -57.5q14 -45 36 -64.5t59 -27.5l-2 -37q-9 -4 -38 -10.5t-64 -13t-69.5 -11.5t-53.5 -5q-14 0 -25 6.5t-20 29.5q-10 26 -17.5 65.5t-13 83.5t-8 87.5t-2.5 78.5q0 68 3.5 142t16 146.5t37 140.5t66.5 123q-35 -5 -69.5 -8.5t-50.5 -3.5
q-28 0 -33 21.5t-3 61.5q1 36 2.5 77t3 76l2.5 59.5t1 27.5q0 64 -7.5 94.5t-39.5 32.5v37q25 6 52.5 11.5t52.5 9t45.5 6t32.5 2.5q21 0 33 -6t18 -19t7.5 -33.5t1.5 -49.5q0 -15 -1.5 -57.5l-3.5 -95.5l-4 -107.5t-3 -93.5q54 54 133.5 85t194.5 31q102 0 163.5 -27
t94 -70.5t43 -97.5t10.5 -108q0 -23 -1 -40.5t-1.5 -34.5t-1.5 -36.5t-1 -45.5q0 -47 1.5 -79t9 -53t24.5 -32.5t48 -16.5z" />
    <glyph glyph-name="uni12B0" unicode="&#x12b0;" horiz-adv-x="1674" 
d="M1026 15q-9 -3 -38 -8l-63 -10.5t-66 -9t-48 -3.5q-15 0 -22.5 9.5t-12.5 26.5q-8 27 -13 69t-7.5 84.5t-3 79t-0.5 53.5q0 62 2.5 124t5.5 117l5.5 99t2.5 71q0 43 -5.5 87t-23 79t-50 57t-85.5 22q-64 0 -108 -30t-72.5 -78t-44 -108t-22.5 -120.5t-8.5 -115
t-1.5 -90.5q0 -24 1 -60t3 -74.5t6.5 -74t11.5 -57.5q14 -45 36 -64.5t59 -27.5l-2 -37q-9 -4 -38 -10.5t-64 -13t-69.5 -11.5t-53.5 -5q-14 0 -25 6.5t-20 29.5q-10 26 -17.5 65.5t-13 83.5t-8 87.5t-2.5 78.5q0 68 3.5 142t16 146.5t37 140.5t66.5 123q-35 -5 -69.5 -8.5
t-50.5 -3.5q-28 0 -33 21.5t-3 61.5q1 36 2.5 77t3 76l2.5 59.5t1 27.5q0 64 -7.5 94.5t-39.5 32.5v37q25 6 52.5 11.5t52.5 9t45.5 6t32.5 2.5q21 0 33 -6t18 -19t7.5 -33.5t1.5 -49.5q0 -15 -1.5 -57.5l-3.5 -95.5l-4 -107.5t-3 -93.5q54 54 134.5 85t195.5 31
q102 0 164.5 -26.5t97.5 -71t47 -102.5t12 -121q0 -14 -0.5 -28.5t-1.5 -29.5l140.5 23l139 22.5t122.5 17t91 6.5q44 0 81 -11.5t63.5 -34.5t41.5 -57.5t15 -80.5q0 -35 -13 -73t-36.5 -69.5t-55.5 -52t-69 -20.5q-20 0 -48.5 1t-48.5 1q-17 0 -35.5 -2t-36 -5t-33.5 -5
t-27 -2q-30 0 -54 14.5t-41 37.5t-26 50t-9 53q0 36 10 75.5t26 84.5q-18 -2 -44.5 -6t-55.5 -9l-56 -9.5l-45 -7.5q-4 -54 -7.5 -119.5t-3.5 -156.5q0 -71 1.5 -120.5t9 -82.5t24.5 -51t48 -26zM1375 392q31 0 55.5 15t41 38.5t25 52.5t8.5 58q0 54 -25 85.5t-76 31.5
q-36 0 -61.5 -11t-41.5 -30.5t-23 -45.5t-7 -57q0 -25 6.5 -49.5t19.5 -44t32.5 -31.5t45.5 -12z" />
    <glyph glyph-name="uni12B2" unicode="&#x12b2;" horiz-adv-x="1683" 
d="M1009 15q-9 -3 -37.5 -8l-62 -10.5t-65 -9t-47.5 -3.5q-15 0 -22.5 9t-12.5 26q-8 26 -13 66t-7.5 81t-3 76t-0.5 52q0 60 2.5 119.5t5.5 112l5.5 95t2.5 68.5q0 42 -6 84t-23 76t-48.5 55t-82.5 21q-61 0 -103.5 -29t-70 -75t-42.5 -103.5t-22 -115.5t-8.5 -110
t-1.5 -87q0 -23 1 -57.5t3 -71.5t6.5 -71t11.5 -55q14 -43 36 -61.5t59 -26.5l-2 -37q-9 -4 -37.5 -11t-63 -13.5t-68.5 -11t-54 -4.5q-14 0 -25 6t-20 29q-10 25 -17.5 63t-13 80.5t-8 85t-2.5 75.5q0 66 3.5 137.5t16 141.5t37 135.5t66.5 118.5q-35 -5 -69.5 -8.5
t-50.5 -3.5q-28 0 -33 21t-3 59q1 30 2.5 65.5t2.5 66.5t2 52.5t1 23.5q0 56 -7.5 83t-39.5 29v37q25 6 52.5 11.5t52.5 9t45.5 6t32.5 2.5q21 0 33 -5.5t18 -17.5t7.5 -30.5t1.5 -44.5q0 -13 -1.5 -51.5t-3 -86t-3.5 -96.5t-3 -82q54 52 131.5 82t189.5 30q99 0 159.5 -26
t94 -69.5t45 -99.5t11.5 -117q0 -39 -3 -79l217 6l9 33.5l9 33.5l3.5 20t1.5 17q0 23 -11 41.5t-40 21.5v37q25 6 52.5 11t53 9t46 6t32.5 2q38 0 51 -19t13 -44q0 -11 -2 -21l-4 -21l-17 -67l-17.5 -75.5l-16.5 -75.5t-14 -68l319 8q-10 -25 -16 -54.5t-6 -59.5
q0 -39 13.5 -74t46.5 -57l-1 -17q-20 -8 -42 -12t-43 -4q-44 0 -77 15.5t-54 43.5t-31 66.5t-8 85.5q-51 -1 -97.5 -2.5t-100.5 -1.5q-27 0 -43.5 5.5t-26 14.5t-12.5 21t-3 25q0 11 2 21.5l4 21.5l12 53l-206 -5q-3 -48 -5.5 -104.5t-2.5 -132.5q0 -68 1.5 -116t9 -79.5
t24.5 -49t48 -25.5z" />
    <glyph glyph-name="uni12B3" unicode="&#x12b3;" horiz-adv-x="1368" 
d="M1262 373q0 -12 -1 -34t-1.5 -49.5t-1.5 -57.5t-1 -58q0 -64 9.5 -94.5t41.5 -32.5v-37q-52 -12 -98.5 -19t-70.5 -7q-21 0 -34 6t-19.5 19t-8.5 33t-2 49q0 42 0.5 82.5t0.5 74.5q0 38 -1 64.5t-5 31.5q-6 10 -22.5 16.5t-40.5 10.5t-53.5 5.5t-61.5 1.5
q-42 0 -85.5 -2.5t-82 -5.5t-69 -6t-46.5 -5q6 -50 -10.5 -95t-49.5 -79t-80.5 -53.5t-103.5 -19.5l-6 17q28 38 39.5 76t11.5 77q0 22 -3.5 47t-10.5 54q78 17 168.5 28t187.5 18q4 93 9 169.5t5 118.5q0 43 -5.5 87t-23 79t-50 57t-85.5 22q-68 0 -112.5 -34t-71.5 -87
t-38 -118t-11 -126q0 -20 1 -36.5t3 -36.5l-200 -19q-1 10 -1.5 18.5t-0.5 18.5q0 100 27 189t84 158q-17 -2 -36 -4l-37 -4t-33 -3.5t-22 -1.5q-28 0 -33 21.5t-3 61.5q1 36 2.5 77t3 76l2.5 59.5t1 27.5q0 64 -7.5 94.5t-39.5 32.5v37q25 6 52.5 11.5t52.5 9t45.5 6
t32.5 2.5q21 0 33 -6t18 -19t7.5 -33.5t1.5 -49.5q0 -15 -1.5 -58.5l-3.5 -98l-4 -110.5t-3 -95q58 58 140 91t188 33q102 0 164.5 -26.5t97.5 -71t47 -102.5t12 -121q0 -30 -2 -61t-4.5 -65.5t-5 -74t-4.5 -87.5q10 1 19 1h17h36q48 0 102 -2t96 -6q48 -5 48 -57z" />
    <glyph glyph-name="uni12B4" unicode="&#x12b4;" horiz-adv-x="1386" 
d="M281 968q-35 -5 -69.5 -8.5t-50.5 -3.5q-28 0 -33 21.5t-3 61.5q1 36 2.5 70.5t2.5 62.5t2 46t1 21q0 64 -7.5 94.5t-39.5 32.5v37q25 6 52.5 11.5t52.5 9t45.5 6t32.5 2.5q21 0 33 -6t18 -19t7.5 -33.5t1.5 -49.5q0 -15 -1.5 -51t-3 -82t-3.5 -94t-3 -87q60 63 135 88
t166 25q167 0 240 -79.5t73 -238.5q0 -29 -2.5 -59t-5 -66t-5 -81t-2.5 -103q66 14 123.5 22t105.5 8q85 0 132.5 -43t47.5 -131q0 -54 -18 -92t-48.5 -63t-70.5 -36.5t-83 -11.5q-18 0 -34 1t-42 3q-24 -5 -60 -10.5t-71 -9.5l-315 -56q3 -11 4 -21.5t1 -21.5
q0 -40 -16.5 -77t-43.5 -65.5t-62.5 -45.5t-74.5 -17q-35 0 -56 10q20 42 31.5 80t11.5 77q0 54 -19 98l386 69q-8 26 -12.5 63.5t-6.5 75.5t-2.5 70.5t-0.5 47.5q0 55 2.5 112t5.5 108l5.5 92t2.5 65q0 37 -5 80t-20 80t-42.5 61t-72.5 24q-53 0 -92 -24.5t-65.5 -64
t-43 -89.5t-26 -101t-12.5 -99t-3 -83q0 -37 2.5 -76t11.5 -72.5t25.5 -57t45.5 -29.5l-2 -37q-9 -4 -32 -9.5t-51.5 -10.5t-57 -8.5t-47.5 -3.5q-14 0 -25 5.5t-21 22.5q-26 45 -35.5 104.5t-9.5 125.5q0 129 29.5 238.5t89.5 194.5zM919 443v-35v-17t1 -17q2 -44 5 -76.5
t13.5 -54.5t31.5 -33t59 -11q28 0 50 11t36.5 30t22 44t7.5 54q0 57 -25.5 88.5t-82.5 31.5q-23 0 -53 -4t-65 -11z" />
    <glyph glyph-name="uni12B5" unicode="&#x12b5;" horiz-adv-x="1309" 
d="M1009 15q-9 -3 -37.5 -8l-62 -10.5t-65 -9t-47.5 -3.5q-15 0 -22.5 9t-12.5 26q-8 26 -13 66t-7.5 81t-3 76t-0.5 52q0 60 2.5 119.5t5.5 112l5.5 95t2.5 68.5q0 42 -6 84t-23 76t-48.5 55t-82.5 21q-61 0 -103.5 -29t-70 -75t-42.5 -103.5t-22 -115.5t-8.5 -110
t-1.5 -87q0 -23 1 -57.5t3 -71.5t6.5 -71t11.5 -55q14 -43 36 -61.5t59 -26.5l-2 -37q-9 -4 -37.5 -11t-63 -13.5t-68.5 -11t-54 -4.5q-14 0 -25 6t-20 29q-10 25 -17.5 63t-13 80.5t-8 85t-2.5 75.5q0 66 3.5 137.5t16 141.5t37 135.5t66.5 118.5q-35 -5 -69.5 -8.5
t-50.5 -3.5q-28 0 -33 21t-3 59q1 30 2.5 65.5t2.5 66.5t2 52.5t1 23.5q0 56 -7.5 83t-39.5 29v37q25 6 52.5 11.5t52.5 9t45.5 6t32.5 2.5q21 0 33 -5.5t18 -17.5t7.5 -30.5t1.5 -44.5q0 -13 -1.5 -51.5t-3 -86t-3.5 -96.5t-3 -82q54 52 131.5 82t189.5 30q98 0 158 -25.5
t94 -68.5q3 63 7 125t9 124l184 13q-4 -64 -6.5 -120.5t-4.5 -120.5l219 15q-8 -28 -12.5 -61.5t-2.5 -67.5q3 -39 16.5 -73.5t42.5 -56.5v-18q-19 -8 -37 -12t-35 -5q-36 -3 -69 8t-59.5 34.5t-43.5 60t-20 84.5q-1 8 -0.5 16.5t0.5 16.5l-159 -11q17 -38 23 -81t6 -88
l-10 -191t-5 -184q0 -68 1.5 -116t9 -79.5t24.5 -49t48 -25.5z" />
    <glyph glyph-name="uni12B8" unicode="&#x12b8;" horiz-adv-x="1378" 
d="M1310 15q-9 -3 -37.5 -8l-62.5 -10.5t-66 -9t-48 -3.5q-15 0 -22.5 9.5t-12.5 26.5q-8 27 -13 69t-7.5 84.5t-3.5 79t-1 53.5q0 63 3.5 126.5t8 119.5l8.5 102t4 73q0 44 -4 88t-19 79.5t-44 57.5t-78 22q-60 0 -102 -30t-70.5 -78t-45.5 -107t-26 -117.5t-11.5 -110
t-2.5 -83.5q0 -31 0.5 -70.5t2.5 -80t6.5 -78t12.5 -65.5q14 -45 36 -65t59 -28l-2 -37q-9 -4 -38 -10.5t-64 -13t-69.5 -11.5t-53.5 -5q-15 0 -26.5 6t-19.5 30q-10 32 -17.5 72.5t-13 85.5t-8 91t-2.5 89q0 75 6 152t21.5 150t43.5 138t72 117q-36 -3 -68.5 -7l-64.5 -8
q-11 -2 -17 4t-5 17q5 91 12.5 178t16.5 178l-187 -23q-11 -64 -72 -98t-167 -42l-3 16q23 32 35.5 65.5t12.5 65.5q0 38 -18.5 70.5t-57.5 53.5l1 16q45 12 94 12q31 0 60.5 -6t52.5 -18.5t38.5 -32t19.5 -46.5l578 75q15 57 66.5 86t148.5 35l11 -13q-12 -26 -19 -54.5
t-7 -56.5q0 -40 16 -75.5t54 -59.5l1 -16q-23 -5 -47.5 -8.5t-48.5 -3.5q-30 0 -58 6t-51.5 18.5t-39.5 33t-22 50.5l-201 -25q-18 -175 -30 -353q55 51 132.5 80t183.5 29q82 0 139 -21.5t92.5 -63t51.5 -101.5t16 -138q0 -38 -4 -78.5l-8.5 -88t-8 -105t-3.5 -130.5
q0 -71 1.5 -120.5t9.5 -82.5t25 -51t48 -26z" />
    <glyph glyph-name="uni12B9" unicode="&#x12b9;" horiz-adv-x="1742" 
d="M667 1302q-18 -175 -30 -353q55 51 132.5 80t183.5 29q82 0 139 -21.5t92.5 -63t51.5 -101.5t16 -138v-22l398 57q-3 -26 -3 -50q0 -54 16.5 -93.5t53.5 -74.5v-16q-27 -18 -56 -25.5t-59 -7.5q-34 0 -63.5 10t-52.5 31t-37.5 54t-18.5 79l-182 -24l-13 -136t-7 -184
q0 -71 1.5 -120.5t9.5 -82.5t25 -51t48 -26l-2 -37q-9 -3 -37.5 -8l-62.5 -10.5t-66 -9t-48 -3.5q-15 0 -22.5 9.5t-12.5 26.5q-8 27 -13 69t-7.5 84.5t-3.5 79t-1 53.5q0 63 3.5 126.5t8 119.5l8.5 102t4 73q0 44 -4 88t-19 79.5t-44 57.5t-78 22q-60 0 -102 -30t-70.5 -78
t-45.5 -107t-26 -117.5t-11.5 -110t-2.5 -83.5q0 -31 0.5 -70.5t2.5 -80t6.5 -78t12.5 -65.5q14 -45 36 -65t59 -28l-2 -37q-9 -4 -38 -10.5t-64 -13t-69.5 -11.5t-53.5 -5q-15 0 -26.5 6t-19.5 30q-10 32 -17.5 72.5t-13 85.5t-8 91t-2.5 89q0 75 6 152t21.5 150t43.5 138
t72 117q-36 -3 -68.5 -7l-64.5 -8q-11 -2 -17 4t-5 17q5 91 12.5 178t16.5 178l-187 -23q-11 -64 -72 -98t-167 -42l-3 16q23 32 35.5 65.5t12.5 65.5q0 38 -18.5 70.5t-57.5 53.5l1 16q45 12 94 12q31 0 60.5 -6t52.5 -18.5t38.5 -32t19.5 -46.5l578 75q15 57 66.5 86
t148.5 35l11 -13q-12 -26 -19 -54.5t-7 -56.5q0 -40 16 -75.5t54 -59.5l1 -16q-23 -5 -47.5 -8.5t-48.5 -3.5q-30 0 -58 6t-51.5 18.5t-39.5 33t-22 50.5z" />
    <glyph glyph-name="uni12BA" unicode="&#x12ba;" horiz-adv-x="1767" 
d="M637 950q55 51 132 79.5t183 28.5q82 0 139 -21.5t92.5 -63t51.5 -101.5t16 -138q0 -24 -4 -73t-8.5 -111t-8.5 -130.5t-4 -131.5q0 -52 3.5 -96.5t12.5 -76.5q5 -19 20.5 -26.5t50.5 -7.5q26 0 68.5 1.5t87.5 7.5q14 58 68.5 92t154.5 39l3 -23q-14 -19 -22 -47t-8 -60
q0 -40 16.5 -77t55.5 -57l-2 -22q-20 -5 -42 -7.5t-44 -2.5q-30 0 -59 5.5t-53 18.5t-41 33t-23 49q-123 -23 -200 -31t-124 -8q-48 0 -70.5 15.5t-27.5 50.5q-8 54 -12 113t-4 113q0 66 3.5 129t8 120l8.5 106t4 88q0 44 -4 88t-19 79.5t-44 57.5t-78 22q-60 0 -102 -30
t-70.5 -78t-45.5 -107t-26 -117.5t-11.5 -110t-2.5 -83.5q0 -31 0.5 -70.5t2.5 -80t6.5 -78t12.5 -65.5q14 -45 36 -65t59 -28l-2 -37q-9 -4 -38 -10.5t-64 -13t-69.5 -11.5t-53.5 -5q-15 0 -26.5 6t-19.5 30q-10 32 -17.5 72.5t-13 85.5t-8 91t-2.5 89q0 75 6 152
t21.5 149.5t43.5 137.5t72 117q-35 -3 -68 -6.5t-64 -7.5q-11 -2 -17 4t-5 17q5 91 12.5 178t16.5 178l-187 -23q-11 -64 -72 -98t-167 -42l-3 16q23 32 35.5 65.5t12.5 65.5q0 38 -18.5 70.5t-57.5 53.5l1 16q45 12 94 12q31 0 60.5 -6t52.5 -18.5t38.5 -32t19.5 -46.5
l578 75q15 57 66.5 86t148.5 35l11 -13q-12 -26 -19 -54.5t-7 -56.5q0 -40 16 -75.5t54 -59.5l1 -16q-23 -5 -47.5 -8.5t-48.5 -3.5q-30 0 -58 6t-51.5 18.5t-39.5 33t-22 50.5l-201 -25q-18 -184 -30 -352z" />
    <glyph glyph-name="uni12BB" unicode="&#x12bb;" horiz-adv-x="1378" 
d="M1310 15q-9 -3 -37.5 -8l-62.5 -10.5t-66 -9t-48 -3.5q-15 0 -22.5 9.5t-12.5 26.5q-8 27 -13 69t-7.5 84.5t-3.5 79t-1 53.5q0 63 3.5 126.5t8 119.5l8.5 102t4 73q0 44 -4 88t-19 79.5t-44 57.5t-78 22q-46 0 -83 -21.5t-66.5 -56.5t-51 -80.5t-35.5 -94t-21 -96.5
t-7 -88q0 -24 2.5 -47t11 -42t25 -31t45.5 -13l-2 -37q-9 -4 -34.5 -10t-58 -11.5t-66.5 -9.5t-59 -4q-20 0 -29 8.5t-13 25.5q-7 31 -10 63.5t-3 66.5q0 58 8.5 115.5t26.5 111.5t45 102.5t64 89.5q-36 -3 -69 -7l-65 -8q-11 -2 -17 4t-5 17q5 91 12.5 178t16.5 178
l-187 -23q-11 -64 -72 -98t-167 -42l-3 16q23 32 35.5 65.5t12.5 65.5q0 38 -18.5 70.5t-57.5 53.5l1 16q45 12 94 12q31 0 60.5 -6t52.5 -18.5t38.5 -32t19.5 -46.5l578 75q15 57 66.5 86t148.5 35l11 -13q-12 -26 -19 -54.5t-7 -56.5q0 -40 16 -75.5t54 -59.5l1 -16
q-23 -5 -47.5 -8.5t-48.5 -3.5q-30 0 -58 6t-51.5 18.5t-39.5 33t-22 50.5l-201 -25l-17 -178t-14 -178q60 52 137 82t180 30q82 0 139 -21.5t92.5 -63t51.5 -101.5t16 -138q0 -38 -4 -78.5l-8.5 -88t-8 -105t-3.5 -130.5q0 -71 1.5 -120.5t9.5 -82.5t25 -51t48 -26z" />
    <glyph glyph-name="uni12BC" unicode="&#x12bc;" horiz-adv-x="1692" 
d="M637 949q55 51 132.5 80t183.5 29q82 0 139 -21.5t92.5 -63t51.5 -101.5t16 -138q0 -15 -3.5 -55.5l-8 -95.5t-9 -120t-6.5 -128q67 14 130.5 22.5t112.5 8.5q88 0 136 -43t48 -131q0 -54 -18.5 -92t-49 -63t-71.5 -36.5t-86 -11.5q-19 0 -35.5 1t-44.5 3
q-23 -5 -57.5 -10t-70 -9t-67 -6.5t-48.5 -2.5q-34 0 -44 37q-8 28 -13 71t-7.5 87.5t-3 84t-0.5 61.5q0 63 3.5 126.5t8 119.5l8.5 102t4 73q0 44 -4 88t-19 79.5t-44 57.5t-78 22q-60 0 -102 -30t-70.5 -78t-45.5 -107t-26 -117.5t-11.5 -110t-2.5 -83.5q0 -31 0.5 -70.5
t2.5 -80t6.5 -78t12.5 -65.5q14 -45 36 -65t59 -28l-2 -37q-9 -4 -38 -10.5t-64 -13t-69.5 -11.5t-53.5 -5q-15 0 -26.5 6t-19.5 30q-10 32 -17.5 72.5t-13 85.5t-8 91t-2.5 89q0 75 6 152t21.5 150t43.5 138t72 117q-36 -3 -68.5 -7l-64.5 -8q-11 -2 -17 4t-5 17
q5 91 12.5 178t16.5 178l-187 -23q-11 -64 -72 -98t-167 -42l-3 16q23 32 35.5 65.5t12.5 65.5q0 38 -18.5 70.5t-57.5 53.5l1 16q45 12 94 12q31 0 60.5 -6t52.5 -18.5t38.5 -32t19.5 -46.5l578 75q15 57 66.5 86t148.5 35l11 -13q-12 -26 -19 -54.5t-7 -56.5
q0 -40 16 -75.5t54 -59.5l1 -16q-23 -5 -47.5 -8.5t-48.5 -3.5q-30 0 -58 6t-51.5 18.5t-39.5 33t-22 50.5l-201 -25q-18 -175 -30 -353zM1224 282q0 -68 3.5 -110t11.5 -73q9 -30 34 -45t74 -15q31 0 54 11t38 30t22 44t7 54q0 55 -25 87.5t-87 32.5q-25 0 -60 -4t-72 -12z
" />
    <glyph glyph-name="uni12BD" unicode="&#x12bd;" horiz-adv-x="1425" 
d="M449 585q14 100 49 177t89 137q-31 -3 -60 -6.5t-57 -6.5q-11 -2 -17 4t-5 17q5 91 12.5 185t16.5 185l-187 -23q-11 -64 -72 -98t-167 -42l-3 16q23 32 35.5 65.5t12.5 65.5q0 38 -18.5 70.5t-57.5 53.5l1 16q45 12 94 12q31 0 60.5 -6t52.5 -18.5t38.5 -32t19.5 -46.5
l578 75q15 57 66.5 86t148.5 35l11 -13q-12 -26 -19 -54.5t-7 -56.5q0 -40 16 -75.5t54 -59.5l1 -16q-23 -5 -47.5 -8.5t-48.5 -3.5q-30 0 -58 6t-51.5 18.5t-39.5 33t-22 50.5l-201 -25q-9 -88 -16.5 -178t-13.5 -178q75 57 158.5 84.5t183.5 27.5q165 0 241.5 -81.5
t76.5 -249.5q0 -49 -4 -91.5l-8.5 -87.5t-8.5 -97t-4 -119q0 -71 1.5 -120.5t9.5 -82.5t25 -51t48 -26l-2 -37q-9 -3 -37.5 -8l-62 -10.5t-64.5 -9t-46 -3.5q-18 0 -26 9.5t-13 26.5q-8 27 -13 69t-7.5 84.5t-3.5 79t-1 53.5q0 55 3.5 110.5t8 110t8.5 108t4 105.5
q0 43 -7.5 85t-26.5 75t-51.5 53.5t-81.5 20.5q-73 0 -123 -28t-83.5 -74.5t-53 -107t-30.5 -124.5l129 13l4 -6q-54 -81 -87.5 -173.5t-33.5 -189.5q0 -73 19 -130q14 -45 36 -64.5t59 -27.5l-2 -37q-9 -4 -37.5 -11t-63 -13.5t-68.5 -11t-53 -4.5q-14 0 -25 6.5t-20 29.5
q-19 48 -27.5 100.5t-8.5 107.5q0 97 23.5 190t65.5 171l-103 -10z" />
    <glyph glyph-name="uni12BE" unicode="&#x12be;" horiz-adv-x="1383" 
d="M1330 374q-9 -3 -37 -8l-61 -10.5t-65 -9t-48 -3.5q-15 0 -23.5 6t-13.5 17q-8 17 -13 43t-7.5 52.5t-3.5 49t-1 33.5q0 48 3.5 105t3.5 111q0 43 -7.5 82t-25 68t-46 46.5t-70.5 17.5q-60 0 -102 -30t-70.5 -78t-45.5 -107t-26 -117.5t-11.5 -110t-2.5 -83.5
q0 -31 0.5 -70.5t2.5 -80t6.5 -78t12.5 -65.5q14 -45 36 -65t59 -28l-2 -37q-9 -4 -38 -10.5t-64 -13t-69.5 -11.5t-53.5 -5q-15 0 -26.5 6t-19.5 30q-10 32 -17.5 72.5t-13 85.5t-8 91t-2.5 89q0 75 6 152t21.5 150t43.5 138t72 117q-36 -3 -68.5 -7l-64.5 -8q-11 -2 -17 4
t-5 17q5 91 12.5 178t16.5 178l-187 -23q-11 -64 -72 -98t-167 -42l-3 16q23 32 35.5 65.5t12.5 65.5q0 38 -18.5 70.5t-57.5 53.5l1 16q45 12 94 12q31 0 60.5 -6t52.5 -18.5t38.5 -32t19.5 -46.5l578 75q15 57 66.5 86t148.5 35l11 -13q-12 -26 -19 -54.5t-7 -56.5
q0 -40 16 -75.5t54 -59.5l1 -16q-23 -5 -47.5 -8.5t-48.5 -3.5q-30 0 -58 6t-51.5 18.5t-39.5 33t-22 50.5l-201 -25q-18 -175 -30 -353q55 51 132.5 80t183.5 29q81 0 138.5 -20.5t93.5 -57t53 -88t17 -112.5q0 -45 -3.5 -91.5t-3.5 -97.5q0 -45 1.5 -77t9.5 -53t25 -33
t48 -17z" />
    <glyph glyph-name="uni12C0" unicode="&#x12c0;" horiz-adv-x="1964" 
d="M1310 15q-9 -3 -37.5 -8l-62.5 -10.5t-66 -9t-48 -3.5q-15 0 -22.5 9.5t-12.5 26.5q-8 27 -13 69t-7.5 84.5t-3.5 79t-1 53.5q0 63 3.5 126.5t8 119.5l8.5 102t4 73q0 44 -4 88t-19 79.5t-44 57.5t-78 22q-60 0 -102 -30t-70.5 -78t-45.5 -107t-26 -117.5t-11.5 -110
t-2.5 -83.5q0 -31 0.5 -70.5t2.5 -80t6.5 -78t12.5 -65.5q14 -45 36 -65t59 -28l-2 -37q-9 -4 -38 -10.5t-64 -13t-69.5 -11.5t-53.5 -5q-15 0 -26.5 6t-19.5 30q-10 32 -17.5 72.5t-13 85.5t-8 91t-2.5 89q0 75 6 152t21.5 150t43.5 138t72 117q-36 -3 -68.5 -7l-64.5 -8
q-11 -2 -17 4t-5 17q5 91 12.5 178t16.5 178l-187 -23q-11 -64 -72 -98t-167 -42l-3 16q23 32 35.5 65.5t12.5 65.5q0 38 -18.5 70.5t-57.5 53.5l1 16q45 12 94 12q31 0 60.5 -6t52.5 -18.5t38.5 -32t19.5 -46.5l578 75q15 57 66.5 86t148.5 35l11 -13q-12 -26 -19 -54.5
t-7 -56.5q0 -40 16 -75.5t54 -59.5l1 -16q-23 -5 -47.5 -8.5t-48.5 -3.5q-30 0 -58 6t-51.5 18.5t-39.5 33t-22 50.5l-201 -25q-18 -175 -30 -353q55 51 132.5 80t183.5 29q82 0 139 -21.5t92.5 -63t51.5 -101.5t16 -138v-13q0 -11 -1 -12q105 0 168 2t101 4.5t60 6t46 6.5
l61 7.5t64 3.5q91 0 142 -46.5t51 -140.5q0 -35 -13 -73t-36.5 -69.5t-55 -52t-68.5 -20.5q-20 0 -48 1t-49 1q-17 0 -35 -2t-36 -5t-34 -5t-27 -2q-29 0 -53.5 14.5t-42.5 37.5t-28 50t-10 53q0 36 11 83.5t33 89.5l-204 -3l-6.5 -63.5t-6.5 -72t-5 -83.5t-2 -99
q0 -71 1.5 -120.5t9.5 -82.5t25 -51t48 -26zM1665 392q30 0 53.5 15t39.5 38.5t24.5 52.5t8.5 58q0 54 -25 87t-73 33q-36 0 -60.5 -11.5t-39.5 -31.5t-22 -46.5t-7 -57.5q0 -25 6 -49.5t19 -44t31.5 -31.5t44.5 -12z" />
    <glyph glyph-name="uni12C2" unicode="&#x12c2;" horiz-adv-x="1995" 
d="M1310 15q-9 -3 -37.5 -8l-62.5 -10.5t-66 -9t-48 -3.5q-15 0 -22.5 9.5t-12.5 26.5q-8 27 -13 69t-7.5 84.5t-3.5 79t-1 53.5q0 63 3.5 126.5t8 119.5l8.5 102t4 73q0 44 -4 88t-19 79.5t-44 57.5t-78 22q-60 0 -102 -30t-70.5 -78t-45.5 -107t-26 -117.5t-11.5 -110
t-2.5 -83.5q0 -31 0.5 -70.5t2.5 -80t6.5 -78t12.5 -65.5q14 -45 36 -65t59 -28l-2 -37q-9 -4 -38 -10.5t-64 -13t-69.5 -11.5t-53.5 -5q-15 0 -26.5 6t-19.5 30q-10 32 -17.5 72.5t-13 85.5t-8 91t-2.5 89q0 75 6 152t21.5 150t43.5 138t72 117q-36 -3 -68.5 -7l-64.5 -8
q-11 -2 -17 4t-5 17q5 91 12.5 178t16.5 178l-187 -23q-11 -64 -72 -98t-167 -42l-3 16q23 32 35.5 65.5t12.5 65.5q0 38 -18.5 70.5t-57.5 53.5l1 16q45 12 94 12q31 0 60.5 -6t52.5 -18.5t38.5 -32t19.5 -46.5l578 75q15 57 66.5 86t148.5 35l11 -13q-12 -26 -19 -54.5
t-7 -56.5q0 -40 16 -75.5t54 -59.5l1 -16q-23 -5 -47.5 -8.5t-48.5 -3.5q-30 0 -58 6t-51.5 18.5t-39.5 33t-22 50.5l-201 -25q-18 -175 -30 -353q55 51 132.5 80t183.5 29q82 0 139 -21.5t92.5 -63t51.5 -101.5t16 -138q0 -36 -3 -73l215 6q5 19 8 33.5l7 33.5q3 15 3 32
q0 25 -11 45t-41 23l-2 37q25 6 52.5 11t53 9t46 6t32.5 2q39 0 52.5 -19.5t13.5 -45.5q0 -9 -1.5 -19t-3.5 -21l-13.5 -67l-15 -75.5l-14.5 -75.5t-12 -68l314 8q-10 -25 -16.5 -54t-6.5 -59q0 -39 14 -74.5t47 -57.5l-1 -17q-48 -17 -85 -17q-44 0 -77 15.5t-54.5 44
t-31.5 67t-8 85.5q-51 -1 -94.5 -2.5t-95.5 -1.5q-26 0 -43 5.5t-26.5 14.5t-13.5 21t-4 26q0 7 1.5 17.5l3.5 24.5l10 53l-208 -5q-5 -54 -10 -118.5t-5 -151.5q0 -71 1.5 -120.5t9.5 -82.5t25 -51t48 -26z" />
    <glyph glyph-name="uni12C3" unicode="&#x12c3;" horiz-adv-x="1550" 
d="M944 110l38 227t26 177.5t14.5 135.5t4.5 102t-4 88t-19 79.5t-44 57.5t-78 22q-46 0 -83 -21.5t-66.5 -56.5t-51 -80.5t-35.5 -94t-21 -96.5t-7 -88q0 -24 2.5 -47t11 -42t25 -31t45.5 -13l-2 -37q-9 -4 -34.5 -10t-58 -11.5t-66.5 -9.5t-59 -4q-20 0 -29 8.5t-13 25.5
q-7 31 -10 63.5t-3 66.5q0 58 8.5 115.5t26.5 111.5t45 102.5t64 89.5q-36 -3 -64.5 -6.5l-60.5 -7.5q-11 -2 -17 4t-5 17q4 72 9 141t12 141l-371 -14q12 40 12 85q0 39 -11 77.5t-34 68.5l-1 15q39 12 78 12q37 0 71 -11.5t59 -34.5t39 -59t11 -84l457 17q-3 55 14 95.5
t47.5 66.5t72.5 39t89 13q13 0 26 -1t26 -3v-16q-32 -32 -45 -71.5t-13 -82.5q0 -46 12 -91l-359 -14q-7 -66 -12 -132.5l-10 -132.5q63 57 141.5 84t166.5 27q157 0 231.5 -81t74.5 -242q0 -52 -4.5 -111.5t-14.5 -135t-25.5 -172l-37.5 -222.5l356 14q-12 -42 -12 -87
t11.5 -86t37.5 -73l2 -16q-50 -14 -83 -14q-38 0 -72.5 12.5t-60 37.5t-40 63t-11.5 89l-501 -19q1 -57 -16 -99t-48 -69.5t-74.5 -41t-95.5 -13.5q-23 0 -47 3l-1 18q31 32 47 73.5t16 86.5q0 38 -12 74l-1 23z" />
    <glyph glyph-name="uni12C4" unicode="&#x12c4;" horiz-adv-x="1694" 
d="M637 949q55 51 132.5 80t183.5 29q82 0 139 -21.5t92.5 -63t51.5 -101.5t16 -138q0 -14 -2 -51t-6 -88t-10 -110.5t-13 -117.5q69 14 133 21.5t113 7.5q78 0 122.5 -35.5t44.5 -113.5q0 -61 -20.5 -104t-56.5 -70t-86 -39.5t-108 -12.5q-13 0 -26 0.5t-27 1.5
q-20 -4 -48.5 -8t-59 -7t-60 -5.5t-51.5 -3.5l-321 -104q16 -31 16 -71q0 -36 -13.5 -70t-37.5 -61t-56.5 -43t-69.5 -16q-10 0 -20 1t-21 4q11 31 17.5 60.5t6.5 58.5q0 32 -9.5 64t-31.5 64l476 154q-4 21 -5 48.5t-1 57.5q0 69 6 155t14 169l13 146t6 111q0 44 -4 88
t-19 79.5t-44 57.5t-78 22q-53 0 -93.5 -23t-70.5 -61.5t-50 -90t-32.5 -108.5t-17.5 -116.5t-5 -113.5q0 -53 3.5 -104.5t14 -93t29.5 -67.5t50 -27l-2 -35q-9 -4 -34 -10t-55.5 -12t-61 -10t-49.5 -4t-32.5 18t-24 46t-17 62.5t-10.5 68t-5.5 61.5t-1.5 43q0 62 9 133.5
t27.5 142t47.5 133.5t69 109q-36 -3 -68.5 -7l-64.5 -8q-11 -2 -17 4t-5 17q5 91 12.5 178t16.5 178l-187 -23q-11 -64 -72 -98t-167 -42l-3 16q23 32 35.5 65.5t12.5 65.5q0 38 -18.5 70.5t-57.5 53.5l1 16q45 12 94 12q31 0 60.5 -6t52.5 -18.5t38.5 -32t19.5 -46.5
l578 75q15 57 66.5 86t148.5 35l11 -13q-12 -26 -19 -54.5t-7 -56.5q0 -40 16 -75.5t54 -59.5l1 -16q-23 -5 -47.5 -8.5t-48.5 -3.5q-30 0 -58 6t-51.5 18.5t-39.5 33t-22 50.5l-201 -25q-18 -175 -30 -353zM1215 312q-3 -28 -4.5 -50.5t-2.5 -42.5q0 -10 -0.5 -19.5
t-0.5 -18.5q0 -25 3.5 -45.5t14.5 -35.5t32 -23t57 -8q34 0 59.5 13.5t42.5 35.5t25.5 51t8.5 61q0 48 -24 73t-78 25q-25 0 -60 -4t-73 -12z" />
    <glyph glyph-name="uni12C5" unicode="&#x12c5;" horiz-adv-x="1693" 
d="M1310 15q-9 -3 -37.5 -8l-62.5 -10.5t-66 -9t-48 -3.5q-15 0 -22.5 9.5t-12.5 26.5q-8 27 -13 69t-7.5 84.5t-3.5 79t-1 53.5q0 63 3.5 126.5t8 119.5l8.5 102t4 73q0 44 -4 88t-19 79.5t-44 57.5t-78 22q-60 0 -102 -30t-70.5 -78t-45.5 -107t-26 -117.5t-11.5 -110
t-2.5 -83.5q0 -31 0.5 -70.5t2.5 -80t6.5 -78t12.5 -65.5q14 -45 36 -65t59 -28l-2 -37q-9 -4 -38 -10.5t-64 -13t-69.5 -11.5t-53.5 -5q-15 0 -26.5 6t-19.5 30q-10 32 -17.5 72.5t-13 85.5t-8 91t-2.5 89q0 75 6 152t21.5 150t43.5 138t72 117q-36 -3 -68.5 -7l-64.5 -8
q-11 -2 -17 4t-5 17q5 91 12.5 178t16.5 178l-187 -23q-11 -64 -72 -98t-167 -42l-3 16q23 32 35.5 65.5t12.5 65.5q0 38 -18.5 70.5t-57.5 53.5l1 16q45 12 94 12q31 0 60.5 -6t52.5 -18.5t38.5 -32t19.5 -46.5l567 74q15 57 66.5 86t148.5 35l11 -13q-12 -26 -19 -54.5
t-7 -56.5q0 -40 16 -75.5t54 -59.5l1 -16q-23 -5 -47.5 -8.5t-48.5 -3.5q-30 0 -58 6t-51.5 18.5t-39.5 33t-22 50.5l-190 -24q-18 -175 -30 -353q55 51 132.5 80t183.5 29q105 0 168.5 -35t95.5 -101q3 69 8 134.5t12 134.5l184 13q-5 -64 -9.5 -127.5t-6.5 -127.5l219 15
q-8 -28 -12.5 -61.5t-2.5 -67.5q3 -39 16.5 -73.5t42.5 -56.5v-18q-19 -8 -37 -12t-35 -5q-36 -3 -69 8t-59.5 34.5t-43.5 60t-20 84.5q-1 8 -0.5 16.5t0.5 16.5l-170 -11q18 -63 18 -145q0 -38 -4 -78.5l-8.5 -88t-8 -105t-3.5 -130.5q0 -71 1.5 -120.5t9.5 -82.5t25 -51
t48 -26z" />
    <glyph glyph-name="uni12C8" unicode="&#x12c8;" horiz-adv-x="1359" 
d="M833 1120l74.5 22.5t76 20.5t67 15t47.5 6q42 0 72.5 -17.5t52 -47t34.5 -67t20 -78t9.5 -80t2.5 -72.5q0 -110 -17.5 -210t-63 -176.5t-124 -122t-200.5 -45.5q-48 0 -95 4t-98 4t-95.5 -12t-92.5 -27q-53 -17 -106.5 -31.5t-118.5 -14.5q-62 0 -100.5 27.5t-59.5 70.5
t-28 95t-7 102q0 74 10.5 147t33.5 141t59.5 129t88.5 111q93 90 231 128.5t320 43.5q14 0 13 -16zM651 1102q-100 -9 -164.5 -50.5t-106.5 -110.5q-29 -48 -47.5 -105t-29.5 -116t-15.5 -117.5t-4.5 -107.5q0 -36 4.5 -73.5t18 -68t38.5 -49.5t66 -19q51 0 80.5 18.5t46 48
t23 66.5t10.5 73q4 37 11.5 97.5l18 139.5l23.5 173.5zM825 1062q-1 -8 -6.5 -48l-14.5 -108.5l-20.5 -162l-25.5 -207.5l-4 -39.5t-2 -40.5q0 -25 4.5 -47.5t17.5 -39.5t35 -27t58 -10q55 0 93.5 26t64.5 68t41 94t23 105t10 100.5t2 80.5q0 40 -4.5 89t-20 92.5t-44.5 73
t-78 29.5q-11 0 -27.5 -2.5t-34.5 -6.5t-35.5 -9t-31.5 -10z" />
    <glyph glyph-name="uni12C9" unicode="&#x12c9;" horiz-adv-x="1683" 
d="M834 1120l74.5 22.5t76 20.5t67 15t47.5 6q42 0 72.5 -17.5t52 -47t34.5 -67t20 -78t9.5 -80t2.5 -72.5q0 -75 -9 -145t-28.5 -132t-51.5 -113.5t-78 -88.5l1 -3q28 1 61.5 3l68 4t66.5 4.5l57 4.5q34 112 229 111l1 -23q-17 -24 -27 -56.5t-10 -66.5q0 -39 14.5 -73.5
t48.5 -53.5l-3 -22q-17 -4 -33 -6t-32 -2q-33 0 -65 8t-58.5 24t-45 41t-23.5 60q-71 -5 -127 -10l-108.5 -9.5t-106 -7t-119.5 -2.5q-57 0 -110 4t-110 4q-51 0 -95.5 -12t-92.5 -27q-53 -17 -106.5 -31.5t-118.5 -14.5q-62 0 -100 27.5t-59 70.5t-28.5 95t-7.5 102
q0 75 11 148t34 141t59.5 128.5t87.5 110.5q93 90 231 128.5t320 43.5q14 0 13 -16zM826 1062q-1 -8 -6.5 -48l-14.5 -108.5l-20.5 -162l-25.5 -207.5l-4 -39.5t-2 -40.5q0 -25 4.5 -47.5t17.5 -39.5t35 -27t58 -10q56 0 95 26t65 68t41 94t22 105t9 100.5t2 80.5
q0 40 -4.5 89t-20 92.5t-44.5 73t-78 29.5q-11 0 -27.5 -2.5t-34.5 -6.5t-35.5 -9t-31.5 -10zM652 1102q-100 -9 -164.5 -50.5t-106.5 -110.5q-29 -48 -47.5 -105t-29.5 -116t-15.5 -117.5t-4.5 -107.5q0 -36 4.5 -73.5t18 -68t38.5 -49.5t66 -19q51 0 80.5 18.5t46 48
t23 66.5t10.5 73q4 37 11.5 97.5l18 139.5l23.5 173.5z" />
    <glyph glyph-name="uni12CA" unicode="&#x12ca;" horiz-adv-x="1195" 
d="M684 657q-11 -141 -20 -268.5t-15 -239.5q-1 -8 -1.5 -20t-0.5 -21q0 -16 7 -28.5t31 -12.5h30q25 0 55.5 1.5t81.5 7.5q29 118 231 128l3 -23q-16 -23 -24 -53.5t-8 -62.5q0 -43 16.5 -80.5t53.5 -55.5l-2 -22q-20 -5 -42 -7.5t-44 -2.5q-30 0 -60.5 5t-56 18.5t-44 37
t-24.5 59.5q-114 -18 -189 -25t-131 -7q-43 -1 -58.5 24.5t-11.5 83.5q3 56 7 120t9.5 133.5l11 143l11.5 148.5q-110 -65 -212 -65q-56 0 -98.5 19.5t-71.5 54t-43.5 81.5t-14.5 101q0 112 45 188.5t119.5 123.5t171 67.5t199.5 21.5q46 0 90 6t85.5 13.5t80 13.5t71.5 6
q58 0 103.5 -19t76.5 -52.5t47 -80.5t16 -103q0 -75 -25 -144t-70 -122.5t-108.5 -85t-140.5 -31.5q-23 0 -59 7t-78 19zM728 1184q-10 -103 -20 -220.5t-20 -248.5q32 -8 55.5 -11t41.5 -3q51 0 86.5 31.5t58 78.5t32.5 100t10 97q0 89 -38.5 137t-125.5 48q-35 0 -80 -9z
M545 1171q-70 -3 -124.5 -26t-91.5 -63.5t-56.5 -96.5t-19.5 -125q0 -41 8.5 -74.5t27.5 -58t49 -38t74 -13.5q17 0 39.5 3.5t53.5 16.5l21.5 254t18.5 221z" />
    <glyph glyph-name="uni12CB" unicode="&#x12cb;" horiz-adv-x="1185" 
d="M684 657q-11 -141 -20 -268.5t-15 -239.5q0 -8 -0.5 -15.5t-0.5 -15.5q0 -13 2 -25t7.5 -21.5t16 -15.5t27.5 -6v-37q-25 -6 -50.5 -11t-48 -9t-41 -6t-30.5 -2q-43 0 -58.5 25t-11.5 83q3 56 7 120t9.5 133.5l11 143l11.5 148.5q-110 -65 -212 -65q-56 0 -98.5 19.5
t-71.5 54t-43.5 81.5t-14.5 101q0 112 45 188.5t119.5 123.5t171 67.5t199.5 21.5q46 0 90 6t85.5 13.5t80 13.5t71.5 6q58 0 103.5 -19t76.5 -52.5t47 -80.5t16 -103q0 -75 -25 -144t-70 -122.5t-108.5 -85t-140.5 -31.5q-23 0 -59 7t-78 19zM545 1171q-70 -3 -124.5 -26
t-91.5 -63.5t-56.5 -96.5t-19.5 -125q0 -41 8.5 -74.5t27.5 -58t49 -38t74 -13.5q17 0 39.5 3.5t53.5 16.5l21.5 254t18.5 221zM728 1184q-10 -103 -20 -220.5t-20 -248.5q32 -8 55.5 -11t41.5 -3q51 0 86.5 31.5t58 78.5t32.5 100t10 97q0 89 -38.5 137t-125.5 48
q-35 0 -80 -9z" />
    </font>
</defs>
</svg>
